<?xml version="1.0" encoding="utf-8"?>
<!-- Generator: Adobe Illustrator 25.3.1, SVG Export Plug-In . SVG Version: 6.00 Build 0)  -->
<svg version="1.1" id="Layer_1" xmlns="http://www.w3.org/2000/svg" xmlns:xlink="http://www.w3.org/1999/xlink" x="0px" y="0px"
	 viewBox="0 0 710.8 59.3" style="enable-background:new 0 0 710.8 59.3;" xml:space="preserve">
<style type="text/css">
	.st0{opacity:0.62;}
	.st1{fill:url(#SVGID_1_);}
	.st2{fill:#606060;}
	.st3{font-family:'Avenir-Book';}
	.st4{font-size:37.4498px;}
	.st5{fill:#D5D7D8;}
	.st6{fill:url(#SVGID_2_);}
	.st7{opacity:0.2;fill:#F1F2F2;enable-background:new    ;}
	.st8{fill:url(#SVGID_3_);}
	.st9{opacity:0.67;fill:#FFFFFF;enable-background:new    ;}
	.st10{fill:#FFFFFF;}
	.st11{opacity:0.49;fill:#FFFFFF;enable-background:new    ;}
	.st12{opacity:0.48;fill:#FFFFFF;enable-background:new    ;}
	.st13{opacity:0.79;fill:#FFFFFF;enable-background:new    ;}
	.st14{fill:url(#SVGID_4_);}
	.st15{fill:url(#SVGID_5_);}
	.st16{fill:url(#SVGID_6_);}
	.st17{fill:url(#SVGID_7_);}
	.st18{fill:url(#SVGID_8_);}
	.st19{fill:url(#SVGID_9_);}
	.st20{fill:url(#SVGID_10_);}
	.st21{fill:url(#SVGID_11_);}
	.st22{fill:url(#SVGID_12_);}
	.st23{fill:url(#SVGID_13_);}
	.st24{fill:url(#SVGID_14_);}
	.st25{fill:url(#SVGID_15_);}
	.st26{fill:url(#SVGID_16_);}
	.st27{fill:url(#SVGID_17_);}
	.st28{fill:url(#SVGID_18_);}
	.st29{fill:url(#SVGID_19_);}
	.st30{fill:url(#SVGID_20_);}
	.st31{fill:url(#SVGID_21_);}
	.st32{fill:url(#SVGID_22_);}
	.st33{fill:url(#SVGID_23_);}
</style>
<g>
	<g class="st0">
		
			<radialGradient id="SVGID_1_" cx="-1103.6948" cy="1077.9192" r="7.7394" fx="-1105.115" fy="1081.6239" gradientTransform="matrix(26.2283 0 0 0.7859 29067.4199 -793.8555)" gradientUnits="userSpaceOnUse">
			<stop  offset="7.196508e-02" style="stop-color:#000000;stop-opacity:0.12"/>
			<stop  offset="0.189" style="stop-color:#424242;stop-opacity:9.573053e-02"/>
			<stop  offset="0.3105" style="stop-color:#7F7F80;stop-opacity:7.051824e-02"/>
			<stop  offset="0.4219" style="stop-color:#B0B0B1;stop-opacity:4.741077e-02"/>
			<stop  offset="0.5192" style="stop-color:#D3D3D4;stop-opacity:2.722403e-02"/>
			<stop  offset="0.5987" style="stop-color:#E8E8E9;stop-opacity:1.073760e-02"/>
			<stop  offset="0.6504" style="stop-color:#F0F0F1;stop-opacity:0"/>
			<stop  offset="0.9561" style="stop-color:#FFFFFF;stop-opacity:0"/>
		</radialGradient>
		<path class="st1" d="M307.2,54.4c-0.2,1.8-97.2,3.2-174.6,3.2c-77.9,0-175.2-1.4-175.4-3.2c-0.2-1.7,91.7-3.7,174.5-3.7
			C215.2,50.6,307.4,52.6,307.2,54.4z"/>
	</g>
	<text transform="matrix(0.9668 0 0 1 36.7168 51.3767)" class="st2 st3 st4">cell-</text>
	<text transform="matrix(0.9668 0 0 1 103.6987 51.3767)" class="st5 st3 st4">t</text>
	<text transform="matrix(0.9668 0 0 1 115.7676 51.3767)" class="st5 st3 st4">o</text>
	<text transform="matrix(0.9668 0 0 1 137.1899 51.3767)" class="st5 st3 st4">o</text>
	<text transform="matrix(0.9668 0 0 1 158.687 51.3767)" class="st5 st3 st4">l</text>
	<text transform="matrix(0.9668 0 0 1 167.3613 51.3767)" class="st5 st3 st4">s</text>
</g>
<g>
	<g>
		<g>
			<g>
				
					<image style="overflow:visible;opacity:0.1;enable-background:new    ;" width="275" height="267" xlink:href="36948CB564FABF46.png"  transform="matrix(0.3273 0 0 0.3273 -33.2553 -155.5534)">
				</image>
				<g>
					
						<linearGradient id="SVGID_2_" gradientUnits="userSpaceOnUse" x1="-9.1715" y1="891.592" x2="29.0817" y2="918.3772" gradientTransform="matrix(1 0 0 1 0 -1018)">
						<stop  offset="0" style="stop-color:#79C588"/>
						<stop  offset="0.171" style="stop-color:#006B3C"/>
						<stop  offset="1" style="stop-color:#7DC353"/>
					</linearGradient>
					<path class="st6" d="M34.3-115.6c0.4,1.5,0.4,3.7,0,5.9c-0.4,2.6-1.5,4.1-2.6,5.9c-0.7,1.1-2.2,3.3-4.5,5.6
						c-1.5,1.5-6.3,5.9-13.7,7.4c-1.1,0-13,2.2-20.8-5.9c-4.1-4.5-4.8-9.3-5.2-12.2c-0.4-2.6-1.5-7.8,1.1-13.4
						c3.7-8.9,13-11.9,14.5-12.6c0,0,6.3-1.9,13-0.4c2.6,0.4,4.8,1.5,5.2,1.9c1.1,0.4,2.2,1.1,3.7,2.2c1.1,0.7,2.2,1.9,4.1,4.8
						C31.7-122.7,33.6-119.7,34.3-115.6z"/>
				</g>
			</g>
		</g>
		<path class="st7" d="M29.8-103c1.5-0.4,1.5-0.4,1.9-0.4c0,0.4-0.7,1.1-2.2,3c-0.7,0.7-1.5,1.5-2.2,2.6c-0.4,0.4-1.5,1.5-2.6,2.2
			c-1.5,1.1-3.3,2.2-5.6,3.3c-1.5,0.7-3.7,1.5-5.6,1.9c-0.4,0-3.7,0.4-7.8,0c-2.2-0.4-4.8-0.7-7.4-2.2C-2.8-93-3.9-93.8-5-94.5
			c-1.1-0.7-1.9-1.5-2.6-2.2c-1.1-1.1-1.9-2.2-2.2-3.3c-0.4-0.7-1.1-1.5-1.1-2.6c-0.4-1.1-0.7-1.9-0.7-2.6c-0.4-0.7-0.4-1.5-0.4-2.2
			c0-0.4,0-1.1-0.4-1.5c-0.4-2.2-0.4-2.6-0.4-3.3c0-0.7,0-1.5,0.4-1.5c0.4-0.4,1.1,0,1.5,0.4c1.1,0.4,1.1,1.5,1.5,1.9
			C-8.4-109-8-107.5-8-106c0.4,3.7,3.3,7.8,6.7,9.6c0,0,4.5,2.6,10.8,2.2c0.4,0,0.4,0,0.4,0c3-0.4,4.5-1.5,5.9-2.2
			c0.4-0.4,3.3-1.5,4.8-2.6C23.5-100.8,25-101.2,29.8-103z"/>
		
			<radialGradient id="SVGID_3_" cx="1287.4895" cy="1683.2292" r="32.5896" fx="1299.833" fy="1693.375" gradientTransform="matrix(0.3731 0 0 0.3307 -471.2029 -671.2372)" gradientUnits="userSpaceOnUse">
			<stop  offset="0" style="stop-color:#72C169"/>
			<stop  offset="0.3078" style="stop-color:#098040"/>
			<stop  offset="0.4732" style="stop-color:#0B8040"/>
			<stop  offset="1" style="stop-color:#133F1E"/>
		</radialGradient>
		<path class="st8" d="M6.5-102.7c-3.7-0.4-8.9-3.3-9.6-8.5c-0.4-3.3,0.7-6.3,1.1-7c0.4-0.7,0.7-1.9,1.9-3.3c1.1-1.1,1.9-1.9,3-2.6
			c0.4-0.4,1.9-1.1,3.3-1.9c1.1-0.4,4.5-1.5,8.2-0.4c0.4,0,6.3,2.2,7,8.2c0,1.1,0.4,4.1-1.5,7.8c-2.2,4.1-5.6,5.6-6.7,6.3
			C10.2-102.3,7.6-102.7,6.5-102.7z"/>
		<path class="st9" d="M-1.3-94.9c0.7,0.4,1.9,0.7,1.9,1.1s-1.1,0.4-1.1,0.4c-2.2,0.4-5.2-3-6.7-4.5c-0.7-0.7-1.1-1.5-1.5-1.9
			c0,0-0.4-0.4-0.4-1.1c-0.4-0.4-0.4-0.7-0.4-1.1c0,0,0-0.4,0-0.7c0.4,0,0.4,0,0.7,0.4c0.4,0.4,0.4,0.4,0.4,0.4
			c1.1,1.5,2.6,4.5,4.5,5.6C-3.5-95.6-2.8-95.2-1.3-94.9z"/>
		<path class="st10" d="M-1.3-96"/>
		<path class="st11" d="M6.8-104.5c2.2-0.4,3-2.2,4.5-1.9c0,0,1.1,0.4,1.1,1.1c0,0.4,0,0.4,0,0.7c0,0-0.4,0.4-0.7,0.7
			c-0.7,0.4-1.5,0.4-2.6,0.4c-1.1,0-1.9,0-2.2,0c-2.6-0.4-4.5-1.5-4.5-1.5c-3-1.9-4.1-4.5-4.5-5.9c0-0.4,0-1.1,0.4-1.5
			c0.4-0.4,0.7-0.4,1.1-0.4c0.7,0.4,0,2.6,1.1,4.8c0.4,0.7,1.1,1.1,1.9,1.9C2.8-105.3,4.6-104.1,6.8-104.5z"/>
		<path class="st12" d="M18.3-122.7c0,0.4,0.7,1.1,0.4,1.9c-0.4,0.7-1.9,0.7-2.6,0.7c-1.9,0-2.2-0.7-4.5-1.5c-0.4,0-1.9-0.4-3.3-0.4
			c-2.6,0.4-3.7,1.5-4.8,1.1c-0.7-0.4-1.1-1.5-0.7-2.2c0.4-1.1,1.5-1.5,3.3-1.9c1.5-0.4,3-1.1,5.6-0.7
			C13.5-124.9,16.9-124.9,18.3-122.7z"/>
		<path class="st12" d="M20.6-119.7v0.4c-0.4,0.4-1.5,0.4-1.9,0c0-0.4,0.4-1.1,1.1-1.1C20.2-120.5,20.6-120.1,20.6-119.7z"/>
		<path class="st13" d="M26.5-128.6c0.4,1.1,0.4,2.6-0.4,3c-0.7,0.4-2.2-0.4-3.7-1.5c-1.9-1.1-4.5-2.6-6.7-3
			c-3.7-1.1-9.3-0.4-10.4-1.1C5-131.6,5-132,5-132c0-0.4-0.4-0.7-0.4-1.5c0,0,0-0.4,0.7-0.7c1.5-1.1,4.5-1.1,4.5-1.1
			c2.6,0,4.1,0,5.6,0.4c4.1,0.7,6.7,2.2,7.4,2.6C24.3-131.6,25.8-130.5,26.5-128.6z"/>
		<path class="st13" d="M29.5-124.2c-0.4,0.7-1.5,1.1-2.2,0.7c-1.1-0.7-0.7-3,0-3.3C28-127.1,29.8-125.3,29.5-124.2z"/>
	</g>
</g>
<g>
	<g>
		<g>
			<g>
				<g>
					
						<image style="overflow:visible;opacity:0.1;enable-background:new    ;" width="275" height="267" xlink:href="36948CB564FABF46.png"  transform="matrix(9.475573e-02 0 0 9.475573e-02 -1.2108 36.8404)">
					</image>
					<g>
						
							<linearGradient id="SVGID_4_" gradientUnits="userSpaceOnUse" x1="5.7622" y1="1063.2789" x2="16.8377" y2="1071.0341" gradientTransform="matrix(1 0 0 1 0 -1018)">
							<stop  offset="0" style="stop-color:#79C588"/>
							<stop  offset="0.171" style="stop-color:#006B3C"/>
							<stop  offset="1" style="stop-color:#7DC353"/>
						</linearGradient>
						<path class="st14" d="M18.3,48.4c0.1,0.4,0.1,1.1,0,1.7c-0.1,0.8-0.4,1.2-0.8,1.7c-0.2,0.3-0.6,1-1.3,1.6
							c-0.4,0.4-1.8,1.7-4,2.1c-0.3,0-3.8,0.6-6-1.7c-1.2-1.3-1.4-2.7-1.5-3.5c-0.1-0.8-0.4-2.3,0.3-3.9c1.1-2.6,3.8-3.4,4.2-3.7
							c0,0,1.8-0.5,3.8-0.1c0.8,0.1,1.4,0.4,1.5,0.5c0.3,0.1,0.6,0.3,1.1,0.6c0.3,0.2,0.6,0.5,1.2,1.4
							C17.6,46.4,18.1,47.2,18.3,48.4z"/>
					</g>
				</g>
			</g>
			<path class="st7" d="M17.1,52c0.4-0.1,0.4-0.1,0.5-0.1c0,0.1-0.2,0.3-0.6,0.9c-0.2,0.2-0.4,0.4-0.6,0.8c-0.1,0.1-0.4,0.4-0.8,0.6
				c-0.4,0.3-1,0.6-1.6,1c-0.4,0.2-1.1,0.4-1.6,0.5c-0.1,0-1.1,0.1-2.3,0c-0.6-0.1-1.4-0.2-2.1-0.6c-0.3-0.1-0.6-0.3-1-0.5
				c-0.3-0.2-0.5-0.4-0.8-0.6c-0.3-0.3-0.5-0.6-0.6-1c-0.1-0.2-0.3-0.4-0.3-0.8C5.1,51.8,5,51.6,5,51.4c-0.1-0.2-0.1-0.4-0.1-0.6
				c0-0.1,0-0.3-0.1-0.4c-0.1-0.6-0.1-0.8-0.1-1s0-0.4,0.1-0.4c0.1-0.1,0.3,0,0.4,0.1c0.3,0.1,0.3,0.4,0.4,0.5
				c0.3,0.8,0.4,1.2,0.4,1.6c0.1,1.1,1,2.3,1.9,2.8c0,0,1.3,0.8,3.1,0.6c0.1,0,0.1,0,0.1,0c0.9-0.1,1.3-0.4,1.7-0.6
				c0.1-0.1,1-0.4,1.4-0.8C15.2,52.7,15.7,52.6,17.1,52z"/>
			
				<radialGradient id="SVGID_5_" cx="1202.449" cy="2210.2766" r="10.5458" fx="1206.4432" fy="2213.5598" gradientTransform="matrix(0.3338 0 0 0.2959 -390.3395 -605.2979)" gradientUnits="userSpaceOnUse">
				<stop  offset="0" style="stop-color:#72C169"/>
				<stop  offset="0.3078" style="stop-color:#098040"/>
				<stop  offset="0.4732" style="stop-color:#0B8040"/>
				<stop  offset="1" style="stop-color:#133F1E"/>
			</radialGradient>
			<path class="st15" d="M10.3,52.2c-1.1-0.1-2.6-1-2.8-2.5c-0.1-1,0.2-1.8,0.3-2c0.1-0.2,0.2-0.5,0.5-1c0.3-0.3,0.5-0.5,0.9-0.8
				c0.1-0.1,0.5-0.3,1-0.5c0.3-0.1,1.3-0.4,2.4-0.1c0.1,0,1.8,0.6,2,2.4c0,0.3,0.1,1.2-0.4,2.3c-0.6,1.2-1.6,1.6-1.9,1.8
				C11.4,52.3,10.6,52.2,10.3,52.2z"/>
			<path class="st9" d="M8,54.4c0.2,0.1,0.5,0.2,0.5,0.3s-0.3,0.1-0.3,0.1c-0.6,0.1-1.5-0.9-1.9-1.3C6.1,53.3,6,53.1,5.9,53
				c0,0-0.1-0.1-0.1-0.3c-0.1-0.1-0.1-0.2-0.1-0.3c0,0,0-0.1,0-0.2c0.1,0,0.1,0,0.2,0.1C6,52.4,6,52.4,6,52.4
				c0.3,0.4,0.8,1.3,1.3,1.6C7.4,54.2,7.6,54.3,8,54.4z"/>
			<path class="st10" d="M8,54.1"/>
			<path class="st11" d="M10.4,51.6c0.6-0.1,0.9-0.6,1.3-0.5c0,0,0.3,0.1,0.3,0.3c0,0.1,0,0.1,0,0.2c0,0-0.1,0.1-0.2,0.2
				c-0.2,0.1-0.4,0.1-0.8,0.1c-0.3,0-0.5,0-0.6,0c-0.8-0.1-1.3-0.4-1.3-0.4c-0.9-0.5-1.2-1.3-1.3-1.7c0-0.1,0-0.3,0.1-0.4
				c0.1-0.1,0.2-0.1,0.3-0.1c0.2,0.1,0,0.8,0.3,1.4c0.1,0.2,0.3,0.3,0.5,0.5C9.2,51.4,9.8,51.7,10.4,51.6z"/>
			<path class="st12" d="M13.7,46.4c0,0.1,0.2,0.3,0.1,0.5c-0.1,0.2-0.5,0.2-0.8,0.2c-0.5,0-0.6-0.2-1.3-0.4c-0.1,0-0.5-0.1-1-0.1
				c-0.8,0.1-1.1,0.4-1.4,0.3c-0.2-0.1-0.3-0.4-0.2-0.6c0.1-0.3,0.4-0.4,1-0.5c0.4-0.1,0.9-0.3,1.6-0.2
				C12.3,45.7,13.3,45.7,13.7,46.4z"/>
			<path class="st12" d="M14.4,47.2v0.1c-0.1,0.1-0.4,0.1-0.5,0c0-0.1,0.1-0.3,0.3-0.3C14.3,47,14.4,47.1,14.4,47.2z"/>
			<path class="st13" d="M16.1,44.6c0.1,0.3,0.1,0.8-0.1,0.9c-0.2,0.1-0.6-0.1-1.1-0.4c-0.5-0.3-1.3-0.8-1.9-0.9
				c-1.1-0.3-2.7-0.1-3-0.3c-0.1-0.1-0.1-0.2-0.1-0.2c0-0.1-0.1-0.2-0.1-0.4c0,0,0-0.1,0.2-0.2c0.4-0.3,1.3-0.3,1.3-0.3
				c0.8,0,1.2,0,1.6,0.1c1.2,0.2,1.9,0.6,2.1,0.8C15.4,43.8,15.9,44.1,16.1,44.6z"/>
			<path class="st13" d="M17,45.9c-0.1,0.2-0.4,0.3-0.6,0.2c-0.3-0.2-0.2-0.9,0-1C16.5,45.1,17.1,45.6,17,45.9z"/>
		</g>
	</g>
	<g>
		<g>
			<g>
				<g>
					
						<image style="overflow:visible;opacity:0.1;enable-background:new    ;" width="275" height="267" xlink:href="36948CB564FABF46.png"  transform="matrix(8.918186e-02 0 0 8.918186e-02 3.8993 24.404)">
					</image>
					<g>
						
							<linearGradient id="SVGID_6_" gradientUnits="userSpaceOnUse" x1="10.4621" y1="1050.3461" x2="20.8861" y2="1057.645" gradientTransform="matrix(1 0 0 1 0 -1018)">
							<stop  offset="0" style="stop-color:#79C588"/>
							<stop  offset="0.171" style="stop-color:#006B3C"/>
							<stop  offset="1" style="stop-color:#7DC353"/>
						</linearGradient>
						<path class="st16" d="M22.3,35.3c0.1,0.4,0.1,1,0,1.6c-0.1,0.7-0.4,1.1-0.7,1.6c-0.2,0.3-0.6,0.9-1.2,1.5
							c-0.4,0.4-1.7,1.6-3.7,2c-0.3,0-3.5,0.6-5.7-1.6c-1.1-1.2-1.3-2.5-1.4-3.3c-0.1-0.7-0.4-2.1,0.3-3.6c1-2.4,3.5-3.2,3.9-3.4
							c0,0,1.7-0.5,3.5-0.1c0.7,0.1,1.3,0.4,1.4,0.5c0.3,0.1,0.6,0.3,1,0.6c0.3,0.2,0.6,0.5,1.1,1.3C21.6,33.4,22.1,34.2,22.3,35.3z
							"/>
					</g>
				</g>
			</g>
			<path class="st7" d="M21.1,38.7c0.4-0.1,0.4-0.1,0.5-0.1c0,0.1-0.2,0.3-0.6,0.8c-0.2,0.2-0.4,0.4-0.6,0.7
				c-0.1,0.1-0.4,0.4-0.7,0.6c-0.4,0.3-0.9,0.6-1.5,0.9c-0.4,0.2-1,0.4-1.5,0.5c-0.1,0-1,0.1-2.1,0c-0.6-0.1-1.3-0.2-2-0.6
				c-0.3-0.1-0.6-0.3-0.9-0.5c-0.3-0.2-0.5-0.4-0.7-0.6c-0.3-0.3-0.5-0.6-0.6-0.9c-0.1-0.2-0.3-0.4-0.3-0.7
				c-0.1-0.3-0.2-0.5-0.2-0.7c-0.1-0.2-0.1-0.4-0.1-0.6c0-0.1,0-0.3-0.1-0.4c-0.1-0.6-0.1-0.7-0.1-0.9c0-0.2,0-0.4,0.1-0.4
				c0.1-0.1,0.3,0,0.4,0.1c0.3,0.1,0.3,0.4,0.4,0.5c0.3,0.7,0.4,1.1,0.4,1.5c0.1,1,0.9,2.1,1.8,2.6c0,0,1.2,0.7,2.9,0.6
				c0.1,0,0.1,0,0.1,0c0.8-0.1,1.2-0.4,1.6-0.6c0.1-0.1,0.9-0.4,1.3-0.7C19.4,39.3,19.8,39.2,21.1,38.7z"/>
			
				<radialGradient id="SVGID_7_" cx="1192.3763" cy="2196.2588" r="10.5458" fx="1196.3706" fy="2199.542" gradientTransform="matrix(0.3142 0 0 0.2785 -359.1748 -576.0578)" gradientUnits="userSpaceOnUse">
				<stop  offset="0" style="stop-color:#72C169"/>
				<stop  offset="0.3078" style="stop-color:#098040"/>
				<stop  offset="0.4732" style="stop-color:#0B8040"/>
				<stop  offset="1" style="stop-color:#133F1E"/>
			</radialGradient>
			<path class="st17" d="M14.7,38.8c-1-0.1-2.4-0.9-2.6-2.3c-0.1-0.9,0.2-1.7,0.3-1.9c0.1-0.2,0.2-0.5,0.5-0.9
				c0.3-0.3,0.5-0.5,0.8-0.7c0.1-0.1,0.5-0.3,0.9-0.5c0.3-0.1,1.2-0.4,2.2-0.1c0.1,0,1.7,0.6,1.9,2.2c0,0.3,0.1,1.1-0.4,2.1
				c-0.6,1.1-1.5,1.5-1.8,1.7C15.7,38.9,15,38.8,14.7,38.8z"/>
			<path class="st9" d="M12.6,40.9c0.2,0.1,0.5,0.2,0.5,0.3s-0.3,0.1-0.3,0.1c-0.6,0.1-1.4-0.8-1.8-1.2c-0.2-0.2-0.3-0.4-0.4-0.5
				c0,0-0.1-0.1-0.1-0.3c-0.1-0.1-0.1-0.2-0.1-0.3c0,0,0-0.1,0-0.2c0.1,0,0.1,0,0.2,0.1c0.1,0.1,0.1,0.1,0.1,0.1
				c0.3,0.4,0.7,1.2,1.2,1.5C12,40.7,12.2,40.8,12.6,40.9z"/>
			<path class="st10" d="M12.6,40.6"/>
			<path class="st11" d="M14.8,38.3c0.6-0.1,0.8-0.6,1.2-0.5c0,0,0.3,0.1,0.3,0.3c0,0.1,0,0.1,0,0.2c0,0-0.1,0.1-0.2,0.2
				c-0.2,0.1-0.4,0.1-0.7,0.1c-0.3,0-0.5,0-0.6,0c-0.7-0.1-1.2-0.4-1.2-0.4c-0.8-0.5-1.1-1.2-1.2-1.6c0-0.1,0-0.3,0.1-0.4
				c0.1-0.1,0.2-0.1,0.3-0.1c0.2,0.1,0,0.7,0.3,1.3c0.1,0.2,0.3,0.3,0.5,0.5C13.7,38.1,14.2,38.4,14.8,38.3z"/>
			<path class="st12" d="M18,33.4c0,0.1,0.2,0.3,0.1,0.5c-0.1,0.2-0.5,0.2-0.7,0.2c-0.5,0-0.6-0.2-1.2-0.4c-0.1,0-0.5-0.1-0.9-0.1
				c-0.7,0.1-1,0.4-1.3,0.3c-0.2-0.1-0.3-0.4-0.2-0.6c0.1-0.3,0.4-0.4,0.9-0.5c0.4-0.1,0.8-0.3,1.5-0.2C16.6,32.8,17.6,32.8,18,33.4
				z"/>
			<path class="st12" d="M18.6,34.2v0.1c-0.1,0.1-0.4,0.1-0.5,0c0-0.1,0.1-0.3,0.3-0.3C18.5,34,18.6,34.1,18.6,34.2z"/>
			<path class="st13" d="M20.2,31.7c0.1,0.3,0.1,0.7-0.1,0.8c-0.2,0.1-0.6-0.1-1-0.4c-0.5-0.3-1.2-0.7-1.8-0.8
				c-1-0.3-2.5-0.1-2.8-0.3c-0.1-0.1-0.1-0.2-0.1-0.2c0-0.1-0.1-0.2-0.1-0.4c0,0,0-0.1,0.2-0.2c0.4-0.3,1.2-0.3,1.2-0.3
				c0.7,0,1.1,0,1.5,0.1c1.1,0.2,1.8,0.6,2,0.7C19.6,30.9,20,31.2,20.2,31.7z"/>
			<path class="st13" d="M21,33c-0.1,0.2-0.4,0.3-0.6,0.2c-0.3-0.2-0.2-0.8,0-0.9C20.6,32.1,21.1,32.7,21,33z"/>
		</g>
	</g>
	<g>
		<g>
			<g>
				<g>
					
						<image style="overflow:visible;opacity:0.1;enable-background:new    ;" width="275" height="267" xlink:href="36948CB564FABF46.png"  transform="matrix(8.360799e-02 0 0 8.360799e-02 11.6292 13.2423)">
					</image>
					<g>
						
							<linearGradient id="SVGID_8_" gradientUnits="userSpaceOnUse" x1="17.7818" y1="1038.688" x2="27.5543" y2="1045.5308" gradientTransform="matrix(1 0 0 1 0 -1018)">
							<stop  offset="0" style="stop-color:#79C588"/>
							<stop  offset="0.171" style="stop-color:#006B3C"/>
							<stop  offset="1" style="stop-color:#7DC353"/>
						</linearGradient>
						<path class="st18" d="M28.9,23.4c0.1,0.4,0.1,0.9,0,1.5c-0.1,0.7-0.4,1-0.7,1.5c-0.2,0.3-0.6,0.9-1.1,1.4
							c-0.4,0.4-1.6,1.5-3.5,1.9c-0.3,0-3.3,0.6-5.3-1.5c-1-1.1-1.2-2.4-1.3-3.1c-0.1-0.7-0.4-2,0.3-3.4c0.9-2.3,3.3-3,3.7-3.2
							c0,0,1.6-0.5,3.3-0.1c0.7,0.1,1.2,0.4,1.3,0.5c0.3,0.1,0.6,0.3,0.9,0.6c0.3,0.2,0.6,0.5,1,1.2C28.2,21.6,28.7,22.4,28.9,23.4z
							"/>
					</g>
				</g>
			</g>
			<path class="st7" d="M27.7,26.7c0.4-0.1,0.4-0.1,0.5-0.1c0,0.1-0.2,0.3-0.6,0.8c-0.2,0.2-0.4,0.4-0.6,0.7
				c-0.1,0.1-0.4,0.4-0.7,0.6c-0.4,0.3-0.9,0.6-1.4,0.9c-0.4,0.2-0.9,0.4-1.4,0.5c-0.1,0-0.9,0.1-2,0c-0.6-0.1-1.2-0.2-1.9-0.6
				c-0.3-0.1-0.6-0.3-0.9-0.5c-0.3-0.2-0.5-0.4-0.7-0.6c-0.3-0.3-0.5-0.6-0.6-0.9c-0.1-0.2-0.3-0.4-0.3-0.7
				c-0.1-0.3-0.2-0.5-0.2-0.7C17,25.9,17,25.7,17,25.5c0-0.1,0-0.3-0.1-0.4c-0.1-0.6-0.1-0.7-0.1-0.9c0-0.2,0-0.4,0.1-0.4
				c0.1-0.1,0.3,0,0.4,0.1c0.3,0.1,0.3,0.4,0.4,0.5c0.3,0.7,0.4,1,0.4,1.4c0.1,0.9,0.9,2,1.7,2.5c0,0,1.1,0.7,2.7,0.6
				c0.1,0,0.1,0,0.1,0c0.8-0.1,1.1-0.4,1.5-0.6c0.1-0.1,0.9-0.4,1.2-0.7C26.1,27.2,26.5,27.1,27.7,26.7z"/>
			
				<radialGradient id="SVGID_9_" cx="1214.6798" cy="2153.6736" r="9.8867" fx="1218.4244" fy="2156.7515" gradientTransform="matrix(0.3142 0 0 0.2785 -359.1748 -576.0578)" gradientUnits="userSpaceOnUse">
				<stop  offset="0" style="stop-color:#72C169"/>
				<stop  offset="0.3078" style="stop-color:#098040"/>
				<stop  offset="0.4732" style="stop-color:#0B8040"/>
				<stop  offset="1" style="stop-color:#133F1E"/>
			</radialGradient>
			<path class="st19" d="M21.8,26.8c-0.9-0.1-2.3-0.9-2.5-2.2c-0.1-0.9,0.2-1.6,0.3-1.8c0.1-0.2,0.2-0.5,0.5-0.9
				c0.3-0.3,0.5-0.5,0.8-0.7c0.1-0.1,0.5-0.3,0.9-0.5c0.3-0.1,1.1-0.4,2.1-0.1c0.1,0,1.6,0.6,1.8,2.1c0,0.3,0.1,1-0.4,2
				c-0.6,1-1.4,1.4-1.7,1.6C22.7,26.9,22.1,26.8,21.8,26.8z"/>
			<path class="st9" d="M19.8,28.7c0.2,0.1,0.5,0.2,0.5,0.3S20,29.1,20,29.1c-0.6,0.1-1.3-0.8-1.7-1.1c-0.2-0.2-0.3-0.4-0.4-0.5
				c0,0-0.1-0.1-0.1-0.3c-0.1-0.1-0.1-0.2-0.1-0.3c0,0,0-0.1,0-0.2c0.1,0,0.1,0,0.2,0.1s0.1,0.1,0.1,0.1c0.3,0.4,0.7,1.1,1.1,1.4
				C19.2,28.6,19.4,28.7,19.8,28.7z"/>
			<path class="st10" d="M19.8,28.5"/>
			<path class="st11" d="M21.9,26.3c0.6-0.1,0.8-0.6,1.1-0.5c0,0,0.3,0.1,0.3,0.3c0,0.1,0,0.1,0,0.2c0,0-0.1,0.1-0.2,0.2
				c-0.2,0.1-0.4,0.1-0.7,0.1c-0.3,0-0.5,0-0.6,0c-0.7-0.1-1.1-0.4-1.1-0.4c-0.8-0.5-1-1.1-1.1-1.5c0-0.1,0-0.3,0.1-0.4
				c0.1-0.1,0.2-0.1,0.3-0.1c0.2,0.1,0,0.7,0.3,1.2c0.1,0.2,0.3,0.3,0.5,0.5C20.8,26.1,21.3,26.4,21.9,26.3z"/>
			<path class="st12" d="M24.8,21.6c0,0.1,0.2,0.3,0.1,0.5c-0.1,0.2-0.5,0.2-0.7,0.2c-0.5,0-0.6-0.2-1.1-0.4c-0.1,0-0.5-0.1-0.9-0.1
				c-0.7,0.1-0.9,0.4-1.2,0.3c-0.2-0.1-0.3-0.4-0.2-0.6c0.1-0.3,0.4-0.4,0.9-0.5c0.4-0.1,0.8-0.3,1.4-0.2
				C23.6,21.1,24.4,21.1,24.8,21.6z"/>
			<path class="st12" d="M25.4,22.4L25.4,22.4c-0.1,0.2-0.4,0.2-0.5,0.1c0-0.1,0.1-0.3,0.3-0.3C25.3,22.2,25.4,22.3,25.4,22.4z"/>
			<path class="st13" d="M26.9,20.1c0.1,0.3,0.1,0.7-0.1,0.8c-0.2,0.1-0.6-0.1-0.9-0.4c-0.5-0.3-1.1-0.7-1.7-0.8
				c-0.9-0.3-2.4-0.1-2.7-0.3c-0.1-0.1-0.1-0.2-0.1-0.2c0-0.1-0.1-0.2-0.1-0.4c0,0,0-0.1,0.2-0.2c0.4-0.3,1.1-0.3,1.1-0.3
				c0.7,0,1,0,1.4,0.1c1,0.2,1.7,0.6,1.9,0.7C26.3,19.4,26.7,19.6,26.9,20.1z"/>
			<path class="st13" d="M27.7,21.3c-0.1,0.2-0.4,0.3-0.6,0.2c-0.3-0.2-0.2-0.8,0-0.9C27.3,20.5,27.7,21,27.7,21.3z"/>
		</g>
	</g>
	<g>
		<g>
			<g>
				<g>
					
						<image style="overflow:visible;opacity:0.1;enable-background:new    ;" width="275" height="267" xlink:href="36948CB564FABF46.png"  transform="matrix(7.803413e-02 0 0 7.803413e-02 21.5988 5.7304)">
					</image>
					<g>
						
							<linearGradient id="SVGID_10_" gradientUnits="userSpaceOnUse" x1="27.3413" y1="1030.6798" x2="36.4623" y2="1037.0664" gradientTransform="matrix(1 0 0 1 0 -1018)">
							<stop  offset="0" style="stop-color:#79C588"/>
							<stop  offset="0.171" style="stop-color:#006B3C"/>
							<stop  offset="1" style="stop-color:#7DC353"/>
						</linearGradient>
						<path class="st20" d="M37.7,15.2c0.1,0.4,0.1,0.9,0,1.4c-0.1,0.6-0.4,1-0.6,1.4c-0.2,0.3-0.5,0.8-1.1,1.3
							c-0.4,0.4-1.5,1.4-3.3,1.8c-0.3,0-3.1,0.5-5-1.4c-1-1.1-1.1-2.2-1.2-2.9c-0.1-0.6-0.4-1.9,0.3-3.2c0.9-2.1,3.1-2.8,3.4-3
							c0,0,1.5-0.4,3.1-0.1c0.6,0.1,1.1,0.4,1.2,0.4c0.3,0.1,0.5,0.3,0.9,0.5c0.3,0.2,0.5,0.4,1,1.1C37.1,13.6,37.5,14.3,37.7,15.2z
							"/>
					</g>
				</g>
			</g>
			<path class="st7" d="M36.6,18.3c0.4-0.1,0.4-0.1,0.4-0.1c0,0.1-0.2,0.3-0.5,0.7c-0.2,0.2-0.4,0.4-0.5,0.6
				c-0.1,0.1-0.4,0.4-0.6,0.5c-0.4,0.3-0.8,0.5-1.3,0.8c-0.4,0.2-0.9,0.4-1.3,0.4c-0.1,0-0.9,0.1-1.9,0c-0.5-0.1-1.1-0.2-1.8-0.5
				c-0.3-0.1-0.5-0.3-0.8-0.4c-0.3-0.2-0.4-0.4-0.6-0.5c-0.3-0.3-0.4-0.5-0.5-0.8c-0.1-0.2-0.3-0.4-0.3-0.6
				c-0.1-0.3-0.2-0.4-0.2-0.6c-0.1-0.2-0.1-0.4-0.1-0.5c0-0.1,0-0.3-0.1-0.4c-0.1-0.5-0.1-0.6-0.1-0.8c0-0.2,0-0.4,0.1-0.4
				c0.1-0.1,0.3,0,0.4,0.1c0.3,0.1,0.3,0.4,0.4,0.4c0.3,0.6,0.4,1,0.4,1.3c0.1,0.9,0.8,1.9,1.6,2.3c0,0,1.1,0.6,2.6,0.5
				c0.1,0,0.1,0,0.1,0c0.7-0.1,1.1-0.4,1.4-0.5c0.1-0.1,0.8-0.4,1.1-0.6C35.1,18.8,35.5,18.7,36.6,18.3z"/>
			
				<radialGradient id="SVGID_11_" cx="1197.0927" cy="2167.2739" r="9.8867" fx="1200.8373" fy="2170.3518" gradientTransform="matrix(0.2932 0 0 0.2599 -319.3276 -547.8179)" gradientUnits="userSpaceOnUse">
				<stop  offset="0" style="stop-color:#72C169"/>
				<stop  offset="0.3078" style="stop-color:#098040"/>
				<stop  offset="0.4732" style="stop-color:#0B8040"/>
				<stop  offset="1" style="stop-color:#133F1E"/>
			</radialGradient>
			<path class="st21" d="M31.1,18.3c-0.9-0.1-2.1-0.8-2.3-2c-0.1-0.8,0.2-1.5,0.3-1.7c0.1-0.2,0.2-0.4,0.4-0.8
				c0.3-0.3,0.4-0.4,0.7-0.6c0.1-0.1,0.4-0.3,0.8-0.4c0.3-0.1,1.1-0.4,1.9-0.1c0.1,0,1.5,0.5,1.7,1.9c0,0.3,0.1,1-0.4,1.9
				c-0.5,1-1.3,1.3-1.6,1.5C32,18.4,31.3,18.3,31.1,18.3z"/>
			<path class="st9" d="M29.2,20.2c0.2,0.1,0.4,0.2,0.4,0.3s-0.3,0.1-0.3,0.1c-0.5,0.1-1.2-0.7-1.6-1.1c-0.2-0.2-0.3-0.4-0.4-0.4
				c0,0-0.1-0.1-0.1-0.3c-0.1-0.1-0.1-0.2-0.1-0.3c0,0,0-0.1,0-0.2c0.1,0,0.1,0,0.2,0.1c0.1,0.1,0.1,0.1,0.1,0.1
				c0.3,0.4,0.6,1.1,1.1,1.3C28.7,20,28.9,20.1,29.2,20.2z"/>
			<path class="st10" d="M29.2,19.9"/>
			<path class="st11" d="M31.2,17.9c0.5-0.1,0.7-0.5,1.1-0.4c0,0,0.3,0.1,0.3,0.3c0,0.1,0,0.1,0,0.2c0,0-0.1,0.1-0.2,0.2
				c-0.2,0.1-0.4,0.1-0.6,0.1c-0.3,0-0.4,0-0.5,0c-0.6-0.1-1.1-0.4-1.1-0.4c-0.7-0.4-1-1.1-1.1-1.4c0-0.1,0-0.3,0.1-0.4
				c0.1-0.1,0.2-0.1,0.3-0.1c0.2,0.1,0,0.6,0.3,1.1c0.1,0.2,0.3,0.3,0.4,0.4C30.2,17.7,30.6,18,31.2,17.9z"/>
			<path class="st12" d="M33.9,13.6c0,0.1,0.2,0.3,0.1,0.4c-0.1,0.2-0.4,0.2-0.6,0.2c-0.4,0-0.5-0.2-1.1-0.4c-0.1,0-0.4-0.1-0.8-0.1
				c-0.6,0.1-0.9,0.4-1.1,0.3c-0.2-0.1-0.3-0.4-0.2-0.5c0.1-0.3,0.4-0.4,0.8-0.4c0.4-0.1,0.7-0.3,1.3-0.2C32.8,13,33.5,13,33.9,13.6
				z"/>
			<path class="st12" d="M34.4,14.3L34.4,14.3c-0.1,0.2-0.4,0.2-0.4,0.1c0-0.1,0.1-0.3,0.3-0.3C34.3,14.1,34.4,14.2,34.4,14.3z"/>
			<path class="st13" d="M35.8,12.2c0.1,0.3,0.1,0.6-0.1,0.7c-0.2,0.1-0.5-0.1-0.9-0.4c-0.4-0.3-1.1-0.6-1.6-0.7
				c-0.9-0.3-2.2-0.1-2.5-0.3c-0.1-0.1-0.1-0.2-0.1-0.2c0-0.1-0.1-0.2-0.1-0.4c0,0,0-0.1,0.2-0.2c0.4-0.3,1.1-0.3,1.1-0.3
				c0.6,0,1,0,1.3,0.1c1,0.2,1.6,0.5,1.8,0.6C35.3,11.4,35.7,11.7,35.8,12.2z"/>
			<path class="st13" d="M36.6,13.2c-0.1,0.2-0.4,0.3-0.5,0.2c-0.3-0.2-0.2-0.7,0-0.8C36.2,12.5,36.6,12.9,36.6,13.2z"/>
		</g>
	</g>
	<g>
		<g>
			<g>
				<g>
					
						<image style="overflow:visible;opacity:0.1;enable-background:new    ;" width="275" height="267" xlink:href="36948CB564FABF46.png"  transform="matrix(7.246026e-02 0 0 7.246026e-02 32.0834 -5.028770e-03)">
					</image>
					<g>
						
							<linearGradient id="SVGID_12_" gradientUnits="userSpaceOnUse" x1="37.4157" y1="1024.448" x2="45.8852" y2="1030.3783" gradientTransform="matrix(1 0 0 1 0 -1018)">
							<stop  offset="0" style="stop-color:#79C588"/>
							<stop  offset="0.171" style="stop-color:#006B3C"/>
							<stop  offset="1" style="stop-color:#7DC353"/>
						</linearGradient>
						<path class="st22" d="M47,8.8c0.1,0.3,0.1,0.8,0,1.3c-0.1,0.6-0.3,0.9-0.6,1.3c-0.2,0.2-0.5,0.7-1,1.2c-0.3,0.3-1.4,1.3-3,1.6
							c-0.2,0-2.9,0.5-4.6-1.3c-0.9-1-1.1-2.1-1.1-2.7c-0.1-0.6-0.3-1.7,0.2-3c0.8-2,2.9-2.6,3.2-2.8c0,0,1.4-0.4,2.9-0.1
							c0.6,0.1,1.1,0.3,1.1,0.4C44.4,5,44.7,5.1,45,5.4c0.2,0.2,0.5,0.4,0.9,1.1C46.5,7.3,46.9,7.9,47,8.8z"/>
					</g>
				</g>
			</g>
			<path class="st7" d="M46.1,11.6c0.3-0.1,0.3-0.1,0.4-0.1c0,0.1-0.2,0.2-0.5,0.7c-0.2,0.2-0.3,0.3-0.5,0.6
				c-0.1,0.1-0.3,0.3-0.6,0.5c-0.3,0.2-0.7,0.5-1.2,0.7c-0.3,0.2-0.8,0.3-1.2,0.4c-0.1,0-0.8,0.1-1.7,0c-0.5-0.1-1.1-0.2-1.6-0.5
				c-0.2-0.1-0.5-0.2-0.7-0.4c-0.2-0.2-0.4-0.3-0.6-0.5c-0.2-0.2-0.4-0.5-0.5-0.7C37.2,12.1,37,12,37,11.7c-0.1-0.2-0.2-0.4-0.2-0.6
				c-0.1-0.2-0.1-0.3-0.1-0.5c0-0.1,0-0.2-0.1-0.3c-0.1-0.5-0.1-0.6-0.1-0.7s0-0.3,0.1-0.3c0.1-0.1,0.2,0,0.3,0.1
				c0.2,0.1,0.2,0.3,0.3,0.4c0.2,0.6,0.3,0.9,0.3,1.2c0.1,0.8,0.7,1.7,1.5,2.1c0,0,1,0.6,2.4,0.5c0.1,0,0.1,0,0.1,0
				c0.7-0.1,1-0.3,1.3-0.5c0.1-0.1,0.7-0.3,1.1-0.6C44.7,12.1,45,12,46.1,11.6z"/>
			
				<radialGradient id="SVGID_13_" cx="1230.3832" cy="2142.5237" r="9.1805" fx="1233.8604" fy="2145.3818" gradientTransform="matrix(0.2932 0 0 0.2599 -319.3276 -547.8179)" gradientUnits="userSpaceOnUse">
				<stop  offset="0" style="stop-color:#72C169"/>
				<stop  offset="0.3078" style="stop-color:#098040"/>
				<stop  offset="0.4732" style="stop-color:#0B8040"/>
				<stop  offset="1" style="stop-color:#133F1E"/>
			</radialGradient>
			<path class="st23" d="M40.9,11.7c-0.8-0.1-2-0.7-2.1-1.9c-0.1-0.7,0.2-1.4,0.2-1.6c0.1-0.2,0.2-0.4,0.4-0.7
				c0.2-0.2,0.4-0.4,0.7-0.6c0.1-0.1,0.4-0.2,0.7-0.4c0.2-0.1,1-0.3,1.8-0.1c0.1,0,1.4,0.5,1.6,1.8c0,0.2,0.1,0.9-0.3,1.7
				c-0.5,0.9-1.2,1.2-1.5,1.4C41.7,11.8,41.1,11.7,40.9,11.7z"/>
			<path class="st9" d="M39.2,13.4c0.2,0.1,0.4,0.2,0.4,0.2c0,0.1-0.2,0.1-0.2,0.1c-0.5,0.1-1.1-0.7-1.5-1c-0.2-0.2-0.2-0.3-0.3-0.4
				c0,0-0.1-0.1-0.1-0.2c-0.1-0.1-0.1-0.2-0.1-0.2c0,0,0-0.1,0-0.2c0.1,0,0.1,0,0.2,0.1c0.1,0.1,0.1,0.1,0.1,0.1
				c0.2,0.3,0.6,1,1,1.2C38.7,13.3,38.8,13.3,39.2,13.4z"/>
			<path class="st10" d="M39.2,13.2"/>
			<path class="st11" d="M41,11.3c0.5-0.1,0.7-0.5,1-0.4c0,0,0.2,0.1,0.2,0.2c0,0.1,0,0.1,0,0.2c0,0-0.1,0.1-0.2,0.2
				c-0.2,0.1-0.3,0.1-0.6,0.1c-0.2,0-0.4,0-0.5,0c-0.6-0.1-1-0.3-1-0.3c-0.7-0.4-0.9-1-1-1.3c0-0.1,0-0.2,0.1-0.3
				c0.1-0.1,0.2-0.1,0.2-0.1c0.2,0.1,0,0.6,0.2,1.1c0.1,0.2,0.2,0.2,0.4,0.4C40.1,11.1,40.5,11.4,41,11.3z"/>
			<path class="st12" d="M43.5,7.3c0,0.1,0.2,0.2,0.1,0.4S43.2,7.8,43,7.8c-0.4,0-0.5-0.2-1-0.3c-0.1,0-0.4-0.1-0.7-0.1
				c-0.6,0.1-0.8,0.3-1.1,0.2c-0.2-0.1-0.2-0.3-0.2-0.5c0.1-0.2,0.3-0.3,0.7-0.4c0.3-0.1,0.7-0.2,1.2-0.2
				C42.4,6.8,43.2,6.8,43.5,7.3z"/>
			<path class="st12" d="M44,7.9L44,7.9c-0.1,0.2-0.3,0.2-0.4,0.1c0-0.1,0.1-0.2,0.2-0.2C43.9,7.8,44,7.8,44,7.9z"/>
			<path class="st13" d="M45.3,6c0.1,0.2,0.1,0.6-0.1,0.7s-0.5-0.1-0.8-0.3c-0.4-0.2-1-0.6-1.5-0.7c-0.8-0.2-2.1-0.1-2.3-0.2
				c-0.1-0.1-0.1-0.2-0.1-0.2c0-0.1-0.1-0.2-0.1-0.3c0,0,0-0.1,0.2-0.2c0.3-0.2,1-0.2,1-0.2c0.6,0,0.9,0,1.2,0.1
				c0.9,0.2,1.5,0.5,1.6,0.6C44.8,5.3,45.2,5.5,45.3,6z"/>
			<path class="st13" d="M46,6.9c-0.1,0.2-0.3,0.2-0.5,0.2c-0.2-0.2-0.2-0.7,0-0.7S46.1,6.7,46,6.9z"/>
		</g>
	</g>
	<g>
		<g>
			<g>
				<g>
					
						<image style="overflow:visible;opacity:0.1;enable-background:new    ;" width="275" height="267" xlink:href="36948CB564FABF46.png"  transform="matrix(6.688640e-02 0 0 6.688640e-02 43.5896 -2.8991)">
					</image>
					<g>
						
							<linearGradient id="SVGID_14_" gradientUnits="userSpaceOnUse" x1="48.5117" y1="1021.0575" x2="56.3297" y2="1026.5317" gradientTransform="matrix(1 0 0 1 0 -1018)">
							<stop  offset="0" style="stop-color:#79C588"/>
							<stop  offset="0.171" style="stop-color:#006B3C"/>
							<stop  offset="1" style="stop-color:#7DC353"/>
						</linearGradient>
						<path class="st24" d="M57.4,5.3c0.1,0.3,0.1,0.8,0,1.2c-0.1,0.5-0.3,0.8-0.5,1.2c-0.2,0.2-0.5,0.7-0.9,1.1
							c-0.3,0.3-1.3,1.2-2.8,1.5c-0.2,0-2.7,0.5-4.2-1.2c-0.8-0.9-1-1.9-1.1-2.5c-0.1-0.5-0.3-1.6,0.2-2.7c0.8-1.8,2.7-2.4,3-2.6
							c0,0,1.3-0.4,2.7-0.1c0.5,0.1,1,0.3,1.1,0.4c0.2,0.1,0.5,0.2,0.8,0.5c0.2,0.2,0.5,0.4,0.8,1C56.9,3.8,57.2,4.4,57.4,5.3z"/>
					</g>
				</g>
			</g>
			<path class="st7" d="M56.5,7.8c0.3-0.1,0.3-0.1,0.4-0.1c0,0.1-0.2,0.2-0.5,0.6c-0.2,0.2-0.3,0.3-0.5,0.5
				c-0.1,0.1-0.3,0.3-0.5,0.5c-0.3,0.2-0.7,0.5-1.1,0.7c-0.3,0.2-0.8,0.3-1.1,0.4c-0.1,0-0.8,0.1-1.6,0c-0.5-0.1-1-0.2-1.5-0.5
				c-0.2-0.1-0.5-0.2-0.7-0.4c-0.2-0.2-0.4-0.3-0.5-0.5c-0.2-0.2-0.4-0.5-0.5-0.7c-0.1-0.2-0.2-0.3-0.2-0.5C48.1,7.7,48,7.5,48,7.4
				c-0.1-0.2-0.1-0.3-0.1-0.5c0-0.1,0-0.2-0.1-0.3c-0.1-0.5-0.1-0.5-0.1-0.7c0-0.2,0-0.3,0.1-0.3c0.1-0.1,0.2,0,0.3,0.1
				c0.2,0.1,0.2,0.3,0.3,0.4c0.2,0.5,0.3,0.8,0.3,1.1c0.1,0.8,0.7,1.6,1.4,2c0,0,0.9,0.5,2.2,0.5c0.1,0,0.1,0,0.1,0
				c0.6-0.1,0.9-0.3,1.2-0.5c0.1-0.1,0.7-0.3,1-0.5C55.2,8.3,55.5,8.2,56.5,7.8z"/>
			
				<radialGradient id="SVGID_15_" cx="1267.1575" cy="2128.7053" r="8.4743" fx="1270.3672" fy="2131.3435" gradientTransform="matrix(0.2932 0 0 0.2599 -319.3276 -547.8179)" gradientUnits="userSpaceOnUse">
				<stop  offset="0" style="stop-color:#72C169"/>
				<stop  offset="0.3078" style="stop-color:#098040"/>
				<stop  offset="0.4732" style="stop-color:#0B8040"/>
				<stop  offset="1" style="stop-color:#133F1E"/>
			</radialGradient>
			<path class="st25" d="M51.7,7.9c-0.8-0.1-1.8-0.7-2-1.7c-0.1-0.7,0.2-1.3,0.2-1.4C50,4.6,50.1,4.3,50.3,4
				c0.2-0.2,0.4-0.4,0.6-0.5c0.1-0.1,0.4-0.2,0.7-0.4c0.2-0.1,0.9-0.3,1.7-0.1c0.1,0,1.3,0.5,1.4,1.7c0,0.2,0.1,0.8-0.3,1.6
				c-0.5,0.8-1.1,1.1-1.4,1.3C52.5,8,51.9,7.9,51.7,7.9z"/>
			<path class="st9" d="M50.1,9.5c0.2,0.1,0.4,0.2,0.4,0.2s-0.2,0.1-0.2,0.1c-0.5,0.1-1.1-0.6-1.4-0.9c-0.2-0.2-0.2-0.3-0.3-0.4
				c0,0-0.1-0.1-0.1-0.2c-0.1-0.1-0.1-0.2-0.1-0.2c0,0,0-0.1,0-0.2c0.1,0,0.1,0,0.2,0.1c0.1,0.1,0.1,0.1,0.1,0.1
				c0.2,0.3,0.5,0.9,0.9,1.1C49.7,9.4,49.8,9.4,50.1,9.5z"/>
			<path class="st10" d="M50.1,9.3"/>
			<path class="st11" d="M51.8,7.5c0.5-0.1,0.6-0.5,0.9-0.4c0,0,0.2,0.1,0.2,0.2c0,0.1,0,0.1,0,0.2c0,0-0.1,0.1-0.2,0.2
				c-0.2,0.1-0.3,0.1-0.5,0.1c-0.2,0-0.4,0-0.5,0c-0.5-0.1-0.9-0.3-0.9-0.3C50.3,7.1,50,6.5,50,6.2C50,6.2,50,6,50,5.9
				c0.1-0.1,0.2-0.1,0.2-0.1c0.2,0.1,0,0.5,0.2,1c0.1,0.2,0.2,0.2,0.4,0.4C51,7.4,51.3,7.6,51.8,7.5z"/>
			<path class="st12" d="M54.1,3.8c0,0.1,0.2,0.2,0.1,0.4c-0.1,0.2-0.4,0.2-0.5,0.2c-0.4,0-0.5-0.2-0.9-0.3C52.7,4,52.4,4,52.1,4
				c-0.5,0.1-0.8,0.3-1,0.2C51,4.1,50.9,3.9,51,3.7c0.1-0.2,0.3-0.3,0.7-0.4c0.3-0.1,0.6-0.2,1.1-0.2C53.1,3.4,53.8,3.4,54.1,3.8z"
				/>
			<path class="st12" d="M54.6,4.4L54.6,4.4c-0.1,0.2-0.3,0.2-0.4,0.1c0-0.1,0.1-0.2,0.2-0.2C54.5,4.3,54.6,4.3,54.6,4.4z"/>
			<path class="st13" d="M55.8,2.6c0.1,0.2,0.1,0.5-0.1,0.6c-0.2,0.1-0.5-0.1-0.8-0.3c-0.4-0.2-0.9-0.5-1.4-0.6
				c-0.8-0.2-1.9-0.1-2.1-0.2c-0.1-0.1-0.1-0.2-0.1-0.2c0-0.1-0.1-0.2-0.1-0.3c0,0,0-0.1,0.2-0.2c0.3-0.2,0.9-0.2,0.9-0.2
				c0.5,0,0.8,0,1.1,0.1c0.8,0.2,1.4,0.5,1.5,0.5C55.3,2,55.7,2.2,55.8,2.6z"/>
			<path class="st13" d="M56.4,3.5c-0.1,0.2-0.3,0.2-0.5,0.2c-0.2-0.2-0.2-0.6,0-0.7C56.1,2.9,56.5,3.3,56.4,3.5z"/>
		</g>
	</g>
	<g>
		<g>
			<g>
				<g>
					
						<image style="overflow:visible;opacity:0.1;enable-background:new    ;" width="275" height="267" xlink:href="36948CB564FABF46.png"  transform="matrix(6.131253e-02 0 0 6.131253e-02 54.7475 -2.5798)">
					</image>
					<g>
						
							<linearGradient id="SVGID_16_" gradientUnits="userSpaceOnUse" x1="59.2595" y1="1020.8804" x2="66.426" y2="1025.8984" gradientTransform="matrix(1 0 0 1 0 -1018)">
							<stop  offset="0" style="stop-color:#79C588"/>
							<stop  offset="0.171" style="stop-color:#006B3C"/>
							<stop  offset="1" style="stop-color:#7DC353"/>
						</linearGradient>
						<path class="st26" d="M67.4,4.9c0.1,0.3,0.1,0.7,0,1.1c-0.1,0.5-0.3,0.8-0.5,1.1c-0.1,0.2-0.4,0.6-0.8,1
							c-0.3,0.3-1.2,1.1-2.6,1.4c-0.2,0-2.4,0.4-3.9-1.1c-0.8-0.8-0.9-1.7-1-2.3c-0.1-0.5-0.3-1.5,0.2-2.5c0.7-1.7,2.4-2.2,2.7-2.4
							c0,0,1.2-0.3,2.4-0.1c0.5,0.1,0.9,0.3,1,0.3c0.2,0.1,0.4,0.2,0.7,0.4c0.2,0.1,0.4,0.3,0.8,0.9C66.9,3.6,67.3,4.1,67.4,4.9z"/>
					</g>
				</g>
			</g>
			<path class="st7" d="M66.6,7.3c0.3-0.1,0.3-0.1,0.3-0.1c0,0.1-0.1,0.2-0.4,0.6c-0.1,0.1-0.3,0.3-0.4,0.5
				c-0.1,0.1-0.3,0.3-0.5,0.4c-0.3,0.2-0.6,0.4-1,0.6c-0.3,0.1-0.7,0.3-1,0.3c-0.1,0-0.7,0.1-1.5,0c-0.4-0.1-0.9-0.1-1.4-0.4
				C60.5,9.1,60.2,9,60,8.9c-0.2-0.1-0.3-0.3-0.5-0.4c-0.2-0.2-0.3-0.4-0.4-0.6c-0.1-0.1-0.2-0.3-0.2-0.5c-0.1-0.2-0.1-0.3-0.1-0.5
				c-0.1-0.1-0.1-0.3-0.1-0.4c0-0.1,0-0.2-0.1-0.3c-0.1-0.4-0.1-0.5-0.1-0.6s0-0.3,0.1-0.3c0.1-0.1,0.2,0,0.3,0.1
				c0.2,0.1,0.2,0.3,0.3,0.3c0.2,0.5,0.3,0.8,0.3,1c0.1,0.7,0.6,1.5,1.3,1.8c0,0,0.8,0.5,2,0.4c0.1,0,0.1,0,0.1,0
				c0.6-0.1,0.8-0.3,1.1-0.4C64,8.4,64.6,8.2,64.8,8C65.4,7.7,65.7,7.6,66.6,7.3z"/>
			
				<radialGradient id="SVGID_17_" cx="1302.7441" cy="2127.2498" r="7.7681" fx="1305.6864" fy="2129.6682" gradientTransform="matrix(0.2932 0 0 0.2599 -319.3276 -547.8179)" gradientUnits="userSpaceOnUse">
				<stop  offset="0" style="stop-color:#72C169"/>
				<stop  offset="0.3078" style="stop-color:#098040"/>
				<stop  offset="0.4732" style="stop-color:#0B8040"/>
				<stop  offset="1" style="stop-color:#133F1E"/>
			</radialGradient>
			<path class="st27" d="M62.2,7.3c-0.7-0.1-1.7-0.6-1.8-1.6c-0.1-0.6,0.1-1.2,0.2-1.3c0.1-0.1,0.1-0.3,0.3-0.6
				c0.2-0.2,0.3-0.3,0.6-0.5c0.1-0.1,0.3-0.2,0.6-0.3c0.2-0.1,0.8-0.3,1.5-0.1c0.1,0,1.2,0.4,1.3,1.5c0,0.2,0.1,0.8-0.3,1.5
				c-0.4,0.8-1,1-1.3,1.2C62.9,7.4,62.4,7.3,62.2,7.3z"/>
			<path class="st9" d="M60.7,8.8c0.1,0.1,0.3,0.1,0.3,0.2s-0.2,0.1-0.2,0.1c-0.4,0.1-1-0.6-1.3-0.8c-0.1-0.1-0.2-0.3-0.3-0.3
				c0,0-0.1-0.1-0.1-0.2c-0.1-0.1-0.1-0.1-0.1-0.2c0,0,0-0.1,0-0.1c0.1,0,0.1,0,0.1,0.1c0.1,0.1,0.1,0.1,0.1,0.1
				c0.2,0.3,0.5,0.8,0.8,1C60.3,8.7,60.5,8.7,60.7,8.8z"/>
			<path class="st10" d="M60.7,8.6"/>
			<path class="st11" d="M62.3,7c0.4-0.1,0.6-0.4,0.8-0.3c0,0,0.2,0.1,0.2,0.2c0,0.1,0,0.1,0,0.1c0,0-0.1,0.1-0.1,0.1
				c-0.1,0.1-0.3,0.1-0.5,0.1c-0.2,0-0.3,0-0.4,0c-0.5-0.1-0.8-0.3-0.8-0.3c-0.6-0.3-0.8-0.8-0.8-1.1c0-0.1,0-0.2,0.1-0.3
				c0.1-0.1,0.1-0.1,0.2-0.1c0.1,0.1,0,0.5,0.2,0.9c0.1,0.1,0.2,0.2,0.3,0.3C61.5,6.8,61.8,7.1,62.3,7z"/>
			<path class="st12" d="M64.4,3.6c0,0.1,0.1,0.2,0.1,0.3c-0.1,0.1-0.3,0.1-0.5,0.1c-0.3,0-0.4-0.1-0.8-0.3c-0.1,0-0.3-0.1-0.6-0.1
				c-0.5,0.1-0.7,0.3-0.9,0.2c-0.1-0.1-0.2-0.3-0.1-0.4c0.1-0.2,0.3-0.3,0.6-0.3c0.3-0.1,0.6-0.2,1-0.1C63.5,3.2,64.1,3.2,64.4,3.6z
				"/>
			<path class="st12" d="M64.8,4.1L64.8,4.1c-0.1,0.1-0.3,0.1-0.3,0.1c0-0.1,0.1-0.2,0.2-0.2C64.8,4,64.8,4.1,64.8,4.1z"/>
			<path class="st13" d="M65.9,2.5C66,2.7,66,3,65.9,3c-0.1,0.1-0.4-0.1-0.7-0.3c-0.3-0.2-0.8-0.5-1.3-0.6C63.2,2,62.2,2.1,62,2
				c-0.1-0.1-0.1-0.1-0.1-0.1c0-0.1-0.1-0.1-0.1-0.3c0,0,0-0.1,0.1-0.1c0.3-0.2,0.8-0.2,0.8-0.2c0.5,0,0.8,0,1,0.1
				c0.8,0.1,1.3,0.4,1.4,0.5C65.5,1.9,65.8,2.1,65.9,2.5z"/>
			<path class="st13" d="M66.5,3.3c-0.1,0.1-0.3,0.2-0.4,0.1c-0.2-0.1-0.1-0.6,0-0.6C66.2,2.7,66.6,3.1,66.5,3.3z"/>
		</g>
	</g>
	<g>
		<g>
			<g>
				<g>
					
						<image style="overflow:visible;opacity:0.1;enable-background:new    ;" width="275" height="267" xlink:href="36948CB564FABF46.png"  transform="matrix(5.573867e-02 0 0 5.573867e-02 64.831 0.1004)">
					</image>
					<g>
						
							<linearGradient id="SVGID_18_" gradientUnits="userSpaceOnUse" x1="68.9328" y1="1023.0642" x2="75.4478" y2="1027.6261" gradientTransform="matrix(1 0 0 1 0 -1018)">
							<stop  offset="0" style="stop-color:#79C588"/>
							<stop  offset="0.171" style="stop-color:#006B3C"/>
							<stop  offset="1" style="stop-color:#7DC353"/>
						</linearGradient>
						<path class="st28" d="M76.3,6.9c0.1,0.3,0.1,0.6,0,1c-0.1,0.4-0.3,0.7-0.4,1c-0.1,0.2-0.4,0.6-0.8,0.9c-0.3,0.3-1.1,1-2.3,1.3
							c-0.2,0-2.2,0.4-3.5-1c-0.7-0.8-0.8-1.6-0.9-2.1c-0.1-0.4-0.3-1.3,0.2-2.3c0.6-1.5,2.2-2,2.5-2.1c0,0,1.1-0.3,2.2-0.1
							c0.4,0.1,0.8,0.3,0.9,0.3c0.2,0.1,0.4,0.2,0.6,0.4c0.2,0.1,0.4,0.3,0.7,0.8C75.9,5.7,76.2,6.2,76.3,6.9z"/>
					</g>
				</g>
			</g>
			<path class="st7" d="M75.6,9C75.8,9,75.8,9,75.9,9c0,0.1-0.1,0.2-0.4,0.5c-0.1,0.1-0.3,0.3-0.4,0.4c-0.1,0.1-0.3,0.3-0.4,0.4
				c-0.3,0.2-0.6,0.4-0.9,0.6c-0.3,0.1-0.6,0.3-0.9,0.3c-0.1,0-0.6,0.1-1.3,0c-0.4-0.1-0.8-0.1-1.3-0.4c-0.2-0.1-0.4-0.2-0.6-0.3
				s-0.3-0.3-0.4-0.4c-0.2-0.2-0.3-0.4-0.4-0.6c-0.1-0.1-0.2-0.3-0.2-0.4c-0.1-0.2-0.1-0.3-0.1-0.4c-0.1-0.1-0.1-0.3-0.1-0.4
				c0-0.1,0-0.2-0.1-0.3c-0.1-0.4-0.1-0.4-0.1-0.6s0-0.3,0.1-0.3c0.1-0.1,0.2,0,0.3,0.1c0.2,0.1,0.2,0.3,0.3,0.3
				c0.2,0.4,0.3,0.7,0.3,0.9c0.1,0.6,0.6,1.3,1.1,1.6c0,0,0.8,0.4,1.8,0.4c0.1,0,0.1,0,0.1,0c0.5-0.1,0.8-0.3,1-0.4
				c0.1-0.1,0.6-0.3,0.8-0.4C74.5,9.4,74.8,9.4,75.6,9z"/>
			
				<radialGradient id="SVGID_19_" cx="1334.6669" cy="2134.8774" r="7.0619" fx="1337.3417" fy="2137.0759" gradientTransform="matrix(0.2932 0 0 0.2599 -319.3276 -547.8179)" gradientUnits="userSpaceOnUse">
				<stop  offset="0" style="stop-color:#72C169"/>
				<stop  offset="0.3078" style="stop-color:#098040"/>
				<stop  offset="0.4732" style="stop-color:#0B8040"/>
				<stop  offset="1" style="stop-color:#133F1E"/>
			</radialGradient>
			<path class="st29" d="M71.6,9.1C71,9,70.1,8.5,70,7.7c-0.1-0.6,0.1-1.1,0.2-1.2c0.1-0.1,0.1-0.3,0.3-0.6c0.2-0.2,0.3-0.3,0.5-0.4
				c0.1-0.1,0.3-0.2,0.6-0.3c0.2-0.1,0.8-0.3,1.4-0.1c0.1,0,1.1,0.4,1.2,1.4c0,0.2,0.1,0.7-0.3,1.3c-0.4,0.7-0.9,0.9-1.1,1.1
				C72.2,9.2,71.8,9.1,71.6,9.1z"/>
			<path class="st9" d="M70.3,10.4c0.1,0.1,0.3,0.1,0.3,0.2s-0.2,0.1-0.2,0.1c-0.4,0.1-0.9-0.5-1.1-0.8c-0.1-0.1-0.2-0.3-0.3-0.3
				c0,0-0.1-0.1-0.1-0.2c-0.1-0.1-0.1-0.1-0.1-0.2c0,0,0-0.1,0-0.1c0.1,0,0.1,0,0.1,0.1c0.1,0.1,0.1,0.1,0.1,0.1
				c0.2,0.3,0.4,0.8,0.8,0.9C69.9,10.3,70,10.4,70.3,10.4z"/>
			<path class="st10" d="M70.3,10.2"/>
			<path class="st11" d="M71.7,8.8c0.4-0.1,0.5-0.4,0.8-0.3c0,0,0.2,0.1,0.2,0.2c0,0.1,0,0.1,0,0.1c0,0-0.1,0.1-0.1,0.1
				C72.4,9,72.2,9,72,9c-0.2,0-0.3,0-0.4,0c-0.4-0.1-0.8-0.3-0.8-0.3c-0.5-0.3-0.7-0.8-0.8-1c0-0.1,0-0.2,0.1-0.3
				c0.1-0.1,0.1-0.1,0.2-0.1c0.1,0.1,0,0.4,0.2,0.8c0.1,0.1,0.2,0.2,0.3,0.3C71,8.7,71.3,8.9,71.7,8.8z"/>
			<path class="st12" d="M73.6,5.7c0,0.1,0.1,0.2,0.1,0.3c-0.1,0.1-0.3,0.1-0.4,0.1c-0.3,0-0.4-0.1-0.8-0.3c-0.1,0-0.3-0.1-0.6-0.1
				c-0.4,0.1-0.6,0.3-0.8,0.2C71,6,70.9,5.8,71,5.6c0.1-0.2,0.3-0.3,0.6-0.3c0.3-0.1,0.5-0.2,0.9-0.1C72.8,5.3,73.4,5.3,73.6,5.7z"
				/>
			<path class="st12" d="M74,6.2L74,6.2c-0.1,0.1-0.3,0.1-0.3,0.1c0-0.1,0.1-0.2,0.2-0.2C73.9,6.1,74,6.1,74,6.2z"/>
			<path class="st13" d="M75,4.7c0.1,0.2,0.1,0.4-0.1,0.5s-0.4-0.1-0.6-0.3c-0.3-0.2-0.8-0.4-1.1-0.5c-0.6-0.2-1.6-0.1-1.8-0.2
				c-0.1-0.1-0.1-0.1-0.1-0.1c0-0.1-0.1-0.1-0.1-0.3c0,0,0-0.1,0.1-0.1c0.3-0.2,0.8-0.2,0.8-0.2c0.4,0,0.7,0,0.9,0.1
				c0.7,0.1,1.1,0.4,1.3,0.4C74.6,4.2,74.9,4.4,75,4.7z"/>
			<path class="st13" d="M75.5,5.4c-0.1,0.1-0.3,0.2-0.4,0.1c-0.2-0.1-0.1-0.5,0-0.6C75.3,4.9,75.6,5.3,75.5,5.4z"/>
		</g>
	</g>
	<g>
		<g>
			<g>
				<g>
					
						<image style="overflow:visible;opacity:0.1;enable-background:new    ;" width="275" height="267" xlink:href="36948CB564FABF46.png"  transform="matrix(5.016480e-02 0 0 5.016480e-02 73.2615 3.9964)">
					</image>
					<g>
						
							<linearGradient id="SVGID_20_" gradientUnits="userSpaceOnUse" x1="76.9531" y1="1026.4639" x2="82.8166" y2="1030.5695" gradientTransform="matrix(1 0 0 1 0 -1018)">
							<stop  offset="0" style="stop-color:#79C588"/>
							<stop  offset="0.171" style="stop-color:#006B3C"/>
							<stop  offset="1" style="stop-color:#7DC353"/>
						</linearGradient>
						<path class="st30" d="M83.6,10.1c0.1,0.2,0.1,0.6,0,0.9c-0.1,0.4-0.2,0.6-0.4,0.9c-0.1,0.2-0.3,0.5-0.7,0.9
							c-0.2,0.2-1,0.9-2.1,1.1c-0.2,0-2,0.3-3.2-0.9c-0.6-0.7-0.7-1.4-0.8-1.9c-0.1-0.4-0.2-1.2,0.2-2c0.6-1.4,2-1.8,2.2-1.9
							c0,0,1-0.3,2-0.1c0.4,0.1,0.7,0.2,0.8,0.3c0.2,0.1,0.3,0.2,0.6,0.3c0.2,0.1,0.3,0.3,0.6,0.7C83.2,9,83.5,9.5,83.6,10.1z"/>
					</g>
				</g>
			</g>
			<path class="st7" d="M82.9,12c0.2-0.1,0.2-0.1,0.3-0.1c0,0.1-0.1,0.2-0.3,0.5c-0.1,0.1-0.2,0.2-0.3,0.4c-0.1,0.1-0.2,0.2-0.4,0.3
				c-0.2,0.2-0.5,0.3-0.9,0.5c-0.2,0.1-0.6,0.2-0.9,0.3c-0.1,0-0.6,0.1-1.2,0c-0.3-0.1-0.7-0.1-1.1-0.3c-0.2-0.1-0.3-0.2-0.5-0.3
				s-0.3-0.2-0.4-0.3c-0.2-0.2-0.3-0.3-0.3-0.5c-0.1-0.1-0.2-0.2-0.2-0.4c-0.1-0.2-0.1-0.3-0.1-0.4c-0.1-0.1-0.1-0.2-0.1-0.3
				c0-0.1,0-0.2-0.1-0.2c-0.1-0.3-0.1-0.4-0.1-0.5c0-0.1,0-0.2,0.1-0.2c0.1-0.1,0.2,0,0.2,0.1c0.2,0.1,0.2,0.2,0.2,0.3
				c0.2,0.4,0.2,0.6,0.2,0.9c0.1,0.6,0.5,1.2,1,1.5c0,0,0.7,0.4,1.6,0.3c0.1,0,0.1,0,0.1,0c0.5-0.1,0.7-0.2,0.9-0.3
				c0.1-0.1,0.5-0.2,0.7-0.4C82,12.4,82.2,12.3,82.9,12z"/>
			
				<radialGradient id="SVGID_21_" cx="1360.9525" cy="2147.1826" r="6.3557" fx="1363.3597" fy="2149.1614" gradientTransform="matrix(0.2932 0 0 0.2599 -319.3276 -547.8179)" gradientUnits="userSpaceOnUse">
				<stop  offset="0" style="stop-color:#72C169"/>
				<stop  offset="0.3078" style="stop-color:#098040"/>
				<stop  offset="0.4732" style="stop-color:#0B8040"/>
				<stop  offset="1" style="stop-color:#133F1E"/>
			</radialGradient>
			<path class="st31" d="M79.4,12.1c-0.6-0.1-1.4-0.5-1.5-1.3c-0.1-0.5,0.1-1,0.2-1.1c0.1-0.1,0.1-0.3,0.3-0.5
				c0.2-0.2,0.3-0.3,0.5-0.4c0.1-0.1,0.3-0.2,0.5-0.3c0.2-0.1,0.7-0.2,1.3-0.1c0.1,0,1,0.3,1.1,1.3c0,0.2,0.1,0.6-0.2,1.2
				c-0.3,0.6-0.9,0.9-1,1C79.9,12.2,79.5,12.1,79.4,12.1z"/>
			<path class="st9" d="M78.2,13.3c0.1,0.1,0.3,0.1,0.3,0.2c0,0.1-0.2,0.1-0.2,0.1c-0.3,0.1-0.8-0.5-1-0.7c-0.1-0.1-0.2-0.2-0.2-0.3
				c0,0-0.1-0.1-0.1-0.2c-0.1-0.1-0.1-0.1-0.1-0.2c0,0,0-0.1,0-0.1c0.1,0,0.1,0,0.1,0.1c0.1,0.1,0.1,0.1,0.1,0.1
				c0.2,0.2,0.4,0.7,0.7,0.9C77.8,13.2,77.9,13.2,78.2,13.3z"/>
			<path class="st10" d="M78.2,13.1"/>
			<path class="st11" d="M79.4,11.8c0.3-0.1,0.5-0.3,0.7-0.3c0,0,0.2,0.1,0.2,0.2c0,0.1,0,0.1,0,0.1c0,0-0.1,0.1-0.1,0.1
				C80,12,79.9,12,79.7,12c-0.2,0-0.3,0-0.3,0c-0.4-0.1-0.7-0.2-0.7-0.2c-0.5-0.3-0.6-0.7-0.7-0.9c0-0.1,0-0.2,0.1-0.2
				c0.1-0.1,0.1-0.1,0.2-0.1c0.1,0.1,0,0.4,0.2,0.7c0.1,0.1,0.2,0.2,0.3,0.3C78.8,11.7,79.1,11.9,79.4,11.8z"/>
			<path class="st12" d="M81.2,9c0,0.1,0.1,0.2,0.1,0.3c-0.1,0.1-0.3,0.1-0.4,0.1c-0.3,0-0.3-0.1-0.7-0.2c-0.1,0-0.3-0.1-0.5-0.1
				c-0.4,0.1-0.6,0.2-0.7,0.2c-0.1-0.1-0.2-0.2-0.1-0.3c0.1-0.2,0.2-0.2,0.5-0.3c0.2-0.1,0.5-0.2,0.9-0.1C80.4,8.7,80.9,8.7,81.2,9z
				"/>
			<path class="st12" d="M81.5,9.5L81.5,9.5c-0.1,0.1-0.2,0.1-0.3,0.1c0-0.1,0.1-0.2,0.2-0.2C81.5,9.4,81.5,9.4,81.5,9.5z"/>
			<path class="st13" d="M82.4,8.1c0.1,0.2,0.1,0.4-0.1,0.5c-0.1,0.1-0.3-0.1-0.6-0.2c-0.3-0.2-0.7-0.4-1-0.5
				c-0.6-0.2-1.4-0.1-1.6-0.2c-0.1-0.1-0.1-0.1-0.1-0.1c0-0.1-0.1-0.1-0.1-0.2c0,0,0-0.1,0.1-0.1c0.2-0.2,0.7-0.2,0.7-0.2
				c0.4,0,0.6,0,0.9,0.1c0.6,0.1,1,0.3,1.1,0.4C82.1,7.7,82.3,7.8,82.4,8.1z"/>
			<path class="st13" d="M82.9,8.8c-0.1,0.1-0.2,0.2-0.3,0.1c-0.2-0.1-0.1-0.5,0-0.5C82.6,8.4,82.9,8.6,82.9,8.8z"/>
		</g>
	</g>
	<g>
		<g>
			<g>
				<g>
					
						<image style="overflow:visible;opacity:0.1;enable-background:new    ;" width="275" height="267" xlink:href="36948CB564FABF46.png"  transform="matrix(4.459093e-02 0 0 4.459093e-02 80.1591 9.0297)">
					</image>
					<g>
						
							<linearGradient id="SVGID_22_" gradientUnits="userSpaceOnUse" x1="83.4406" y1="1031.0007" x2="88.6526" y2="1034.6503" gradientTransform="matrix(1 0 0 1 0 -1018)">
							<stop  offset="0" style="stop-color:#79C588"/>
							<stop  offset="0.171" style="stop-color:#006B3C"/>
							<stop  offset="1" style="stop-color:#7DC353"/>
						</linearGradient>
						<path class="st32" d="M89.4,14.5c0.1,0.2,0.1,0.5,0,0.8c-0.1,0.4-0.2,0.6-0.4,0.8c-0.1,0.2-0.3,0.5-0.6,0.8
							c-0.2,0.2-0.9,0.8-1.9,1c-0.2,0-1.8,0.3-2.8-0.8c-0.6-0.6-0.7-1.3-0.7-1.7c-0.1-0.4-0.2-1.1,0.2-1.8c0.5-1.2,1.8-1.6,2-1.7
							c0,0,0.9-0.3,1.8-0.1c0.4,0.1,0.7,0.2,0.7,0.3c0.2,0.1,0.3,0.2,0.5,0.3c0.2,0.1,0.3,0.3,0.6,0.7C89,13.5,89.3,13.9,89.4,14.5z
							"/>
					</g>
				</g>
			</g>
			<path class="st7" d="M88.8,16.2c0.2-0.1,0.2-0.1,0.3-0.1c0,0.1-0.1,0.2-0.3,0.4c-0.1,0.1-0.2,0.2-0.3,0.4
				c-0.1,0.1-0.2,0.2-0.4,0.3c-0.2,0.2-0.5,0.3-0.8,0.5c-0.2,0.1-0.5,0.2-0.8,0.3c-0.1,0-0.5,0.1-1.1,0c-0.3-0.1-0.7-0.1-1-0.3
				c-0.2-0.1-0.3-0.2-0.5-0.3c-0.2-0.1-0.3-0.2-0.4-0.3c-0.2-0.2-0.3-0.3-0.3-0.5c-0.1-0.1-0.2-0.2-0.2-0.4
				c-0.1-0.2-0.1-0.3-0.1-0.4C83,15.8,83,15.7,83,15.6c0-0.1,0-0.2-0.1-0.2c-0.1-0.3-0.1-0.4-0.1-0.5c0-0.1,0-0.2,0.1-0.2
				c0.1-0.1,0.2,0,0.2,0.1c0.2,0.1,0.2,0.2,0.2,0.3c0.2,0.4,0.2,0.6,0.2,0.8c0.1,0.5,0.5,1.1,0.9,1.3c0,0,0.6,0.4,1.5,0.3
				c0.1,0,0.1,0,0.1,0c0.4-0.1,0.6-0.2,0.8-0.3c0.1-0.1,0.5-0.2,0.7-0.4C87.9,16.5,88.1,16.4,88.8,16.2z"/>
			
				<radialGradient id="SVGID_23_" cx="1382.011" cy="2163.8638" r="5.6495" fx="1384.1508" fy="2165.6226" gradientTransform="matrix(0.2932 0 0 0.2599 -319.3276 -547.8179)" gradientUnits="userSpaceOnUse">
				<stop  offset="0" style="stop-color:#72C169"/>
				<stop  offset="0.3078" style="stop-color:#098040"/>
				<stop  offset="0.4732" style="stop-color:#0B8040"/>
				<stop  offset="1" style="stop-color:#133F1E"/>
			</radialGradient>
			<path class="st33" d="M85.6,16.2c-0.5-0.1-1.2-0.5-1.3-1.2c-0.1-0.5,0.1-0.9,0.2-1c0.1-0.1,0.1-0.3,0.3-0.5
				c0.2-0.2,0.3-0.3,0.4-0.4c0.1-0.1,0.3-0.2,0.5-0.3c0.2-0.1,0.6-0.2,1.1-0.1c0.1,0,0.9,0.3,1,1.1c0,0.2,0.1,0.6-0.2,1.1
				c-0.3,0.6-0.8,0.8-0.9,0.9C86.1,16.3,85.7,16.2,85.6,16.2z"/>
			<path class="st9" d="M84.5,17.3c0.1,0.1,0.3,0.1,0.3,0.2s-0.2,0.1-0.2,0.1c-0.3,0.1-0.7-0.4-0.9-0.6c-0.1-0.1-0.2-0.2-0.2-0.3
				c0,0-0.1-0.1-0.1-0.2c-0.1-0.1-0.1-0.1-0.1-0.2c0,0,0-0.1,0-0.1c0.1,0,0.1,0,0.1,0.1c0.1,0.1,0.1,0.1,0.1,0.1
				c0.2,0.2,0.4,0.6,0.6,0.8C84.2,17.2,84.3,17.2,84.5,17.3z"/>
			<path class="st10" d="M84.5,17.1"/>
			<path class="st11" d="M85.6,16c0.3-0.1,0.4-0.3,0.6-0.3c0,0,0.2,0.1,0.2,0.2c0,0.1,0,0.1,0,0.1c0,0-0.1,0.1-0.1,0.1
				c-0.1,0.1-0.2,0.1-0.4,0.1c-0.2,0-0.3,0-0.3,0c-0.4-0.1-0.6-0.2-0.6-0.2c-0.4-0.3-0.6-0.6-0.6-0.8c0-0.1,0-0.2,0.1-0.2
				c0.1-0.1,0.1-0.1,0.2-0.1c0.1,0.1,0,0.4,0.2,0.7c0.1,0.1,0.2,0.2,0.3,0.3C85.1,15.9,85.3,16,85.6,16z"/>
			<path class="st12" d="M87.2,13.5c0,0.1,0.1,0.2,0.1,0.3c-0.1,0.1-0.3,0.1-0.4,0.1c-0.3,0-0.3-0.1-0.6-0.2c-0.1,0-0.3-0.1-0.5-0.1
				c-0.4,0.1-0.5,0.2-0.7,0.2c-0.1-0.1-0.2-0.2-0.1-0.3c0.1-0.2,0.2-0.2,0.5-0.3c0.2-0.1,0.4-0.2,0.8-0.1
				C86.5,13.2,87,13.2,87.2,13.5z"/>
			<path class="st12" d="M87.5,13.9L87.5,13.9C87.4,14,87.3,14,87.2,14c0-0.1,0.1-0.2,0.2-0.2C87.4,13.8,87.5,13.9,87.5,13.9z"/>
			<path class="st13" d="M88.3,12.7c0.1,0.2,0.1,0.4-0.1,0.4c-0.1,0.1-0.3-0.1-0.5-0.2c-0.3-0.2-0.6-0.4-0.9-0.4
				c-0.5-0.2-1.3-0.1-1.4-0.2c-0.1-0.1-0.1-0.1-0.1-0.1c0-0.1-0.1-0.1-0.1-0.2c0,0,0-0.1,0.1-0.1c0.2-0.2,0.6-0.2,0.6-0.2
				c0.4,0,0.6,0,0.8,0.1c0.6,0.1,0.9,0.3,1,0.4C88,12.3,88.2,12.4,88.3,12.7z"/>
			<path class="st13" d="M88.7,13.3c-0.1,0.1-0.2,0.2-0.3,0.1c-0.2-0.1-0.1-0.4,0-0.5C88.5,12.9,88.8,13.2,88.7,13.3z"/>
		</g>
	</g>
</g>
</svg>
