<?xml version="1.0" encoding="utf-8"?>
<!-- Generator: Adobe Illustrator 25.3.1, SVG Export Plug-In . SVG Version: 6.00 Build 0)  -->
<svg version="1.1" id="Layer_1" xmlns="http://www.w3.org/2000/svg" xmlns:xlink="http://www.w3.org/1999/xlink" x="0px" y="0px"
	 viewBox="0 0 710.8 59.3" style="enable-background:new 0 0 710.8 59.3;" xml:space="preserve">
<style type="text/css">
	.st0{fill:url(#SVGID_1_);}
	.st1{opacity:0.2;fill:#F1F2F2;enable-background:new    ;}
	.st2{fill:url(#SVGID_2_);}
	.st3{opacity:0.67;fill:#FFFFFF;enable-background:new    ;}
	.st4{fill:#FFFFFF;}
	.st5{opacity:0.49;fill:#FFFFFF;enable-background:new    ;}
	.st6{opacity:0.48;fill:#FFFFFF;enable-background:new    ;}
	.st7{opacity:0.79;fill:#FFFFFF;enable-background:new    ;}
	.st8{opacity:0.62;}
	.st9{fill:url(#SVGID_3_);}
	.st10{fill:#606060;}
	.st11{font-family:'Avenir-Book';}
	.st12{font-size:49.0996px;}
	.st13{fill:#D5D7D8;}
	.st14{fill:url(#SVGID_4_);}
	.st15{fill:url(#SVGID_5_);}
	.st16{fill:url(#SVGID_6_);}
	.st17{fill:url(#SVGID_7_);}
	.st18{fill:url(#SVGID_8_);}
	.st19{fill:url(#SVGID_9_);}
	.st20{fill:url(#SVGID_10_);}
	.st21{fill:url(#SVGID_11_);}
	.st22{fill:url(#SVGID_12_);}
	.st23{fill:url(#SVGID_13_);}
	.st24{fill:url(#SVGID_14_);}
	.st25{fill:url(#SVGID_15_);}
	.st26{fill:url(#SVGID_16_);}
	.st27{fill:url(#SVGID_17_);}
	.st28{fill:url(#SVGID_18_);}
	.st29{fill:url(#SVGID_19_);}
	.st30{fill:url(#SVGID_20_);}
	.st31{fill:url(#SVGID_21_);}
	.st32{fill:url(#SVGID_22_);}
	.st33{fill:url(#SVGID_23_);}
</style>
<g>
	<g>
		<g>
			<g>
				
					<image style="overflow:visible;opacity:0.1;enable-background:new    ;" width="275" height="267" xlink:href="36948CB564FABF46.png"  transform="matrix(0.3273 0 0 0.3273 -33.2553 -155.5534)">
				</image>
				<g>
					
						<linearGradient id="SVGID_1_" gradientUnits="userSpaceOnUse" x1="-9.1715" y1="891.592" x2="29.0817" y2="918.3772" gradientTransform="matrix(1 0 0 1 0 -1018)">
						<stop  offset="0" style="stop-color:#79C588"/>
						<stop  offset="0.171" style="stop-color:#006B3C"/>
						<stop  offset="1" style="stop-color:#7DC353"/>
					</linearGradient>
					<path class="st0" d="M34.3-115.6c0.4,1.5,0.4,3.7,0,5.9c-0.4,2.6-1.5,4.1-2.6,5.9c-0.7,1.1-2.2,3.3-4.5,5.6
						c-1.5,1.5-6.3,5.9-13.7,7.4c-1.1,0-13,2.2-20.8-5.9c-4.1-4.5-4.8-9.3-5.2-12.2c-0.4-2.6-1.5-7.8,1.1-13.4
						c3.7-8.9,13-11.9,14.5-12.6c0,0,6.3-1.9,13-0.4c2.6,0.4,4.8,1.5,5.2,1.9c1.1,0.4,2.2,1.1,3.7,2.2c1.1,0.7,2.2,1.9,4.1,4.8
						C31.7-122.7,33.6-119.7,34.3-115.6z"/>
				</g>
			</g>
		</g>
		<path class="st1" d="M29.8-103c1.5-0.4,1.5-0.4,1.9-0.4c0,0.4-0.7,1.1-2.2,3c-0.7,0.7-1.5,1.5-2.2,2.6c-0.4,0.4-1.5,1.5-2.6,2.2
			c-1.5,1.1-3.3,2.2-5.6,3.3c-1.5,0.7-3.7,1.5-5.6,1.9c-0.4,0-3.7,0.4-7.8,0c-2.2-0.4-4.8-0.7-7.4-2.2C-2.8-93-3.9-93.8-5-94.5
			c-1.1-0.7-1.9-1.5-2.6-2.2c-1.1-1.1-1.9-2.2-2.2-3.3c-0.4-0.7-1.1-1.5-1.1-2.6c-0.4-1.1-0.7-1.9-0.7-2.6c-0.4-0.7-0.4-1.5-0.4-2.2
			c0-0.4,0-1.1-0.4-1.5c-0.4-2.2-0.4-2.6-0.4-3.3c0-0.7,0-1.5,0.4-1.5c0.4-0.4,1.1,0,1.5,0.4c1.1,0.4,1.1,1.5,1.5,1.9
			C-8.4-109-8-107.5-8-106c0.4,3.7,3.3,7.8,6.7,9.6c0,0,4.5,2.6,10.8,2.2c0.4,0,0.4,0,0.4,0c3-0.4,4.5-1.5,5.9-2.2
			c0.4-0.4,3.3-1.5,4.8-2.6C23.5-100.8,25-101.2,29.8-103z"/>
		
			<radialGradient id="SVGID_2_" cx="1287.4895" cy="1683.2292" r="32.5896" fx="1299.833" fy="1693.375" gradientTransform="matrix(0.3731 0 0 0.3307 -471.2029 -671.2372)" gradientUnits="userSpaceOnUse">
			<stop  offset="0" style="stop-color:#72C169"/>
			<stop  offset="0.3078" style="stop-color:#098040"/>
			<stop  offset="0.4732" style="stop-color:#0B8040"/>
			<stop  offset="1" style="stop-color:#133F1E"/>
		</radialGradient>
		<path class="st2" d="M6.5-102.7c-3.7-0.4-8.9-3.3-9.6-8.5c-0.4-3.3,0.7-6.3,1.1-7c0.4-0.7,0.7-1.9,1.9-3.3c1.1-1.1,1.9-1.9,3-2.6
			c0.4-0.4,1.9-1.1,3.3-1.9c1.1-0.4,4.5-1.5,8.2-0.4c0.4,0,6.3,2.2,7,8.2c0,1.1,0.4,4.1-1.5,7.8c-2.2,4.1-5.6,5.6-6.7,6.3
			C10.2-102.3,7.6-102.7,6.5-102.7z"/>
		<path class="st3" d="M-1.3-94.9c0.7,0.4,1.9,0.7,1.9,1.1s-1.1,0.4-1.1,0.4c-2.2,0.4-5.2-3-6.7-4.5c-0.7-0.7-1.1-1.5-1.5-1.9
			c0,0-0.4-0.4-0.4-1.1c-0.4-0.4-0.4-0.7-0.4-1.1c0,0,0-0.4,0-0.7c0.4,0,0.4,0,0.7,0.4c0.4,0.4,0.4,0.4,0.4,0.4
			c1.1,1.5,2.6,4.5,4.5,5.6C-3.5-95.6-2.8-95.2-1.3-94.9z"/>
		<path class="st4" d="M-1.3-96"/>
		<path class="st5" d="M6.8-104.5c2.2-0.4,3-2.2,4.5-1.9c0,0,1.1,0.4,1.1,1.1c0,0.4,0,0.4,0,0.7c0,0-0.4,0.4-0.7,0.7
			c-0.7,0.4-1.5,0.4-2.6,0.4c-1.1,0-1.9,0-2.2,0c-2.6-0.4-4.5-1.5-4.5-1.5c-3-1.9-4.1-4.5-4.5-5.9c0-0.4,0-1.1,0.4-1.5
			c0.4-0.4,0.7-0.4,1.1-0.4c0.7,0.4,0,2.6,1.1,4.8c0.4,0.7,1.1,1.1,1.9,1.9C2.8-105.3,4.6-104.1,6.8-104.5z"/>
		<path class="st6" d="M18.3-122.7c0,0.4,0.7,1.1,0.4,1.9c-0.4,0.7-1.9,0.7-2.6,0.7c-1.9,0-2.2-0.7-4.5-1.5c-0.4,0-1.9-0.4-3.3-0.4
			c-2.6,0.4-3.7,1.5-4.8,1.1c-0.7-0.4-1.1-1.5-0.7-2.2c0.4-1.1,1.5-1.5,3.3-1.9c1.5-0.4,3-1.1,5.6-0.7
			C13.5-124.9,16.9-124.9,18.3-122.7z"/>
		<path class="st6" d="M20.6-119.7v0.4c-0.4,0.4-1.5,0.4-1.9,0c0-0.4,0.4-1.1,1.1-1.1C20.2-120.5,20.6-120.1,20.6-119.7z"/>
		<path class="st7" d="M26.5-128.6c0.4,1.1,0.4,2.6-0.4,3c-0.7,0.4-2.2-0.4-3.7-1.5c-1.9-1.1-4.5-2.6-6.7-3
			c-3.7-1.1-9.3-0.4-10.4-1.1C5-131.6,5-132,5-132c0-0.4-0.4-0.7-0.4-1.5c0,0,0-0.4,0.7-0.7c1.5-1.1,4.5-1.1,4.5-1.1
			c2.6,0,4.1,0,5.6,0.4c4.1,0.7,6.7,2.2,7.4,2.6C24.3-131.6,25.8-130.5,26.5-128.6z"/>
		<path class="st7" d="M29.5-124.2c-0.4,0.7-1.5,1.1-2.2,0.7c-1.1-0.7-0.7-3,0-3.3C28-127.1,29.8-125.3,29.5-124.2z"/>
	</g>
</g>
<g>
	<g class="st8">
		
			<radialGradient id="SVGID_3_" cx="-1099.5283" cy="1068.6406" r="6.772" fx="-1100.771" fy="1071.8822" gradientTransform="matrix(39.2998 0 0 1.1776 43460.3047 -1207.1565)" gradientUnits="userSpaceOnUse">
			<stop  offset="7.196508e-02" style="stop-color:#000000;stop-opacity:0.12"/>
			<stop  offset="0.189" style="stop-color:#424242;stop-opacity:9.573053e-02"/>
			<stop  offset="0.3105" style="stop-color:#7F7F80;stop-opacity:7.051824e-02"/>
			<stop  offset="0.4219" style="stop-color:#B0B0B1;stop-opacity:4.741077e-02"/>
			<stop  offset="0.5192" style="stop-color:#D3D3D4;stop-opacity:2.722403e-02"/>
			<stop  offset="0.5987" style="stop-color:#E8E8E9;stop-opacity:1.073760e-02"/>
			<stop  offset="0.6504" style="stop-color:#F0F0F1;stop-opacity:0"/>
			<stop  offset="0.9561" style="stop-color:#FFFFFF;stop-opacity:0"/>
		</radialGradient>
		<path class="st9" d="M495.3,52.7c-0.3,2.4-127.5,4.2-228.9,4.2c-102.2,0-229.7-1.8-229.9-4.2c-0.2-2.3,120.2-4.9,228.7-4.9
			C374.6,47.8,495.5,50.4,495.3,52.7z"/>
	</g>
	<text transform="matrix(0.9668 0 0 1 140.7026 48.7468)" class="st10 st11 st12">cell-</text>
	<text transform="matrix(0.9668 0 0 1 228.5214 48.7468)" class="st13 st11 st12">t</text>
	<text transform="matrix(0.9668 0 0 1 244.3442 48.7468)" class="st13 st11 st12">o</text>
	<text transform="matrix(0.9668 0 0 1 272.4301 48.7468)" class="st13 st11 st12">o</text>
	<text transform="matrix(0.9668 0 0 1 300.6147 48.7468)" class="st13 st11 st12">l</text>
	<text transform="matrix(0.9668 0 0 1 311.9872 48.7468)" class="st13 st11 st12">s</text>
</g>
<g>
	<g>
		<g>
			<g>
				
					<image style="overflow:visible;opacity:0.1;enable-background:new    ;" width="275" height="267" xlink:href="36948CB564FABF46.png"  transform="matrix(0.1242 0 0 0.1242 -1 31.5054)">
				</image>
				<g>
					
						<linearGradient id="SVGID_4_" gradientUnits="userSpaceOnUse" x1="8.1422" y1="1060.569" x2="22.663" y2="1070.7366" gradientTransform="matrix(1 0 0 1 0 -1018)">
						<stop  offset="0" style="stop-color:#79C588"/>
						<stop  offset="0.171" style="stop-color:#006B3C"/>
						<stop  offset="1" style="stop-color:#7DC353"/>
					</linearGradient>
					<path class="st14" d="M24.6,46.7c0.1,0.6,0.1,1.4,0,2.3c-0.1,1-0.6,1.5-1,2.3c-0.3,0.4-0.8,1.3-1.7,2.1
						c-0.6,0.6-2.4,2.3-5.2,2.8c-0.4,0-4.9,0.8-7.9-2.3c-1.5-1.7-1.8-3.5-2-4.6c-0.1-1-0.6-3,0.4-5.1c1.4-3.4,4.9-4.5,5.5-4.8
						c0,0,2.4-0.7,4.9-0.1c1,0.1,1.8,0.6,2,0.7c0.4,0.1,0.8,0.4,1.4,0.8c0.4,0.3,0.8,0.7,1.5,1.8C23.7,44,24.4,45.1,24.6,46.7z"/>
				</g>
			</g>
		</g>
		<path class="st1" d="M23,51.4c0.6-0.1,0.6-0.1,0.7-0.1c0,0.1-0.3,0.4-0.8,1.1c-0.3,0.3-0.6,0.6-0.8,1c-0.1,0.1-0.6,0.6-1,0.8
			c-0.6,0.4-1.3,0.8-2.1,1.3c-0.6,0.3-1.4,0.6-2.1,0.7c-0.1,0-1.4,0.1-3,0C13,56.1,12,55.9,11,55.4c-0.4-0.1-0.8-0.4-1.3-0.7
			c-0.4-0.3-0.7-0.6-1-0.8C8.3,53.4,8,53,7.9,52.6c-0.1-0.3-0.4-0.6-0.4-1c-0.1-0.4-0.3-0.7-0.3-1C7,50.3,7,50,7,49.8
			c0-0.1,0-0.4-0.1-0.6c-0.1-0.8-0.1-1-0.1-1.3c0-0.3,0-0.6,0.1-0.6c0.1-0.1,0.4,0,0.6,0.1c0.4,0.1,0.4,0.6,0.6,0.7
			c0.4,1,0.6,1.5,0.6,2.1c0.1,1.4,1.3,3,2.5,3.7c0,0,1.7,1,4.1,0.8c0.1,0,0.1,0,0.1,0c1.1-0.1,1.7-0.6,2.3-0.8
			c0.1-0.1,1.3-0.6,1.8-1C20.6,52.3,21.1,52.1,23,51.4z"/>
		
			<radialGradient id="SVGID_5_" cx="1386.4916" cy="2191.6641" r="9.2276" fx="1389.9866" fy="2194.5369" gradientTransform="matrix(0.5002 0 0 0.4434 -678.4177 -924.6269)" gradientUnits="userSpaceOnUse">
			<stop  offset="0" style="stop-color:#72C169"/>
			<stop  offset="0.3078" style="stop-color:#098040"/>
			<stop  offset="0.4732" style="stop-color:#0B8040"/>
			<stop  offset="1" style="stop-color:#133F1E"/>
		</radialGradient>
		<path class="st15" d="M14.1,51.6c-1.4-0.1-3.4-1.3-3.7-3.2c-0.1-1.3,0.3-2.4,0.4-2.7c0.1-0.3,0.3-0.7,0.7-1.3
			c0.4-0.4,0.7-0.7,1.1-1c0.1-0.1,0.7-0.4,1.3-0.7c0.4-0.1,1.7-0.6,3.1-0.1c0.1,0,2.4,0.8,2.7,3.1c0,0.4,0.1,1.5-0.6,3
			c-0.8,1.5-2.1,2.1-2.5,2.4C15.5,51.7,14.5,51.6,14.1,51.6z"/>
		<path class="st3" d="M11.1,54.5c0.3,0.1,0.7,0.3,0.7,0.4c0,0.1-0.4,0.1-0.4,0.1c-0.8,0.1-2-1.1-2.5-1.7c-0.3-0.3-0.4-0.6-0.6-0.7
			c0,0-0.1-0.1-0.1-0.4C8,52.1,8,52,8,51.9c0,0,0-0.1,0-0.3c0.1,0,0.1,0,0.3,0.1c0.1,0.1,0.1,0.1,0.1,0.1c0.4,0.6,1,1.7,1.7,2.1
			C10.3,54.3,10.6,54.4,11.1,54.5z"/>
		<path class="st4" d="M11.1,54.1"/>
		<path class="st5" d="M14.2,50.9c0.8-0.1,1.1-0.8,1.7-0.7c0,0,0.4,0.1,0.4,0.4c0,0.1,0,0.1,0,0.3c0,0-0.1,0.1-0.3,0.3
			c-0.3,0.1-0.6,0.1-1,0.1c-0.4,0-0.7,0-0.8,0c-1-0.1-1.7-0.6-1.7-0.6C11.4,50,11,49,10.8,48.5c0-0.1,0-0.4,0.1-0.6
			c0.1-0.1,0.3-0.1,0.4-0.1c0.3,0.1,0,1,0.4,1.8c0.1,0.3,0.4,0.4,0.7,0.7C12.7,50.6,13.4,51,14.2,50.9z"/>
		<path class="st6" d="M18.6,44c0,0.1,0.3,0.4,0.1,0.7C18.6,45,18,45,17.7,45c-0.7,0-0.8-0.3-1.7-0.6c-0.1,0-0.7-0.1-1.3-0.1
			c-1,0.1-1.4,0.6-1.8,0.4c-0.3-0.1-0.4-0.6-0.3-0.8c0.1-0.4,0.6-0.6,1.3-0.7c0.6-0.1,1.1-0.4,2.1-0.3C16.8,43.1,18,43.1,18.6,44z"
			/>
		<path class="st6" d="M19.4,45.1v0.1c-0.1,0.1-0.6,0.1-0.7,0c0-0.1,0.1-0.4,0.4-0.4C19.3,44.8,19.4,45,19.4,45.1z"/>
		<path class="st7" d="M21.7,41.7c0.1,0.4,0.1,1-0.1,1.1c-0.3,0.1-0.8-0.1-1.4-0.6c-0.7-0.4-1.7-1-2.5-1.1c-1.4-0.4-3.5-0.1-3.9-0.4
			c-0.1-0.1-0.1-0.3-0.1-0.3c0-0.1-0.1-0.3-0.1-0.6c0,0,0-0.1,0.3-0.3c0.6-0.4,1.7-0.4,1.7-0.4c1,0,1.5,0,2.1,0.1
			c1.5,0.3,2.5,0.8,2.8,1C20.8,40.6,21.4,41,21.7,41.7z"/>
		<path class="st7" d="M22.8,43.4c-0.1,0.3-0.6,0.4-0.8,0.3c-0.4-0.3-0.3-1.1,0-1.3S23,43,22.8,43.4z"/>
	</g>
</g>
<g>
	<g>
		<g>
			<g>
				
					<image style="overflow:visible;opacity:0.1;enable-background:new    ;" width="275" height="267" xlink:href="36948CB564FABF46.png"  transform="matrix(0.1169 0 0 0.1169 11.3353 16.896)">
				</image>
				<g>
					
						<linearGradient id="SVGID_6_" gradientUnits="userSpaceOnUse" x1="19.9397" y1="1045.3087" x2="33.6063" y2="1054.8783" gradientTransform="matrix(1 0 0 1 0 -1018)">
						<stop  offset="0" style="stop-color:#79C588"/>
						<stop  offset="0.171" style="stop-color:#006B3C"/>
						<stop  offset="1" style="stop-color:#7DC353"/>
					</linearGradient>
					<path class="st16" d="M35.5,31.2c0.1,0.5,0.1,1.3,0,2.1c-0.1,0.9-0.5,1.5-0.9,2.1c-0.3,0.4-0.8,1.2-1.6,2
						c-0.5,0.5-2.3,2.1-4.9,2.7c-0.4,0-4.6,0.8-7.4-2.1c-1.5-1.6-1.7-3.3-1.9-4.4c-0.1-0.9-0.5-2.8,0.4-4.8c1.3-3.2,4.6-4.2,5.2-4.5
						c0,0,2.3-0.7,4.6-0.1c0.9,0.1,1.7,0.5,1.9,0.7c0.4,0.1,0.8,0.4,1.3,0.8c0.4,0.3,0.8,0.7,1.5,1.7C34.5,28.6,35.2,29.7,35.5,31.2
						z"/>
				</g>
			</g>
		</g>
		<path class="st1" d="M33.9,35.7c0.5-0.1,0.5-0.1,0.7-0.1c0,0.1-0.3,0.4-0.8,1.1c-0.3,0.3-0.5,0.5-0.8,0.9
			c-0.1,0.1-0.5,0.5-0.9,0.8c-0.5,0.4-1.2,0.8-2,1.2c-0.5,0.3-1.3,0.5-2,0.7c-0.1,0-1.3,0.1-2.8,0c-0.8-0.1-1.7-0.3-2.7-0.8
			c-0.4-0.1-0.8-0.4-1.2-0.7c-0.4-0.3-0.7-0.5-0.9-0.8c-0.4-0.4-0.7-0.8-0.8-1.2c-0.1-0.3-0.4-0.5-0.4-0.9c-0.1-0.4-0.3-0.7-0.3-0.9
			c-0.1-0.3-0.1-0.5-0.1-0.8c0-0.1,0-0.4-0.1-0.5c-0.1-0.8-0.1-0.9-0.1-1.2c0-0.3,0-0.5,0.1-0.5c0.1-0.1,0.4,0,0.5,0.1
			c0.4,0.1,0.4,0.5,0.5,0.7c0.4,0.9,0.5,1.5,0.5,2c0.1,1.3,1.2,2.8,2.4,3.4c0,0,1.6,0.9,3.8,0.8c0.1,0,0.1,0,0.1,0
			c1.1-0.1,1.6-0.5,2.1-0.8c0.1-0.1,1.2-0.5,1.7-0.9C31.6,36.5,32.2,36.3,33.9,35.7z"/>
		
			<radialGradient id="SVGID_7_" cx="1398.1469" cy="2186.4421" r="9.2276" fx="1401.6418" fy="2189.3149" gradientTransform="matrix(0.4708 0 0 0.4173 -631.7213 -880.8143)" gradientUnits="userSpaceOnUse">
			<stop  offset="0" style="stop-color:#72C169"/>
			<stop  offset="0.3078" style="stop-color:#098040"/>
			<stop  offset="0.4732" style="stop-color:#0B8040"/>
			<stop  offset="1" style="stop-color:#133F1E"/>
		</radialGradient>
		<path class="st17" d="M25.5,35.8c-1.3-0.1-3.2-1.2-3.4-3c-0.1-1.2,0.3-2.3,0.4-2.5c0.1-0.3,0.3-0.7,0.7-1.2
			c0.4-0.4,0.7-0.7,1.1-0.9c0.1-0.1,0.7-0.4,1.2-0.7c0.4-0.1,1.6-0.5,2.9-0.1c0.1,0,2.3,0.8,2.5,2.9c0,0.4,0.1,1.5-0.5,2.8
			c-0.8,1.5-2,2-2.4,2.3C26.9,35.9,25.9,35.8,25.5,35.8z"/>
		<path class="st3" d="M22.7,38.6c0.3,0.1,0.7,0.3,0.7,0.4c0,0.1-0.4,0.1-0.4,0.1c-0.8,0.1-1.9-1.1-2.4-1.6
			c-0.3-0.3-0.4-0.5-0.5-0.7c0,0-0.1-0.1-0.1-0.4c-0.1-0.1-0.1-0.3-0.1-0.4c0,0,0-0.1,0-0.3c0.1,0,0.1,0,0.3,0.1
			c0.1,0.1,0.1,0.1,0.1,0.1c0.4,0.5,0.9,1.6,1.6,2C22,38.3,22.2,38.4,22.7,38.6z"/>
		<path class="st4" d="M22.7,38.2"/>
		<path class="st5" d="M25.7,35.1c0.8-0.1,1.1-0.8,1.6-0.7c0,0,0.4,0.1,0.4,0.4c0,0.1,0,0.1,0,0.3c0,0-0.1,0.1-0.3,0.3
			c-0.3,0.1-0.5,0.1-0.9,0.1c-0.4,0-0.7,0-0.8,0c-0.9-0.1-1.6-0.5-1.6-0.5c-1.1-0.7-1.5-1.6-1.6-2.1c0-0.1,0-0.4,0.1-0.5
			c0.1-0.1,0.3-0.1,0.4-0.1c0.3,0.1,0,0.9,0.4,1.7c0.1,0.3,0.4,0.4,0.7,0.7C24.2,34.9,24.9,35.3,25.7,35.1z"/>
		<path class="st6" d="M29.8,28.6c0,0.1,0.3,0.4,0.1,0.7c-0.1,0.3-0.7,0.3-0.9,0.3c-0.7,0-0.8-0.3-1.6-0.5c-0.1,0-0.7-0.1-1.2-0.1
			c-0.9,0.1-1.3,0.5-1.7,0.4c-0.3-0.1-0.4-0.5-0.3-0.8c0.1-0.4,0.5-0.5,1.2-0.7c0.5-0.1,1.1-0.4,2-0.3C28,27.8,29.2,27.8,29.8,28.6z
			"/>
		<path class="st6" d="M30.6,29.7v0.1c-0.1,0.1-0.5,0.1-0.7,0c0-0.1,0.1-0.4,0.4-0.4C30.4,29.4,30.6,29.6,30.6,29.7z"/>
		<path class="st7" d="M32.7,26.5c0.1,0.4,0.1,0.9-0.1,1.1c-0.3,0.1-0.8-0.1-1.3-0.5c-0.7-0.4-1.6-0.9-2.4-1.1
			c-1.3-0.4-3.3-0.1-3.7-0.4C25,25.5,25,25.3,25,25.3c0-0.1-0.1-0.3-0.1-0.5c0,0,0-0.1,0.3-0.3c0.5-0.4,1.6-0.4,1.6-0.4
			c0.9,0,1.5,0,2,0.1c1.5,0.3,2.4,0.8,2.7,0.9C31.9,25.5,32.4,25.9,32.7,26.5z"/>
		<path class="st7" d="M33.7,28.1c-0.1,0.3-0.5,0.4-0.8,0.3c-0.4-0.3-0.3-1.1,0-1.2C33.2,27,33.9,27.7,33.7,28.1z"/>
	</g>
</g>
<g>
	<g>
		<g>
			<g>
				
					<image style="overflow:visible;opacity:0.1;enable-background:new    ;" width="275" height="267" xlink:href="36948CB564FABF46.png"  transform="matrix(0.1096 0 0 0.1096 25.1506 5.0209)">
				</image>
				<g>
					
						<linearGradient id="SVGID_8_" gradientUnits="userSpaceOnUse" x1="33.2173" y1="1032.7828" x2="46.0297" y2="1041.7543" gradientTransform="matrix(1 0 0 1 0 -1018)">
						<stop  offset="0" style="stop-color:#79C588"/>
						<stop  offset="0.171" style="stop-color:#006B3C"/>
						<stop  offset="1" style="stop-color:#7DC353"/>
					</linearGradient>
					<path class="st18" d="M47.8,18.4c0.1,0.5,0.1,1.2,0,2c-0.1,0.9-0.5,1.4-0.9,2c-0.2,0.4-0.7,1.1-1.5,1.9c-0.5,0.5-2.1,2-4.6,2.5
						c-0.4,0-4.3,0.7-7-2c-1.4-1.5-1.6-3.1-1.7-4.1c-0.1-0.9-0.5-2.6,0.4-4.5c1.2-3,4.3-4,4.8-4.2c0,0,2.1-0.6,4.3-0.1
						c0.9,0.1,1.6,0.5,1.7,0.6c0.4,0.1,0.7,0.4,1.2,0.7c0.4,0.2,0.7,0.6,1.4,1.6C46.9,16,47.5,17,47.8,18.4z"/>
				</g>
			</g>
		</g>
		<path class="st1" d="M46.3,22.6c0.5-0.1,0.5-0.1,0.6-0.1c0,0.1-0.2,0.4-0.7,1c-0.2,0.2-0.5,0.5-0.7,0.9c-0.1,0.1-0.5,0.5-0.9,0.7
			c-0.5,0.4-1.1,0.7-1.9,1.1c-0.5,0.2-1.2,0.5-1.9,0.6c-0.1,0-1.2,0.1-2.6,0c-0.7-0.1-1.6-0.2-2.5-0.7c-0.4-0.1-0.7-0.4-1.1-0.6
			c-0.4-0.2-0.6-0.5-0.9-0.7c-0.4-0.4-0.6-0.7-0.7-1.1c-0.1-0.2-0.4-0.5-0.4-0.9c-0.1-0.4-0.2-0.6-0.2-0.9c-0.1-0.2-0.1-0.5-0.1-0.7
			c0-0.1,0-0.4-0.1-0.5C32,19.9,32,19.8,32,19.5s0-0.5,0.1-0.5c0.1-0.1,0.4,0,0.5,0.1c0.4,0.1,0.4,0.5,0.5,0.6
			c0.4,0.9,0.5,1.4,0.5,1.9c0.1,1.2,1.1,2.6,2.2,3.2c0,0,1.5,0.9,3.6,0.7c0.1,0,0.1,0,0.1,0c1-0.1,1.5-0.5,2-0.7
			c0.1-0.1,1.1-0.5,1.6-0.9C44.2,23.4,44.7,23.2,46.3,22.6z"/>
		
			<radialGradient id="SVGID_9_" cx="1425.4811" cy="2155.7915" r="8.6509" fx="1428.7577" fy="2158.4846" gradientTransform="matrix(0.4708 0 0 0.4173 -631.7213 -880.8143)" gradientUnits="userSpaceOnUse">
			<stop  offset="0" style="stop-color:#72C169"/>
			<stop  offset="0.3078" style="stop-color:#098040"/>
			<stop  offset="0.4732" style="stop-color:#0B8040"/>
			<stop  offset="1" style="stop-color:#133F1E"/>
		</radialGradient>
		<path class="st19" d="M38.5,22.7c-1.2-0.1-3-1.1-3.2-2.9c-0.1-1.1,0.2-2.1,0.4-2.4c0.1-0.2,0.2-0.6,0.6-1.1c0.4-0.4,0.6-0.6,1-0.9
			c0.1-0.1,0.6-0.4,1.1-0.6c0.4-0.1,1.5-0.5,2.7-0.1c0.1,0,2.1,0.7,2.4,2.7c0,0.4,0.1,1.4-0.5,2.6c-0.7,1.4-1.9,1.9-2.2,2.1
			C39.7,22.9,38.8,22.7,38.5,22.7z"/>
		<path class="st3" d="M35.8,25.3c0.2,0.1,0.6,0.2,0.6,0.4c0,0.1-0.4,0.1-0.4,0.1c-0.7,0.1-1.7-1-2.2-1.5c-0.2-0.2-0.4-0.5-0.5-0.6
			c0,0-0.1-0.1-0.1-0.4c-0.1-0.1-0.1-0.2-0.1-0.4c0,0,0-0.1,0-0.2c0.1,0,0.1,0,0.2,0.1s0.1,0.1,0.1,0.1c0.4,0.5,0.9,1.5,1.5,1.9
			C35.1,25.1,35.4,25.2,35.8,25.3z"/>
		<path class="st4" d="M35.8,25"/>
		<path class="st5" d="M38.6,22.1c0.7-0.1,1-0.7,1.5-0.6c0,0,0.4,0.1,0.4,0.4c0,0.1,0,0.1,0,0.2c0,0-0.1,0.1-0.2,0.2
			c-0.2,0.1-0.5,0.1-0.9,0.1c-0.4,0-0.6,0-0.7,0c-0.9-0.1-1.5-0.5-1.5-0.5c-1-0.6-1.4-1.5-1.5-2c0-0.1,0-0.4,0.1-0.5
			c0.1-0.1,0.2-0.1,0.4-0.1c0.2,0.1,0,0.9,0.4,1.6c0.1,0.2,0.4,0.4,0.6,0.6C37.2,21.9,37.8,22.2,38.6,22.1z"/>
		<path class="st6" d="M42.4,16c0,0.1,0.2,0.4,0.1,0.6c-0.1,0.2-0.6,0.2-0.9,0.2c-0.6,0-0.7-0.2-1.5-0.5c-0.1,0-0.6-0.1-1.1-0.1
			c-0.9,0.1-1.2,0.5-1.6,0.4c-0.2-0.1-0.4-0.5-0.2-0.7c0.1-0.4,0.5-0.5,1.1-0.6c0.5-0.1,1-0.4,1.9-0.2C40.8,15.3,41.9,15.3,42.4,16z
			"/>
		<path class="st6" d="M43.2,17v0.1c-0.1,0.1-0.5,0.1-0.6,0c0-0.1,0.1-0.4,0.4-0.4C43.1,16.8,43.2,16.9,43.2,17z"/>
		<path class="st7" d="M45.2,14c0.1,0.4,0.1,0.9-0.1,1c-0.2,0.1-0.7-0.1-1.2-0.5c-0.6-0.4-1.5-0.9-2.2-1c-1.2-0.4-3.1-0.1-3.5-0.4
			C38,13,38,12.9,38,12.9c0-0.1-0.1-0.2-0.1-0.5c0,0,0-0.1,0.2-0.2c0.5-0.4,1.5-0.4,1.5-0.4c0.9,0,1.4,0,1.9,0.1
			c1.4,0.2,2.2,0.7,2.5,0.9C44.4,13,44.9,13.4,45.2,14z"/>
		<path class="st7" d="M46.2,15.5c-0.1,0.2-0.5,0.4-0.7,0.2c-0.4-0.2-0.2-1,0-1.1C45.7,14.5,46.3,15.2,46.2,15.5z"/>
	</g>
</g>
<g>
	<g>
		<g>
			<g>
				
					<image style="overflow:visible;opacity:0.1;enable-background:new    ;" width="275" height="267" xlink:href="36948CB564FABF46.png"  transform="matrix(0.1023 0 0 0.1023 41.9638 -1.1767)">
				</image>
				<g>
					
						<linearGradient id="SVGID_10_" gradientUnits="userSpaceOnUse" x1="49.4926" y1="1025.9343" x2="61.4509" y2="1034.3077" gradientTransform="matrix(1 0 0 1 0 -1018)">
						<stop  offset="0" style="stop-color:#79C588"/>
						<stop  offset="0.171" style="stop-color:#006B3C"/>
						<stop  offset="1" style="stop-color:#7DC353"/>
					</linearGradient>
					<path class="st20" d="M63.1,11.3c0.1,0.5,0.1,1.2,0,1.9C63,14,62.6,14.4,62.3,15c-0.2,0.3-0.7,1-1.4,1.7
						c-0.5,0.5-2,1.9-4.3,2.3c-0.3,0-4.1,0.7-6.5-1.9c-1.3-1.4-1.5-2.9-1.6-3.8c-0.1-0.8-0.5-2.4,0.3-4.2c1.2-2.8,4.1-3.7,4.5-3.9
						c0,0,2-0.6,4.1-0.1c0.8,0.1,1.5,0.5,1.6,0.6c0.3,0.1,0.7,0.3,1.2,0.7c0.3,0.2,0.7,0.6,1.3,1.5C62.3,9.1,62.8,10,63.1,11.3z"/>
				</g>
			</g>
		</g>
		<path class="st1" d="M61.7,15.2c0.5-0.1,0.5-0.1,0.6-0.1c0,0.1-0.2,0.3-0.7,0.9c-0.2,0.2-0.5,0.5-0.7,0.8
			c-0.1,0.1-0.5,0.5-0.8,0.7c-0.5,0.3-1,0.7-1.7,1c-0.5,0.2-1.2,0.5-1.7,0.6c-0.1,0-1.2,0.1-2.4,0c-0.7-0.1-1.5-0.2-2.3-0.7
			c-0.3-0.1-0.7-0.3-1-0.6c-0.3-0.2-0.6-0.5-0.8-0.7c-0.3-0.3-0.6-0.7-0.7-1c-0.1-0.2-0.3-0.5-0.3-0.8c-0.1-0.3-0.2-0.6-0.2-0.8
			c-0.1-0.2-0.1-0.5-0.1-0.7c0-0.1,0-0.3-0.1-0.5c-0.1-0.7-0.1-0.8-0.1-1s0-0.5,0.1-0.5c0.1-0.1,0.3,0,0.5,0.1
			c0.3,0.1,0.3,0.5,0.5,0.6c0.3,0.8,0.5,1.3,0.5,1.7c0.1,1.2,1,2.4,2.1,3c0,0,1.4,0.8,3.4,0.7c0.1,0,0.1,0,0.1,0
			c0.9-0.1,1.4-0.5,1.9-0.7c0.1-0.1,1-0.5,1.5-0.8C59.7,15.9,60.2,15.8,61.7,15.2z"/>
		
			<radialGradient id="SVGID_11_" cx="1427.5262" cy="2182.8657" r="8.6509" fx="1430.8029" fy="2185.5588" gradientTransform="matrix(0.4394 0 0 0.3895 -572.0153 -838.5005)" gradientUnits="userSpaceOnUse">
			<stop  offset="0" style="stop-color:#72C169"/>
			<stop  offset="0.3078" style="stop-color:#098040"/>
			<stop  offset="0.4732" style="stop-color:#0B8040"/>
			<stop  offset="1" style="stop-color:#133F1E"/>
		</radialGradient>
		<path class="st21" d="M54.4,15.4c-1.2-0.1-2.8-1-3-2.7c-0.1-1,0.2-2,0.3-2.2c0.1-0.2,0.2-0.6,0.6-1c0.3-0.3,0.6-0.6,0.9-0.8
			c0.1-0.1,0.6-0.3,1-0.6c0.3-0.1,1.4-0.5,2.6-0.1c0.1,0,2,0.7,2.2,2.6c0,0.3,0.1,1.3-0.5,2.4c-0.7,1.3-1.7,1.7-2.1,2
			C55.5,15.5,54.7,15.4,54.4,15.4z"/>
		<path class="st3" d="M51.9,17.8c0.2,0.1,0.6,0.2,0.6,0.3s-0.3,0.1-0.3,0.1c-0.7,0.1-1.6-0.9-2.1-1.4c-0.2-0.2-0.3-0.5-0.5-0.6
			c0,0-0.1-0.1-0.1-0.3c-0.1-0.1-0.1-0.2-0.1-0.3c0,0,0-0.1,0-0.2c0.1,0,0.1,0,0.2,0.1c0.1,0.1,0.1,0.1,0.1,0.1
			c0.3,0.5,0.8,1.4,1.4,1.7C51.3,17.6,51.5,17.7,51.9,17.8z"/>
		<path class="st4" d="M51.9,17.4"/>
		<path class="st5" d="M54.5,14.8c0.7-0.1,0.9-0.7,1.4-0.6c0,0,0.3,0.1,0.3,0.3c0,0.1,0,0.1,0,0.2c0,0-0.1,0.1-0.2,0.2
			c-0.2,0.1-0.5,0.1-0.8,0.1c-0.3,0-0.6,0-0.7,0c-0.8-0.1-1.4-0.5-1.4-0.5c-0.9-0.6-1.3-1.4-1.4-1.9c0-0.1,0-0.3,0.1-0.5
			c0.1-0.1,0.2-0.1,0.3-0.1c0.2,0.1,0,0.8,0.3,1.5c0.1,0.2,0.3,0.3,0.6,0.6C53.2,14.5,53.8,14.9,54.5,14.8z"/>
		<path class="st6" d="M58.1,9.1c0,0.1,0.2,0.3,0.1,0.6c-0.1,0.2-0.6,0.2-0.8,0.2c-0.6,0-0.7-0.2-1.4-0.5c-0.1,0-0.6-0.1-1-0.1
			c-0.8,0.1-1.2,0.5-1.5,0.3c-0.2-0.1-0.3-0.5-0.2-0.7c0.1-0.3,0.5-0.5,1-0.6c0.5-0.1,0.9-0.3,1.7-0.2C56.6,8.4,57.6,8.4,58.1,9.1z"
			/>
		<path class="st6" d="M58.8,10v0.1c-0.1,0.1-0.5,0.1-0.6,0c0-0.1,0.1-0.3,0.3-0.3C58.7,9.8,58.8,9.9,58.8,10z"/>
		<path class="st7" d="M60.6,7.2c0.1,0.3,0.1,0.8-0.1,0.9c-0.2,0.1-0.7-0.1-1.2-0.5c-0.6-0.3-1.4-0.8-2.1-0.9
			c-1.2-0.3-2.9-0.1-3.2-0.3c-0.1-0.1-0.1-0.2-0.1-0.2c0-0.1-0.1-0.2-0.1-0.5c0,0,0-0.1,0.2-0.2c0.5-0.3,1.4-0.3,1.4-0.3
			c0.8,0,1.3,0,1.7,0.1c1.3,0.2,2.1,0.7,2.3,0.8C59.9,6.3,60.4,6.7,60.6,7.2z"/>
		<path class="st7" d="M61.6,8.6c-0.1,0.2-0.5,0.3-0.7,0.2c-0.3-0.2-0.2-0.9,0-1C61.1,7.7,61.7,8.3,61.6,8.6z"/>
	</g>
</g>
<g>
	<g>
		<g>
			<g>
				
					<image style="overflow:visible;opacity:0.1;enable-background:new    ;" width="275" height="267" xlink:href="36948CB564FABF46.png"  transform="matrix(9.500097e-02 0 0 9.500097e-02 58.6183 -3.3246)">
				</image>
				<g>
					
						<linearGradient id="SVGID_12_" gradientUnits="userSpaceOnUse" x1="65.6094" y1="1023.1357" x2="76.7135" y2="1030.9109" gradientTransform="matrix(1 0 0 1 0 -1018)">
						<stop  offset="0" style="stop-color:#79C588"/>
						<stop  offset="0.171" style="stop-color:#006B3C"/>
						<stop  offset="1" style="stop-color:#7DC353"/>
					</linearGradient>
					<path class="st22" d="M78.2,8.3c0.1,0.4,0.1,1.1,0,1.7c-0.1,0.8-0.4,1.2-0.8,1.7c-0.2,0.3-0.6,1-1.3,1.6
						c-0.4,0.4-1.8,1.7-4,2.2c-0.3,0-3.8,0.6-6-1.7c-1.2-1.3-1.4-2.7-1.5-3.6c-0.1-0.8-0.4-2.3,0.3-3.9c1.1-2.6,3.8-3.4,4.2-3.7
						c0,0,1.8-0.5,3.8-0.1c0.8,0.1,1.4,0.4,1.5,0.5c0.3,0.1,0.6,0.3,1.1,0.6c0.3,0.2,0.6,0.5,1.2,1.4C77.5,6.2,78,7.1,78.2,8.3z"/>
				</g>
			</g>
		</g>
		<path class="st1" d="M76.9,11.9c0.4-0.1,0.4-0.1,0.5-0.1c0,0.1-0.2,0.3-0.6,0.9c-0.2,0.2-0.4,0.4-0.6,0.8
			c-0.1,0.1-0.4,0.4-0.8,0.6c-0.4,0.3-1,0.6-1.6,1c-0.4,0.2-1.1,0.4-1.6,0.5c-0.1,0-1.1,0.1-2.3,0c-0.6-0.1-1.4-0.2-2.2-0.6
			c-0.3-0.1-0.6-0.3-1-0.5c-0.3-0.2-0.5-0.4-0.8-0.6c-0.3-0.3-0.5-0.6-0.6-1c-0.1-0.2-0.3-0.4-0.3-0.8c-0.1-0.3-0.2-0.5-0.2-0.8
			c-0.1-0.2-0.1-0.4-0.1-0.6c0-0.1,0-0.3-0.1-0.4c-0.1-0.6-0.1-0.8-0.1-1c0-0.2,0-0.4,0.1-0.4c0.1-0.1,0.3,0,0.4,0.1
			c0.3,0.1,0.3,0.4,0.4,0.5c0.3,0.8,0.4,1.2,0.4,1.6c0.1,1.1,1,2.3,1.9,2.8c0,0,1.3,0.8,3.1,0.6c0.1,0,0.1,0,0.1,0
			c0.9-0.1,1.3-0.4,1.7-0.6c0.1-0.1,1-0.4,1.4-0.8C75.1,12.6,75.5,12.5,76.9,11.9z"/>
		
			<radialGradient id="SVGID_13_" cx="1463.2747" cy="2175.0022" r="8.0329" fx="1466.3171" fy="2177.5029" gradientTransform="matrix(0.4394 0 0 0.3895 -572.0153 -838.5005)" gradientUnits="userSpaceOnUse">
			<stop  offset="0" style="stop-color:#72C169"/>
			<stop  offset="0.3078" style="stop-color:#098040"/>
			<stop  offset="0.4732" style="stop-color:#0B8040"/>
			<stop  offset="1" style="stop-color:#133F1E"/>
		</radialGradient>
		<path class="st23" d="M70.2,12c-1.1-0.1-2.6-1-2.8-2.5c-0.1-1,0.2-1.8,0.3-2c0.1-0.2,0.2-0.5,0.5-1c0.3-0.3,0.5-0.5,0.9-0.8
			c0.1-0.1,0.5-0.3,1-0.5c0.3-0.1,1.3-0.4,2.4-0.1c0.1,0,1.8,0.6,2,2.4c0,0.3,0.1,1.2-0.4,2.3c-0.6,1.2-1.6,1.6-1.9,1.8
			C71.2,12.1,70.5,12,70.2,12z"/>
		<path class="st3" d="M67.9,14.3c0.2,0.1,0.5,0.2,0.5,0.3s-0.3,0.1-0.3,0.1c-0.6,0.1-1.5-0.9-1.9-1.3c-0.2-0.2-0.3-0.4-0.4-0.5
			c0,0-0.1-0.1-0.1-0.3c-0.1-0.1-0.1-0.2-0.1-0.3c0,0,0-0.1,0-0.2c0.1,0,0.1,0,0.2,0.1c0.1,0.1,0.1,0.1,0.1,0.1
			c0.3,0.4,0.8,1.3,1.3,1.6C67.2,14.1,67.5,14.2,67.9,14.3z"/>
		<path class="st4" d="M67.9,14"/>
		<path class="st5" d="M70.3,11.5c0.6-0.1,0.9-0.6,1.3-0.5c0,0,0.3,0.1,0.3,0.3c0,0.1,0,0.1,0,0.2c0,0-0.1,0.1-0.2,0.2
			c-0.2,0.1-0.4,0.1-0.8,0.1c-0.3,0-0.5,0-0.6,0c-0.8-0.1-1.3-0.4-1.3-0.4c-0.9-0.5-1.2-1.3-1.3-1.7c0-0.1,0-0.3,0.1-0.4
			c0.1-0.1,0.2-0.1,0.3-0.1c0.2,0.1,0,0.8,0.3,1.4c0.1,0.2,0.3,0.3,0.5,0.5C69.1,11.3,69.6,11.6,70.3,11.5z"/>
		<path class="st6" d="M73.6,6.2c0,0.1,0.2,0.3,0.1,0.5C73.6,7,73.2,7,73,7c-0.5,0-0.6-0.2-1.3-0.4c-0.1,0-0.5-0.1-1-0.1
			c-0.8,0.1-1.1,0.4-1.4,0.3c-0.2-0.1-0.3-0.4-0.2-0.6c0.1-0.3,0.4-0.4,1-0.5c0.4-0.1,0.9-0.3,1.6-0.2C72.2,5.6,73.2,5.6,73.6,6.2z"
			/>
		<path class="st6" d="M74.2,7.1v0.1c-0.1,0.1-0.4,0.1-0.5,0c0-0.1,0.1-0.3,0.3-0.3C74.1,6.9,74.2,7,74.2,7.1z"/>
		<path class="st7" d="M76,4.5c0.1,0.3,0.1,0.8-0.1,0.9c-0.2,0.1-0.6-0.1-1.1-0.4c-0.5-0.3-1.3-0.8-1.9-0.9c-1.1-0.3-2.7-0.1-3-0.3
			c-0.1-0.1-0.1-0.2-0.1-0.2c0-0.1-0.1-0.2-0.1-0.4c0,0,0-0.1,0.2-0.2c0.4-0.3,1.3-0.3,1.3-0.3c0.8,0,1.2,0,1.6,0.1
			c1.2,0.2,1.9,0.6,2.2,0.8C75.3,3.6,75.7,4,76,4.5z"/>
		<path class="st7" d="M76.8,5.8C76.7,6,76.4,6.1,76.2,6c-0.3-0.2-0.2-0.9,0-1S76.9,5.5,76.8,5.8z"/>
	</g>
</g>
<g>
	<g>
		<g>
			<g>
				
					<image style="overflow:visible;opacity:0.1;enable-background:new    ;" width="275" height="267" xlink:href="36948CB564FABF46.png"  transform="matrix(8.769320e-02 0 0 8.769320e-02 74.9677 -0.3579)">
				</image>
				<g>
					
						<linearGradient id="SVGID_14_" gradientUnits="userSpaceOnUse" x1="81.421" y1="1025.4515" x2="91.671" y2="1032.6288" gradientTransform="matrix(1 0 0 1 0 -1018)">
						<stop  offset="0" style="stop-color:#79C588"/>
						<stop  offset="0.171" style="stop-color:#006B3C"/>
						<stop  offset="1" style="stop-color:#7DC353"/>
					</linearGradient>
					<path class="st24" d="M93.1,10.3c0.1,0.4,0.1,1,0,1.6c-0.1,0.7-0.4,1.1-0.7,1.6c-0.2,0.3-0.6,0.9-1.2,1.5
						c-0.4,0.4-1.7,1.6-3.7,2c-0.3,0-3.5,0.6-5.6-1.6c-1.1-1.2-1.3-2.5-1.4-3.3c-0.1-0.7-0.4-2.1,0.3-3.6c1-2.4,3.5-3.2,3.9-3.4
						c0,0,1.7-0.5,3.5-0.1c0.7,0.1,1.3,0.4,1.4,0.5c0.3,0.1,0.6,0.3,1,0.6c0.3,0.2,0.6,0.5,1.1,1.3C92.4,8.4,92.9,9.2,93.1,10.3z"/>
				</g>
			</g>
		</g>
		<path class="st1" d="M91.9,13.7c0.4-0.1,0.4-0.1,0.5-0.1c0,0.1-0.2,0.3-0.6,0.8c-0.2,0.2-0.4,0.4-0.6,0.7
			c-0.1,0.1-0.4,0.4-0.7,0.6c-0.4,0.3-0.9,0.6-1.5,0.9c-0.4,0.2-1,0.4-1.5,0.5c-0.1,0-1,0.1-2.1,0c-0.6-0.1-1.3-0.2-2-0.6
			c-0.3-0.1-0.6-0.3-0.9-0.5s-0.5-0.4-0.7-0.6c-0.3-0.3-0.5-0.6-0.6-0.9c-0.1-0.2-0.3-0.4-0.3-0.7c-0.1-0.3-0.2-0.5-0.2-0.7
			c-0.1-0.2-0.1-0.4-0.1-0.6c0-0.1,0-0.3-0.1-0.4c-0.1-0.6-0.1-0.7-0.1-0.9s0-0.4,0.1-0.4c0.1-0.1,0.3,0,0.4,0.1
			c0.3,0.1,0.3,0.4,0.4,0.5c0.3,0.7,0.4,1.1,0.4,1.5c0.1,1,0.9,2.1,1.8,2.6c0,0,1.2,0.7,2.9,0.6c0.1,0,0.1,0,0.1,0
			c0.8-0.1,1.2-0.4,1.6-0.6c0.1-0.1,0.9-0.4,1.3-0.7C90.2,14.3,90.6,14.2,91.9,13.7z"/>
		
			<radialGradient id="SVGID_15_" cx="1498.3287" cy="2180.2715" r="7.415" fx="1501.1372" fy="2182.5798" gradientTransform="matrix(0.4394 0 0 0.3895 -572.0153 -838.5005)" gradientUnits="userSpaceOnUse">
			<stop  offset="0" style="stop-color:#72C169"/>
			<stop  offset="0.3078" style="stop-color:#098040"/>
			<stop  offset="0.4732" style="stop-color:#0B8040"/>
			<stop  offset="1" style="stop-color:#133F1E"/>
		</radialGradient>
		<path class="st25" d="M85.6,13.8c-1-0.1-2.4-0.9-2.6-2.3c-0.1-0.9,0.2-1.7,0.3-1.9c0.1-0.2,0.2-0.5,0.5-0.9
			c0.3-0.3,0.5-0.5,0.8-0.7c0.1-0.1,0.5-0.3,0.9-0.5c0.3-0.1,1.2-0.4,2.2-0.1c0.1,0,1.7,0.6,1.9,2.2c0,0.3,0.1,1.1-0.4,2.1
			c-0.6,1.1-1.5,1.5-1.8,1.7C86.6,13.9,85.9,13.8,85.6,13.8z"/>
		<path class="st3" d="M83.5,15.9c0.2,0.1,0.5,0.2,0.5,0.3c0,0.1-0.3,0.1-0.3,0.1c-0.6,0.1-1.4-0.8-1.8-1.2
			c-0.2-0.2-0.3-0.4-0.4-0.5c0,0-0.1-0.1-0.1-0.3c-0.1-0.1-0.1-0.2-0.1-0.3c0,0,0-0.1,0-0.2c0.1,0,0.1,0,0.2,0.1
			c0.1,0.1,0.1,0.1,0.1,0.1c0.3,0.4,0.7,1.2,1.2,1.5C82.9,15.7,83.1,15.8,83.5,15.9z"/>
		<path class="st4" d="M83.5,15.6"/>
		<path class="st5" d="M85.7,13.3c0.6-0.1,0.8-0.6,1.2-0.5c0,0,0.3,0.1,0.3,0.3c0,0.1,0,0.1,0,0.2c0,0-0.1,0.1-0.2,0.2
			c-0.2,0.1-0.4,0.1-0.7,0.1c-0.3,0-0.5,0-0.6,0c-0.7-0.1-1.2-0.4-1.2-0.4c-0.8-0.5-1.1-1.2-1.2-1.6c0-0.1,0-0.3,0.1-0.4
			c0.1-0.1,0.2-0.1,0.3-0.1c0.2,0.1,0,0.7,0.3,1.3c0.1,0.2,0.3,0.3,0.5,0.5C84.6,13.1,85.1,13.4,85.7,13.3z"/>
		<path class="st6" d="M88.8,8.4c0,0.1,0.2,0.3,0.1,0.5c-0.1,0.2-0.5,0.2-0.7,0.2c-0.5,0-0.6-0.2-1.2-0.4c-0.1,0-0.5-0.1-0.9-0.1
			c-0.7,0.1-1,0.4-1.3,0.3c-0.2-0.1-0.3-0.4-0.2-0.6C84.7,8.1,85,8,85.5,7.9c0.4-0.1,0.8-0.3,1.5-0.2C87.5,7.9,88.4,7.9,88.8,8.4z"
			/>
		<path class="st6" d="M89.4,9.2L89.4,9.2c-0.1,0.2-0.4,0.2-0.5,0.1C88.9,9.2,89,9,89.2,9C89.3,9,89.4,9.1,89.4,9.2z"/>
		<path class="st7" d="M91,6.9c0.1,0.3,0.1,0.7-0.1,0.8c-0.2,0.1-0.6-0.1-1-0.4c-0.5-0.3-1.2-0.7-1.8-0.8c-1-0.3-2.5-0.1-2.8-0.3
			C85.2,6.1,85.2,6,85.2,6c0-0.1-0.1-0.2-0.1-0.4c0,0,0-0.1,0.2-0.2c0.4-0.3,1.2-0.3,1.2-0.3c0.7,0,1.1,0,1.5,0.1
			c1.1,0.2,1.8,0.6,2,0.7C90.4,6.1,90.8,6.4,91,6.9z"/>
		<path class="st7" d="M91.8,8.1c-0.1,0.2-0.4,0.3-0.6,0.2c-0.3-0.2-0.2-0.8,0-0.9C91.4,7.3,91.9,7.8,91.8,8.1z"/>
	</g>
</g>
<g>
	<g>
		<g>
			<g>
				
					<image style="overflow:visible;opacity:0.1;enable-background:new    ;" width="275" height="267" xlink:href="36948CB564FABF46.png"  transform="matrix(8.038543e-02 0 0 8.038543e-02 90.9908 2.6728)">
				</image>
				<g>
					
						<linearGradient id="SVGID_16_" gradientUnits="userSpaceOnUse" x1="96.9063" y1="1027.8315" x2="106.3021" y2="1034.4106" gradientTransform="matrix(1 0 0 1 0 -1018)">
						<stop  offset="0" style="stop-color:#79C588"/>
						<stop  offset="0.171" style="stop-color:#006B3C"/>
						<stop  offset="1" style="stop-color:#7DC353"/>
					</linearGradient>
					<path class="st26" d="M107.6,12.5c0.1,0.4,0.1,0.9,0,1.5c-0.1,0.6-0.4,1-0.6,1.5c-0.2,0.3-0.5,0.8-1.1,1.4
						c-0.4,0.4-1.5,1.5-3.4,1.8c-0.3,0-3.2,0.5-5.1-1.5c-1-1.1-1.2-2.3-1.3-3c-0.1-0.6-0.4-1.9,0.3-3.3c0.9-2.2,3.2-2.9,3.6-3.1
						c0,0,1.5-0.5,3.2-0.1c0.6,0.1,1.2,0.4,1.3,0.5c0.3,0.1,0.5,0.3,0.9,0.5c0.3,0.2,0.5,0.5,1,1.2
						C106.9,10.7,107.4,11.5,107.6,12.5z"/>
				</g>
			</g>
		</g>
		<path class="st1" d="M106.5,15.6c0.4-0.1,0.4-0.1,0.5-0.1c0,0.1-0.2,0.3-0.5,0.7c-0.2,0.2-0.4,0.4-0.5,0.6
			c-0.1,0.1-0.4,0.4-0.6,0.5c-0.4,0.3-0.8,0.5-1.4,0.8c-0.4,0.2-0.9,0.4-1.4,0.5c-0.1,0-0.9,0.1-1.9,0c-0.5-0.1-1.2-0.2-1.8-0.5
			c-0.3-0.1-0.5-0.3-0.8-0.5c-0.3-0.2-0.5-0.4-0.6-0.5c-0.3-0.3-0.5-0.5-0.5-0.8c-0.1-0.2-0.3-0.4-0.3-0.6c-0.1-0.3-0.2-0.5-0.2-0.6
			c-0.1-0.2-0.1-0.4-0.1-0.5c0-0.1,0-0.3-0.1-0.4C96,13.6,96,13.5,96,13.3s0-0.4,0.1-0.4c0.1-0.1,0.3,0,0.4,0.1
			c0.3,0.1,0.3,0.4,0.4,0.5c0.3,0.6,0.4,1,0.4,1.4c0.1,0.9,0.8,1.9,1.6,2.4c0,0,1.1,0.6,2.6,0.5c0.1,0,0.1,0,0.1,0
			c0.7-0.1,1.1-0.4,1.5-0.5c0.1-0.1,0.8-0.4,1.2-0.6C104.9,16.1,105.3,16,106.5,15.6z"/>
		
			<radialGradient id="SVGID_17_" cx="1532.6399" cy="2185.7051" r="6.7971" fx="1535.2144" fy="2187.821" gradientTransform="matrix(0.4394 0 0 0.3895 -572.0153 -838.5005)" gradientUnits="userSpaceOnUse">
			<stop  offset="0" style="stop-color:#72C169"/>
			<stop  offset="0.3078" style="stop-color:#098040"/>
			<stop  offset="0.4732" style="stop-color:#0B8040"/>
			<stop  offset="1" style="stop-color:#133F1E"/>
		</radialGradient>
		<path class="st27" d="M100.7,15.7c-0.9-0.1-2.2-0.8-2.4-2.1c-0.1-0.8,0.2-1.5,0.3-1.7c0.1-0.2,0.2-0.5,0.5-0.8
			c0.3-0.3,0.5-0.5,0.7-0.6c0.1-0.1,0.5-0.3,0.8-0.5c0.3-0.1,1.1-0.4,2-0.1c0.1,0,1.5,0.5,1.7,2c0,0.3,0.1,1-0.4,1.9
			c-0.5,1-1.4,1.4-1.6,1.5C101.7,15.8,101,15.7,100.7,15.7z"/>
		<path class="st3" d="M98.8,17.6c0.2,0.1,0.5,0.2,0.5,0.3S99,17.9,99,17.9c-0.5,0.1-1.3-0.7-1.6-1.1c-0.2-0.2-0.3-0.4-0.4-0.5
			c0,0-0.1-0.1-0.1-0.3c-0.1-0.1-0.1-0.2-0.1-0.3c0,0,0-0.1,0-0.2c0.1,0,0.1,0,0.2,0.1c0.1,0.1,0.1,0.1,0.1,0.1
			c0.3,0.4,0.6,1.1,1.1,1.4C98.3,17.4,98.5,17.5,98.8,17.6z"/>
		<path class="st4" d="M98.8,17.3"/>
		<path class="st5" d="M100.8,15.2c0.5-0.1,0.7-0.5,1.1-0.5c0,0,0.3,0.1,0.3,0.3c0,0.1,0,0.1,0,0.2c0,0-0.1,0.1-0.2,0.2
			c-0.2,0.1-0.4,0.1-0.6,0.1c-0.3,0-0.5,0-0.5,0c-0.6-0.1-1.1-0.4-1.1-0.4c-0.7-0.5-1-1.1-1.1-1.5c0-0.1,0-0.3,0.1-0.4
			c0.1-0.1,0.2-0.1,0.3-0.1c0.2,0.1,0,0.6,0.3,1.2c0.1,0.2,0.3,0.3,0.5,0.5C99.8,15,100.3,15.3,100.8,15.2z"/>
		<path class="st6" d="M103.7,10.7c0,0.1,0.2,0.3,0.1,0.5s-0.5,0.2-0.6,0.2c-0.5,0-0.5-0.2-1.1-0.4c-0.1,0-0.5-0.1-0.8-0.1
			c-0.6,0.1-0.9,0.4-1.2,0.3c-0.2-0.1-0.3-0.4-0.2-0.5c0.1-0.3,0.4-0.4,0.8-0.5c0.4-0.1,0.7-0.3,1.4-0.2
			C102.5,10.2,103.3,10.2,103.7,10.7z"/>
		<path class="st6" d="M104.2,11.5L104.2,11.5c-0.1,0.2-0.4,0.2-0.5,0.1c0-0.1,0.1-0.3,0.3-0.3C104.1,11.3,104.2,11.4,104.2,11.5z"
			/>
		<path class="st7" d="M105.7,9.3c0.1,0.3,0.1,0.6-0.1,0.7c-0.2,0.1-0.5-0.1-0.9-0.4c-0.5-0.3-1.1-0.6-1.6-0.7
			c-0.9-0.3-2.3-0.1-2.6-0.3c-0.1-0.1-0.1-0.2-0.1-0.2c0-0.1-0.1-0.2-0.1-0.4c0,0,0-0.1,0.2-0.2c0.4-0.3,1.1-0.3,1.1-0.3
			c0.6,0,1,0,1.4,0.1c1,0.2,1.6,0.5,1.8,0.6C105.1,8.6,105.5,8.8,105.7,9.3z"/>
		<path class="st7" d="M106.4,10.4c-0.1,0.2-0.4,0.3-0.5,0.2c-0.3-0.2-0.2-0.7,0-0.8C106,9.7,106.5,10.1,106.4,10.4z"/>
	</g>
</g>
<g>
	<g>
		<g>
			<g>
				
					<image style="overflow:visible;opacity:0.1;enable-background:new    ;" width="275" height="267" xlink:href="36948CB564FABF46.png"  transform="matrix(7.307766e-02 0 0 7.307766e-02 103.9278 7.3838)">
				</image>
				<g>
					
						<linearGradient id="SVGID_18_" gradientUnits="userSpaceOnUse" x1="109.3055" y1="1031.8917" x2="117.8472" y2="1037.8727" gradientTransform="matrix(1 0 0 1 0 -1018)">
						<stop  offset="0" style="stop-color:#79C588"/>
						<stop  offset="0.171" style="stop-color:#006B3C"/>
						<stop  offset="1" style="stop-color:#7DC353"/>
					</linearGradient>
					<path class="st28" d="M119,16.3c0.1,0.3,0.1,0.8,0,1.3c-0.1,0.6-0.3,0.9-0.6,1.3c-0.2,0.2-0.5,0.7-1,1.2
						c-0.3,0.3-1.4,1.3-3.1,1.7c-0.2,0-2.9,0.5-4.6-1.3c-0.9-1-1.1-2.1-1.2-2.7c-0.1-0.6-0.3-1.7,0.2-3c0.8-2,2.9-2.7,3.2-2.8
						c0,0,1.4-0.4,2.9-0.1c0.6,0.1,1.1,0.3,1.2,0.4c0.2,0.1,0.5,0.2,0.8,0.5c0.2,0.2,0.5,0.4,0.9,1.1
						C118.4,14.7,118.8,15.4,119,16.3z"/>
				</g>
			</g>
		</g>
		<path class="st1" d="M118,19.1c0.3-0.1,0.3-0.1,0.4-0.1c0,0.1-0.2,0.2-0.5,0.7c-0.2,0.2-0.3,0.3-0.5,0.6c-0.1,0.1-0.3,0.3-0.6,0.5
			c-0.3,0.2-0.7,0.5-1.2,0.7c-0.3,0.2-0.8,0.3-1.2,0.4c-0.1,0-0.8,0.1-1.7,0c-0.5-0.1-1.1-0.2-1.7-0.5c-0.2-0.1-0.5-0.2-0.7-0.4
			c-0.2-0.2-0.4-0.3-0.6-0.5c-0.2-0.2-0.4-0.5-0.5-0.7c-0.1-0.2-0.2-0.3-0.2-0.6c-0.1-0.2-0.2-0.4-0.2-0.6c-0.1-0.2-0.1-0.3-0.1-0.5
			c0-0.1,0-0.2-0.1-0.3c-0.1-0.5-0.1-0.6-0.1-0.7s0-0.3,0.1-0.3c0.1-0.1,0.2,0,0.3,0.1c0.2,0.1,0.2,0.3,0.3,0.4
			c0.2,0.6,0.3,0.9,0.3,1.2c0.1,0.8,0.7,1.7,1.5,2.2c0,0,1,0.6,2.4,0.5c0.1,0,0.1,0,0.1,0c0.7-0.1,1-0.3,1.3-0.5
			c0.1-0.1,0.7-0.3,1.1-0.6C116.6,19.6,116.9,19.5,118,19.1z"/>
		
			<radialGradient id="SVGID_19_" cx="1559.9276" cy="2195.4529" r="6.1792" fx="1562.2681" fy="2197.3765" gradientTransform="matrix(0.4394 0 0 0.3895 -572.0153 -838.5005)" gradientUnits="userSpaceOnUse">
			<stop  offset="0" style="stop-color:#72C169"/>
			<stop  offset="0.3078" style="stop-color:#098040"/>
			<stop  offset="0.4732" style="stop-color:#0B8040"/>
			<stop  offset="1" style="stop-color:#133F1E"/>
		</radialGradient>
		<path class="st29" d="M112.8,19.2c-0.8-0.1-2-0.7-2.2-1.9c-0.1-0.7,0.2-1.4,0.2-1.6c0.1-0.2,0.2-0.4,0.4-0.7
			c0.2-0.2,0.4-0.4,0.7-0.6c0.1-0.1,0.4-0.2,0.7-0.4c0.2-0.1,1-0.3,1.8-0.1c0.1,0,1.4,0.5,1.6,1.8c0,0.2,0.1,0.9-0.3,1.7
			c-0.5,0.9-1.2,1.2-1.5,1.4C113.6,19.3,113,19.2,112.8,19.2z"/>
		<path class="st3" d="M111.1,20.9c0.2,0.1,0.4,0.2,0.4,0.2c0,0.1-0.2,0.1-0.2,0.1c-0.5,0.1-1.2-0.7-1.5-1c-0.2-0.2-0.2-0.3-0.3-0.4
			c0,0-0.1-0.1-0.1-0.2c-0.1-0.1-0.1-0.2-0.1-0.2c0,0,0-0.1,0-0.2c0.1,0,0.1,0,0.2,0.1c0.1,0.1,0.1,0.1,0.1,0.1c0.2,0.3,0.6,1,1,1.2
			C110.6,20.8,110.7,20.9,111.1,20.9z"/>
		<path class="st4" d="M111.1,20.7"/>
		<path class="st5" d="M112.9,18.8c0.5-0.1,0.7-0.5,1-0.4c0,0,0.2,0.1,0.2,0.2c0,0.1,0,0.1,0,0.2c0,0-0.1,0.1-0.2,0.2
			c-0.2,0.1-0.3,0.1-0.6,0.1c-0.2,0-0.4,0-0.5,0c-0.6-0.1-1-0.3-1-0.3c-0.7-0.4-0.9-1-1-1.3c0-0.1,0-0.2,0.1-0.3
			c0.1-0.1,0.2-0.1,0.2-0.1c0.2,0.1,0,0.6,0.2,1.1c0.1,0.2,0.2,0.2,0.4,0.4C112,18.6,112.4,18.9,112.9,18.8z"/>
		<path class="st6" d="M115.4,14.7c0,0.1,0.2,0.2,0.1,0.4s-0.4,0.2-0.6,0.2c-0.4,0-0.5-0.2-1-0.3c-0.1,0-0.4-0.1-0.7-0.1
			c-0.6,0.1-0.8,0.3-1.1,0.2c-0.2-0.1-0.2-0.3-0.2-0.5c0.1-0.2,0.3-0.3,0.7-0.4c0.3-0.1,0.7-0.2,1.2-0.2
			C114.4,14.2,115.1,14.2,115.4,14.7z"/>
		<path class="st6" d="M115.9,15.4L115.9,15.4c-0.1,0.2-0.3,0.2-0.4,0.1c0-0.1,0.1-0.2,0.2-0.2C115.9,15.2,115.9,15.3,115.9,15.4z"
			/>
		<path class="st7" d="M117.3,13.4c0.1,0.2,0.1,0.6-0.1,0.7c-0.2,0.1-0.5-0.1-0.8-0.3c-0.4-0.2-1-0.6-1.5-0.7
			c-0.8-0.2-2.1-0.1-2.3-0.2c-0.1-0.1-0.1-0.2-0.1-0.2c0-0.1-0.1-0.2-0.1-0.3c0,0,0-0.1,0.2-0.2c0.3-0.2,1-0.2,1-0.2
			c0.6,0,0.9,0,1.2,0.1c0.9,0.2,1.5,0.5,1.7,0.6C116.8,12.7,117.1,13,117.3,13.4z"/>
		<path class="st7" d="M117.9,14.4c-0.1,0.2-0.3,0.2-0.5,0.2c-0.2-0.2-0.2-0.7,0-0.7C117.6,13.7,118,14.1,117.9,14.4z"/>
	</g>
</g>
<g>
	<g>
		<g>
			<g>
				
					<image style="overflow:visible;opacity:0.1;enable-background:new    ;" width="275" height="267" xlink:href="36948CB564FABF46.png"  transform="matrix(6.576990e-02 0 0 6.576990e-02 116.1185 13.691)">
				</image>
				<g>
					
						<linearGradient id="SVGID_20_" gradientUnits="userSpaceOnUse" x1="120.9585" y1="1037.5481" x2="128.646" y2="1042.931" gradientTransform="matrix(1 0 0 1 0 -1018)">
						<stop  offset="0" style="stop-color:#79C588"/>
						<stop  offset="0.171" style="stop-color:#006B3C"/>
						<stop  offset="1" style="stop-color:#7DC353"/>
					</linearGradient>
					<path class="st30" d="M129.7,21.7c0.1,0.3,0.1,0.7,0,1.2c-0.1,0.5-0.3,0.8-0.5,1.2c-0.1,0.2-0.4,0.7-0.9,1.1
						c-0.3,0.3-1.3,1.2-2.8,1.5c-0.2,0-2.6,0.4-4.2-1.2c-0.8-0.9-1-1.9-1-2.5c-0.1-0.5-0.3-1.6,0.2-2.7c0.7-1.8,2.6-2.4,2.9-2.5
						c0,0,1.3-0.4,2.6-0.1c0.5,0.1,1,0.3,1,0.4c0.2,0.1,0.4,0.2,0.7,0.4c0.2,0.1,0.4,0.4,0.8,1C129.2,20.3,129.5,20.9,129.7,21.7z"
						/>
				</g>
			</g>
		</g>
		<path class="st1" d="M128.8,24.2c0.3-0.1,0.3-0.1,0.4-0.1c0,0.1-0.1,0.2-0.4,0.6c-0.1,0.1-0.3,0.3-0.4,0.5
			c-0.1,0.1-0.3,0.3-0.5,0.4c-0.3,0.2-0.7,0.4-1.1,0.7c-0.3,0.1-0.7,0.3-1.1,0.4c-0.1,0-0.7,0.1-1.6,0c-0.4-0.1-1-0.1-1.5-0.4
			c-0.2-0.1-0.4-0.2-0.7-0.4s-0.4-0.3-0.5-0.4c-0.2-0.2-0.4-0.4-0.4-0.7c-0.1-0.1-0.2-0.3-0.2-0.5c-0.1-0.2-0.1-0.4-0.1-0.5
			c-0.1-0.1-0.1-0.3-0.1-0.4c0-0.1,0-0.2-0.1-0.3c-0.1-0.4-0.1-0.5-0.1-0.7s0-0.3,0.1-0.3c0.1-0.1,0.2,0,0.3,0.1
			c0.2,0.1,0.2,0.3,0.3,0.4c0.2,0.5,0.3,0.8,0.3,1.1c0.1,0.7,0.7,1.6,1.3,1.9c0,0,0.9,0.5,2.2,0.4c0.1,0,0.1,0,0.1,0
			c0.6-0.1,0.9-0.3,1.2-0.4c0.1-0.1,0.7-0.3,1-0.5C127.5,24.7,127.8,24.6,128.8,24.2z"/>
		
			<radialGradient id="SVGID_21_" cx="1585.5171" cy="2209.2993" r="5.5613" fx="1587.6234" fy="2211.0308" gradientTransform="matrix(0.4394 0 0 0.3895 -572.0153 -838.5005)" gradientUnits="userSpaceOnUse">
			<stop  offset="0" style="stop-color:#72C169"/>
			<stop  offset="0.3078" style="stop-color:#098040"/>
			<stop  offset="0.4732" style="stop-color:#0B8040"/>
			<stop  offset="1" style="stop-color:#133F1E"/>
		</radialGradient>
		<path class="st31" d="M124.1,24.3c-0.7-0.1-1.8-0.7-1.9-1.7c-0.1-0.7,0.1-1.3,0.2-1.4c0.1-0.1,0.1-0.4,0.4-0.7
			c0.2-0.2,0.4-0.4,0.6-0.5c0.1-0.1,0.4-0.2,0.7-0.4c0.2-0.1,0.9-0.3,1.6-0.1c0.1,0,1.3,0.4,1.4,1.6c0,0.2,0.1,0.8-0.3,1.6
			c-0.4,0.8-1.1,1.1-1.3,1.3C124.8,24.4,124.3,24.3,124.1,24.3z"/>
		<path class="st3" d="M122.5,25.9c0.1,0.1,0.4,0.1,0.4,0.2s-0.2,0.1-0.2,0.1c-0.4,0.1-1-0.6-1.3-0.9c-0.1-0.1-0.2-0.3-0.3-0.4
			c0,0-0.1-0.1-0.1-0.2c-0.1-0.1-0.1-0.1-0.1-0.2c0,0,0-0.1,0-0.1c0.1,0,0.1,0,0.1,0.1s0.1,0.1,0.1,0.1c0.2,0.3,0.5,0.9,0.9,1.1
			C122.1,25.7,122.2,25.8,122.5,25.9z"/>
		<path class="st4" d="M122.5,25.7"/>
		<path class="st5" d="M124.2,23.9c0.4-0.1,0.6-0.4,0.9-0.4c0,0,0.2,0.1,0.2,0.2c0,0.1,0,0.1,0,0.1c0,0-0.1,0.1-0.1,0.1
			c-0.1,0.1-0.3,0.1-0.5,0.1c-0.2,0-0.4,0-0.4,0c-0.5-0.1-0.9-0.3-0.9-0.3c-0.6-0.4-0.8-0.9-0.9-1.2c0-0.1,0-0.2,0.1-0.3
			c0.1-0.1,0.1-0.1,0.2-0.1c0.1,0.1,0,0.5,0.2,1c0.1,0.1,0.2,0.2,0.4,0.4C123.4,23.8,123.7,24,124.2,23.9z"/>
		<path class="st6" d="M126.5,20.3c0,0.1,0.1,0.2,0.1,0.4s-0.4,0.1-0.5,0.1c-0.4,0-0.4-0.1-0.9-0.3c-0.1,0-0.4-0.1-0.7-0.1
			c-0.5,0.1-0.7,0.3-1,0.2c-0.1-0.1-0.2-0.3-0.1-0.4c0.1-0.2,0.3-0.3,0.7-0.4c0.3-0.1,0.6-0.2,1.1-0.1
			C125.5,19.8,126.2,19.8,126.5,20.3z"/>
		<path class="st6" d="M126.9,20.9L126.9,20.9c-0.1,0.1-0.3,0.1-0.4,0.1c0-0.1,0.1-0.2,0.2-0.2C126.9,20.7,126.9,20.8,126.9,20.9z"
			/>
		<path class="st7" d="M128.1,19.1c0.1,0.2,0.1,0.5-0.1,0.6c-0.1,0.1-0.4-0.1-0.7-0.3c-0.4-0.2-0.9-0.5-1.3-0.6
			c-0.7-0.2-1.9-0.1-2.1-0.2c-0.1-0.1-0.1-0.1-0.1-0.1c0-0.1-0.1-0.1-0.1-0.3c0,0,0-0.1,0.1-0.1c0.3-0.2,0.9-0.2,0.9-0.2
			c0.5,0,0.8,0,1.1,0.1c0.8,0.1,1.3,0.4,1.5,0.5C127.7,18.5,128,18.7,128.1,19.1z"/>
		<path class="st7" d="M128.7,20c-0.1,0.1-0.3,0.2-0.4,0.1c-0.2-0.1-0.1-0.6,0-0.7S128.8,19.8,128.7,20z"/>
	</g>
</g>
<g>
	<g>
		<g>
			<g>
				
					<image style="overflow:visible;opacity:0.1;enable-background:new    ;" width="275" height="267" xlink:href="36948CB564FABF46.png"  transform="matrix(5.846213e-02 0 0 5.846213e-02 126.1667 20.1693)">
				</image>
				<g>
					
						<linearGradient id="SVGID_22_" gradientUnits="userSpaceOnUse" x1="130.4689" y1="1043.3756" x2="137.3022" y2="1048.1604" gradientTransform="matrix(1 0 0 1 0 -1018)">
						<stop  offset="0" style="stop-color:#79C588"/>
						<stop  offset="0.171" style="stop-color:#006B3C"/>
						<stop  offset="1" style="stop-color:#7DC353"/>
					</linearGradient>
					<path class="st32" d="M138.2,27.3c0.1,0.3,0.1,0.7,0,1.1c-0.1,0.5-0.3,0.7-0.5,1.1c-0.1,0.2-0.4,0.6-0.8,1
						c-0.3,0.3-1.1,1.1-2.5,1.3c-0.2,0-2.3,0.4-3.7-1.1c-0.7-0.8-0.9-1.7-0.9-2.2c-0.1-0.5-0.3-1.4,0.2-2.4c0.7-1.6,2.3-2.1,2.6-2.3
						c0,0,1.1-0.3,2.3-0.1c0.5,0.1,0.9,0.3,0.9,0.3c0.2,0.1,0.4,0.2,0.7,0.4c0.2,0.1,0.4,0.3,0.7,0.9
						C137.8,26,138.1,26.6,138.2,27.3z"/>
				</g>
			</g>
		</g>
		<path class="st1" d="M137.4,29.6c0.3-0.1,0.3-0.1,0.3-0.1c0,0.1-0.1,0.2-0.4,0.5c-0.1,0.1-0.3,0.3-0.4,0.5
			c-0.1,0.1-0.3,0.3-0.5,0.4c-0.3,0.2-0.6,0.4-1,0.6c-0.3,0.1-0.7,0.3-1,0.3c-0.1,0-0.7,0.1-1.4,0c-0.4-0.1-0.9-0.1-1.3-0.4
			c-0.2-0.1-0.4-0.2-0.6-0.3c-0.2-0.1-0.3-0.3-0.5-0.4c-0.2-0.2-0.3-0.4-0.4-0.6c-0.1-0.1-0.2-0.3-0.2-0.5c-0.1-0.2-0.1-0.3-0.1-0.5
			c-0.1-0.1-0.1-0.3-0.1-0.4c0-0.1,0-0.2-0.1-0.3c-0.1-0.4-0.1-0.5-0.1-0.6c0-0.1,0-0.3,0.1-0.3c0.1-0.1,0.2,0,0.3,0.1
			c0.2,0.1,0.2,0.3,0.3,0.3c0.2,0.5,0.3,0.7,0.3,1c0.1,0.7,0.6,1.4,1.2,1.7c0,0,0.8,0.5,1.9,0.4c0.1,0,0.1,0,0.1,0
			c0.5-0.1,0.8-0.3,1.1-0.4c0.1-0.1,0.6-0.3,0.9-0.5C136.3,29.9,136.6,29.9,137.4,29.6z"/>
		
			<radialGradient id="SVGID_23_" cx="1606.2301" cy="2223.5852" r="4.9433" fx="1608.1024" fy="2225.1243" gradientTransform="matrix(0.4394 0 0 0.3895 -572.0153 -838.5005)" gradientUnits="userSpaceOnUse">
			<stop  offset="0" style="stop-color:#72C169"/>
			<stop  offset="0.3078" style="stop-color:#098040"/>
			<stop  offset="0.4732" style="stop-color:#0B8040"/>
			<stop  offset="1" style="stop-color:#133F1E"/>
		</radialGradient>
		<path class="st33" d="M133.3,29.6c-0.7-0.1-1.6-0.6-1.7-1.5c-0.1-0.6,0.1-1.1,0.2-1.3c0.1-0.1,0.1-0.3,0.3-0.6
			c0.2-0.2,0.3-0.3,0.5-0.5c0.1-0.1,0.3-0.2,0.6-0.3c0.2-0.1,0.8-0.3,1.5-0.1c0.1,0,1.1,0.4,1.3,1.5c0,0.2,0.1,0.7-0.3,1.4
			c-0.4,0.7-1,1-1.2,1.1C133.9,29.7,133.5,29.6,133.3,29.6z"/>
		<path class="st3" d="M131.9,31c0.1,0.1,0.3,0.1,0.3,0.2s-0.2,0.1-0.2,0.1c-0.4,0.1-0.9-0.5-1.2-0.8c-0.1-0.1-0.2-0.3-0.3-0.3
			c0,0-0.1-0.1-0.1-0.2c-0.1-0.1-0.1-0.1-0.1-0.2c0,0,0-0.1,0-0.1c0.1,0,0.1,0,0.1,0.1c0.1,0.1,0.1,0.1,0.1,0.1
			c0.2,0.3,0.5,0.8,0.8,1C131.5,30.9,131.6,30.9,131.9,31z"/>
		<path class="st4" d="M131.9,30.8"/>
		<path class="st5" d="M133.3,29.3c0.4-0.1,0.5-0.4,0.8-0.3c0,0,0.2,0.1,0.2,0.2c0,0.1,0,0.1,0,0.1c0,0-0.1,0.1-0.1,0.1
			c-0.1,0.1-0.3,0.1-0.5,0.1c-0.2,0-0.3,0-0.4,0c-0.5-0.1-0.8-0.3-0.8-0.3c-0.5-0.3-0.7-0.8-0.8-1.1c0-0.1,0-0.2,0.1-0.3
			c0.1-0.1,0.1-0.1,0.2-0.1c0.1,0.1,0,0.5,0.2,0.9c0.1,0.1,0.2,0.2,0.3,0.3C132.6,29.2,132.9,29.4,133.3,29.3z"/>
		<path class="st6" d="M135.4,26c0,0.1,0.1,0.2,0.1,0.3c-0.1,0.1-0.3,0.1-0.5,0.1c-0.3,0-0.4-0.1-0.8-0.3c-0.1,0-0.3-0.1-0.6-0.1
			c-0.5,0.1-0.7,0.3-0.9,0.2c-0.1-0.1-0.2-0.3-0.1-0.4c0.1-0.2,0.3-0.3,0.6-0.3c0.3-0.1,0.5-0.2,1-0.1
			C134.5,25.6,135.1,25.6,135.4,26z"/>
		<path class="st6" d="M135.8,26.6L135.8,26.6c-0.1,0.1-0.3,0.1-0.3,0.1c0-0.1,0.1-0.2,0.2-0.2C135.7,26.4,135.8,26.5,135.8,26.6z"
			/>
		<path class="st7" d="M136.8,25c0.1,0.2,0.1,0.5-0.1,0.5c-0.1,0.1-0.4-0.1-0.7-0.3c-0.3-0.2-0.8-0.5-1.2-0.5
			c-0.7-0.2-1.7-0.1-1.9-0.2c-0.1-0.1-0.1-0.1-0.1-0.1c0-0.1-0.1-0.1-0.1-0.3c0,0,0-0.1,0.1-0.1c0.3-0.2,0.8-0.2,0.8-0.2
			c0.5,0,0.7,0,1,0.1c0.7,0.1,1.2,0.4,1.3,0.5C136.4,24.4,136.7,24.6,136.8,25z"/>
		<path class="st7" d="M137.4,25.8c-0.1,0.1-0.3,0.2-0.4,0.1c-0.2-0.1-0.1-0.5,0-0.6C137.1,25.2,137.4,25.6,137.4,25.8z"/>
	</g>
</g>
</svg>
