<?xml version="1.0" encoding="utf-8"?>
<!-- Generator: Adobe Illustrator 25.3.1, SVG Export Plug-In . SVG Version: 6.00 Build 0)  -->
<svg version="1.1" id="Layer_1" xmlns="http://www.w3.org/2000/svg" xmlns:xlink="http://www.w3.org/1999/xlink" x="0px" y="0px"
	 viewBox="0 0 710.8 90" style="enable-background:new 0 0 710.8 90;" xml:space="preserve">
<style type="text/css">
	.st0{fill:url(#SVGID_1_);}
	.st1{opacity:0.2;fill:#F1F2F2;enable-background:new    ;}
	.st2{fill:url(#SVGID_2_);}
	.st3{opacity:0.67;fill:#FFFFFF;enable-background:new    ;}
	.st4{fill:#FFFFFF;}
	.st5{opacity:0.49;fill:#FFFFFF;enable-background:new    ;}
	.st6{opacity:0.48;fill:#FFFFFF;enable-background:new    ;}
	.st7{opacity:0.79;fill:#FFFFFF;enable-background:new    ;}
	.st8{opacity:0.62;}
	.st9{fill:url(#SVGID_3_);}
	.st10{fill:#606060;}
	.st11{font-family:'Avenir-Book';}
	.st12{font-size:51.8048px;}
	.st13{fill:#D5D7D8;}
	.st14{fill:url(#SVGID_4_);}
	.st15{fill:url(#SVGID_5_);}
	.st16{fill:url(#SVGID_6_);}
	.st17{fill:url(#SVGID_7_);}
	.st18{fill:url(#SVGID_8_);}
	.st19{fill:url(#SVGID_9_);}
	.st20{fill:url(#SVGID_10_);}
	.st21{fill:url(#SVGID_11_);}
	.st22{fill:url(#SVGID_12_);}
	.st23{fill:url(#SVGID_13_);}
	.st24{fill:url(#SVGID_14_);}
	.st25{fill:url(#SVGID_15_);}
	.st26{fill:url(#SVGID_16_);}
	.st27{fill:url(#SVGID_17_);}
	.st28{fill:url(#SVGID_18_);}
	.st29{fill:url(#SVGID_19_);}
	.st30{fill:url(#SVGID_20_);}
	.st31{fill:url(#SVGID_21_);}
	.st32{fill:url(#SVGID_22_);}
	.st33{fill:url(#SVGID_23_);}
</style>
<g>
	<g>
		<g>
			<g>
				
					<image style="overflow:visible;opacity:0.1;enable-background:new    ;" width="275" height="267" xlink:href="36948CB564FABF46.png"  transform="matrix(0.3273 0 0 0.3273 -33.2553 -140.2034)">
				</image>
				<g>
					
						<linearGradient id="SVGID_1_" gradientUnits="userSpaceOnUse" x1="-9.1715" y1="906.942" x2="29.0817" y2="933.7272" gradientTransform="matrix(1 0 0 1 0 -1018)">
						<stop  offset="0" style="stop-color:#79C588"/>
						<stop  offset="0.171" style="stop-color:#006B3C"/>
						<stop  offset="1" style="stop-color:#7DC353"/>
					</linearGradient>
					<path class="st0" d="M34.3-100.3c0.4,1.5,0.4,3.7,0,5.9c-0.4,2.6-1.5,4.1-2.6,5.9c-0.7,1.1-2.2,3.3-4.5,5.6
						c-1.5,1.5-6.3,5.9-13.7,7.4c-1.1,0-13,2.2-20.8-5.9c-4.1-4.5-4.8-9.3-5.2-12.2c-0.4-2.6-1.5-7.8,1.1-13.4
						c3.7-8.9,13-11.9,14.5-12.6c0,0,6.3-1.9,13-0.4c2.6,0.4,4.8,1.5,5.2,1.9c1.1,0.4,2.2,1.1,3.7,2.2c1.1,0.7,2.2,1.9,4.1,4.8
						C31.7-107.3,33.6-104.4,34.3-100.3z"/>
				</g>
			</g>
		</g>
		<path class="st1" d="M29.8-87.7c1.5-0.4,1.5-0.4,1.9-0.4c0,0.4-0.7,1.1-2.2,3c-0.7,0.7-1.5,1.5-2.2,2.6c-0.4,0.4-1.5,1.5-2.6,2.2
			c-1.5,1.1-3.3,2.2-5.6,3.3c-1.5,0.7-3.7,1.5-5.6,1.9c-0.4,0-3.7,0.4-7.8,0c-2.2-0.4-4.8-0.7-7.4-2.2c-1.1-0.4-2.2-1.1-3.3-1.9
			c-1.1-0.7-1.9-1.5-2.6-2.2c-1.1-1.1-1.9-2.2-2.2-3.3c-0.4-0.7-1.1-1.5-1.1-2.6c-0.4-1.1-0.7-1.9-0.7-2.6c-0.4-0.7-0.4-1.5-0.4-2.2
			c0-0.4,0-1.1-0.4-1.5c-0.4-2.2-0.4-2.6-0.4-3.3c0-0.7,0-1.5,0.4-1.5c0.4-0.4,1.1,0,1.5,0.4c1.1,0.4,1.1,1.5,1.5,1.9
			c1.1,2.6,1.5,4.1,1.5,5.6c0.4,3.7,3.3,7.8,6.7,9.6c0,0,4.5,2.6,10.8,2.2c0.4,0,0.4,0,0.4,0c3-0.4,4.5-1.5,5.9-2.2
			c0.4-0.4,3.3-1.5,4.8-2.6C23.5-85.5,25-85.8,29.8-87.7z"/>
		
			<radialGradient id="SVGID_2_" cx="1287.4895" cy="1698.5793" r="32.5896" fx="1299.833" fy="1708.7251" gradientTransform="matrix(0.3731 0 0 0.3307 -471.2029 -660.9634)" gradientUnits="userSpaceOnUse">
			<stop  offset="0" style="stop-color:#72C169"/>
			<stop  offset="0.3078" style="stop-color:#098040"/>
			<stop  offset="0.4732" style="stop-color:#0B8040"/>
			<stop  offset="1" style="stop-color:#133F1E"/>
		</radialGradient>
		<path class="st2" d="M6.5-87.3c-3.7-0.4-8.9-3.3-9.6-8.5c-0.4-3.3,0.7-6.3,1.1-7c0.4-0.7,0.7-1.9,1.9-3.3c1.1-1.1,1.9-1.9,3-2.6
			c0.4-0.4,1.9-1.1,3.3-1.9c1.1-0.4,4.5-1.5,8.2-0.4c0.4,0,6.3,2.2,7,8.2c0,1.1,0.4,4.1-1.5,7.8c-2.2,4.1-5.6,5.6-6.7,6.3
			C10.2-86.9,7.6-87.3,6.5-87.3z"/>
		<path class="st3" d="M-1.3-79.5c0.7,0.4,1.9,0.7,1.9,1.1S-0.6-78-0.6-78c-2.2,0.4-5.2-3-6.7-4.5C-8-83.2-8.4-84-8.7-84.3
			c0,0-0.4-0.4-0.4-1.1c-0.4-0.4-0.4-0.7-0.4-1.1c0,0,0-0.4,0-0.7c0.4,0,0.4,0,0.7,0.4c0.4,0.4,0.4,0.4,0.4,0.4
			c1.1,1.5,2.6,4.5,4.5,5.6C-3.5-80.3-2.8-79.9-1.3-79.5z"/>
		<path class="st4" d="M-1.3-80.6"/>
		<path class="st5" d="M6.8-89.2c2.2-0.4,3-2.2,4.5-1.9c0,0,1.1,0.4,1.1,1.1c0,0.4,0,0.4,0,0.7c0,0-0.4,0.4-0.7,0.7
			c-0.7,0.4-1.5,0.4-2.6,0.4c-1.1,0-1.9,0-2.2,0c-2.6-0.4-4.5-1.5-4.5-1.5c-3-1.9-4.1-4.5-4.5-5.9c0-0.4,0-1.1,0.4-1.5
			c0.4-0.4,0.7-0.4,1.1-0.4c0.7,0.4,0,2.6,1.1,4.8c0.4,0.7,1.1,1.1,1.9,1.9C2.8-89.9,4.6-88.8,6.8-89.2z"/>
		<path class="st6" d="M18.3-107.3c0,0.4,0.7,1.1,0.4,1.9c-0.4,0.7-1.9,0.7-2.6,0.7c-1.9,0-2.2-0.7-4.5-1.5c-0.4,0-1.9-0.4-3.3-0.4
			c-2.6,0.4-3.7,1.5-4.8,1.1c-0.7-0.4-1.1-1.5-0.7-2.2c0.4-1.1,1.5-1.5,3.3-1.9c1.5-0.4,3-1.1,5.6-0.7
			C13.5-109.6,16.9-109.6,18.3-107.3z"/>
		<path class="st6" d="M20.6-104.4v0.4c-0.4,0.4-1.5,0.4-1.9,0c0-0.4,0.4-1.1,1.1-1.1C20.2-105.1,20.6-104.7,20.6-104.4z"/>
		<path class="st7" d="M26.5-113.3c0.4,1.1,0.4,2.6-0.4,3c-0.7,0.4-2.2-0.4-3.7-1.5c-1.9-1.1-4.5-2.6-6.7-3
			c-3.7-1.1-9.3-0.4-10.4-1.1C5-116.2,5-116.6,5-116.6c0-0.4-0.4-0.7-0.4-1.5c0,0,0-0.4,0.7-0.7c1.5-1.1,4.5-1.1,4.5-1.1
			c2.6,0,4.1,0,5.6,0.4c4.1,0.7,6.7,2.2,7.4,2.6C24.3-116.2,25.8-115.1,26.5-113.3z"/>
		<path class="st7" d="M29.5-108.8c-0.4,0.7-1.5,1.1-2.2,0.7c-1.1-0.7-0.7-3,0-3.3C28-111.8,29.8-109.9,29.5-108.8z"/>
	</g>
</g>
<g>
	<g>
		<g class="st8">
			
				<radialGradient id="SVGID_3_" cx="-1101.7462" cy="1107.6711" r="10.706" fx="-1103.7107" fy="1112.7959" gradientTransform="matrix(26.2283 0 0 0.7859 29067.4199 -790.569)" gradientUnits="userSpaceOnUse">
				<stop  offset="7.196508e-02" style="stop-color:#000000;stop-opacity:0.12"/>
				<stop  offset="0.189" style="stop-color:#424242;stop-opacity:9.573053e-02"/>
				<stop  offset="0.3105" style="stop-color:#7F7F80;stop-opacity:7.051824e-02"/>
				<stop  offset="0.4219" style="stop-color:#B0B0B1;stop-opacity:4.741077e-02"/>
				<stop  offset="0.5192" style="stop-color:#D3D3D4;stop-opacity:2.722403e-02"/>
				<stop  offset="0.5987" style="stop-color:#E8E8E9;stop-opacity:1.073760e-02"/>
				<stop  offset="0.6504" style="stop-color:#F0F0F1;stop-opacity:0"/>
				<stop  offset="0.9561" style="stop-color:#FFFFFF;stop-opacity:0"/>
			</radialGradient>
			<path class="st9" d="M430.3,81.4c-0.3,2.5-134.5,4.4-241.5,4.4C81,85.9-53.6,83.9-53.8,81.4c-0.2-2.4,126.8-5.2,241.3-5.2
				C303,76.3,430.5,79.1,430.3,81.4z"/>
		</g>
		<text transform="matrix(0.9668 0 0 1 56.132 77.3152)" class="st10 st11 st12">cell-</text>
		<text transform="matrix(0.9668 0 0 1 148.7883 77.3152)" class="st13 st11 st12">t</text>
		<text transform="matrix(0.9668 0 0 1 165.4836 77.3152)" class="st13 st11 st12">o</text>
		<text transform="matrix(0.9668 0 0 1 195.1174 77.3152)" class="st13 st11 st12">o</text>
		<text transform="matrix(0.9668 0 0 1 224.8547 77.3152)" class="st13 st11 st12">l</text>
		<text transform="matrix(0.9668 0 0 1 236.8537 77.3152)" class="st13 st11 st12">s</text>
	</g>
	<g>
		<g>
			<g>
				<g>
					<g>
						
							<image style="overflow:visible;opacity:0.1;enable-background:new    ;" width="275" height="267" xlink:href="36948CB564FABF46.png"  transform="matrix(0.1311 0 0 0.1311 3.6662 57.207)">
						</image>
						<g>
							
								<linearGradient id="SVGID_4_" gradientUnits="userSpaceOnUse" x1="13.3121" y1="1086.88" x2="28.6329" y2="1097.6079" gradientTransform="matrix(1 0 0 1 0 -1018)">
								<stop  offset="0" style="stop-color:#79C588"/>
								<stop  offset="0.171" style="stop-color:#006B3C"/>
								<stop  offset="1" style="stop-color:#7DC353"/>
							</linearGradient>
							<path class="st14" d="M30.7,73.2c0.1,0.6,0.1,1.5,0,2.4c-0.1,1-0.6,1.6-1,2.4c-0.3,0.4-0.9,1.3-1.8,2.2
								c-0.6,0.6-2.5,2.4-5.5,3c-0.4,0-5.2,0.9-8.3-2.4c-1.6-1.8-1.9-3.7-2.1-4.9c-0.1-1-0.6-3.1,0.4-5.3c1.5-3.6,5.2-4.8,5.8-5.1
								c0,0,2.5-0.7,5.2-0.1c1,0.1,1.9,0.6,2.1,0.7c0.4,0.1,0.9,0.4,1.5,0.9c0.4,0.3,0.9,0.7,1.6,1.9C29.7,70.4,30.4,71.6,30.7,73.2
								z"/>
						</g>
					</g>
				</g>
				<path class="st1" d="M28.9,78.2c0.6-0.1,0.6-0.1,0.7-0.1c0,0.1-0.3,0.4-0.9,1.2c-0.3,0.3-0.6,0.6-0.9,1c-0.1,0.1-0.6,0.6-1,0.9
					c-0.6,0.4-1.3,0.9-2.2,1.3c-0.6,0.3-1.5,0.6-2.2,0.7c-0.1,0-1.5,0.1-3.1,0c-0.9-0.1-1.9-0.3-3-0.9c-0.4-0.1-0.9-0.4-1.3-0.7
					s-0.7-0.6-1-0.9c-0.4-0.4-0.7-0.9-0.9-1.3c-0.1-0.3-0.4-0.6-0.4-1c-0.1-0.4-0.3-0.7-0.3-1c-0.1-0.3-0.1-0.6-0.1-0.9
					c0-0.1,0-0.4-0.1-0.6c-0.1-0.9-0.1-1-0.1-1.3s0-0.6,0.1-0.6c0.1-0.1,0.4,0,0.6,0.1c0.4,0.1,0.4,0.6,0.6,0.7
					c0.4,1,0.6,1.6,0.6,2.2c0.1,1.5,1.3,3.1,2.7,3.9c0,0,1.8,1,4.3,0.9c0.1,0,0.1,0,0.1,0c1.2-0.1,1.8-0.6,2.4-0.9
					c0.1-0.1,1.3-0.6,1.9-1C26.4,79.1,27,79,28.9,78.2z"/>
				
					<radialGradient id="SVGID_5_" cx="1231.1593" cy="2257.9438" r="14.5881" fx="1236.6847" fy="2262.4854" gradientTransform="matrix(0.3338 0 0 0.2959 -390.3395 -594.4898)" gradientUnits="userSpaceOnUse">
					<stop  offset="0" style="stop-color:#72C169"/>
					<stop  offset="0.3078" style="stop-color:#098040"/>
					<stop  offset="0.4732" style="stop-color:#0B8040"/>
					<stop  offset="1" style="stop-color:#133F1E"/>
				</radialGradient>
				<path class="st15" d="M19.6,78.4c-1.5-0.1-3.6-1.3-3.9-3.4c-0.1-1.3,0.3-2.5,0.4-2.8c0.1-0.3,0.3-0.7,0.7-1.3
					c0.4-0.4,0.7-0.7,1.2-1c0.1-0.1,0.7-0.4,1.3-0.7c0.4-0.1,1.8-0.6,3.3-0.1c0.1,0,2.5,0.9,2.8,3.3c0,0.4,0.1,1.6-0.6,3.1
					c-0.9,1.6-2.2,2.2-2.7,2.5C21.1,78.5,20,78.4,19.6,78.4z"/>
				<path class="st3" d="M16.5,81.5c0.3,0.1,0.7,0.3,0.7,0.4s-0.4,0.1-0.4,0.1c-0.9,0.1-2.1-1.2-2.7-1.8c-0.3-0.3-0.4-0.6-0.6-0.7
					c0,0-0.1-0.1-0.1-0.4c-0.1-0.1-0.1-0.3-0.1-0.4c0,0,0-0.1,0-0.3c0.1,0,0.1,0,0.3,0.1s0.1,0.1,0.1,0.1c0.4,0.6,1,1.8,1.8,2.2
					C15.6,81.2,15.9,81.4,16.5,81.5z"/>
				<path class="st4" d="M16.5,81.1"/>
				<path class="st5" d="M19.7,77.6c0.9-0.1,1.2-0.9,1.8-0.7c0,0,0.4,0.1,0.4,0.4c0,0.1,0,0.1,0,0.3c0,0-0.1,0.1-0.3,0.3
					c-0.3,0.1-0.6,0.1-1,0.1c-0.4,0-0.7,0-0.9,0c-1-0.1-1.8-0.6-1.8-0.6c-1.2-0.7-1.6-1.8-1.8-2.4c0-0.1,0-0.4,0.1-0.6
					c0.1-0.1,0.3-0.1,0.4-0.1c0.3,0.1,0,1,0.4,1.9c0.1,0.3,0.4,0.4,0.7,0.7C18.1,77.4,18.8,77.8,19.7,77.6z"/>
				<path class="st6" d="M24.3,70.4c0,0.1,0.3,0.4,0.1,0.7c-0.1,0.3-0.7,0.3-1,0.3c-0.7,0-0.9-0.3-1.8-0.6c-0.1,0-0.7-0.1-1.3-0.1
					c-1,0.1-1.5,0.6-1.9,0.4c-0.3-0.1-0.4-0.6-0.3-0.9c0.1-0.4,0.6-0.6,1.3-0.7c0.6-0.1,1.2-0.4,2.2-0.3
					C22.4,69.5,23.7,69.5,24.3,70.4z"/>
				<path class="st6" d="M25.2,71.6v0.1c-0.1,0.1-0.6,0.1-0.7,0c0-0.1,0.1-0.4,0.4-0.4C25.1,71.3,25.2,71.4,25.2,71.6z"/>
				<path class="st7" d="M27.6,68c0.1,0.4,0.1,1-0.1,1.2c-0.3,0.1-0.9-0.1-1.5-0.6c-0.7-0.4-1.8-1-2.7-1.2c-1.5-0.4-3.7-0.1-4.2-0.4
					C19,66.8,19,66.7,19,66.7c0-0.1-0.1-0.3-0.1-0.6c0,0,0-0.1,0.3-0.3c0.6-0.4,1.8-0.4,1.8-0.4c1,0,1.6,0,2.2,0.1
					c1.6,0.3,2.7,0.9,3,1C26.7,66.8,27.3,67.2,27.6,68z"/>
				<path class="st7" d="M28.8,69.8c-0.1,0.3-0.6,0.4-0.9,0.3c-0.4-0.3-0.3-1.2,0-1.3C28.2,68.6,28.9,69.3,28.8,69.8z"/>
			</g>
		</g>
		<g>
			<g>
				<g>
					<g>
						
							<image style="overflow:visible;opacity:0.1;enable-background:new    ;" width="275" height="267" xlink:href="36948CB564FABF46.png"  transform="matrix(0.1234 0 0 0.1234 10.7351 40.0035)">
						</image>
						<g>
							
								<linearGradient id="SVGID_6_" gradientUnits="userSpaceOnUse" x1="19.8136" y1="1068.9899" x2="34.2332" y2="1079.0867" gradientTransform="matrix(1 0 0 1 0 -1018)">
								<stop  offset="0" style="stop-color:#79C588"/>
								<stop  offset="0.171" style="stop-color:#006B3C"/>
								<stop  offset="1" style="stop-color:#7DC353"/>
							</linearGradient>
							<path class="st16" d="M36.2,55c0.1,0.6,0.1,1.4,0,2.2c-0.1,1-0.6,1.5-1,2.2c-0.3,0.4-0.8,1.3-1.7,2.1
								c-0.6,0.6-2.4,2.2-5.2,2.8c-0.4,0-4.9,0.8-7.8-2.2c-1.5-1.7-1.8-3.5-2-4.6c-0.1-1-0.6-2.9,0.4-5c1.4-3.4,4.9-4.5,5.5-4.8
								c0,0,2.4-0.7,4.9-0.1c1,0.1,1.8,0.6,2,0.7c0.4,0.1,0.8,0.4,1.4,0.8c0.4,0.3,0.8,0.7,1.5,1.8C35.2,52.4,35.9,53.5,36.2,55z"/>
						</g>
					</g>
				</g>
				<path class="st1" d="M34.5,59.8c0.6-0.1,0.6-0.1,0.7-0.1c0,0.1-0.3,0.4-0.8,1.1c-0.3,0.3-0.6,0.6-0.8,1c-0.1,0.1-0.6,0.6-1,0.8
					c-0.6,0.4-1.3,0.8-2.1,1.3c-0.6,0.3-1.4,0.6-2.1,0.7c-0.1,0-1.4,0.1-2.9,0c-0.8-0.1-1.8-0.3-2.8-0.8c-0.4-0.1-0.8-0.4-1.3-0.7
					s-0.7-0.6-1-0.8c-0.4-0.4-0.7-0.8-0.8-1.3c-0.1-0.3-0.4-0.6-0.4-1c-0.1-0.4-0.3-0.7-0.3-1c-0.1-0.3-0.1-0.6-0.1-0.8
					c0-0.1,0-0.4-0.1-0.6c-0.1-0.8-0.1-1-0.1-1.3c0-0.3,0-0.6,0.1-0.6c0.1-0.1,0.4,0,0.6,0.1c0.4,0.1,0.4,0.6,0.6,0.7
					c0.4,1,0.6,1.5,0.6,2.1c0.1,1.4,1.3,2.9,2.5,3.6c0,0,1.7,1,4.1,0.8c0.1,0,0.1,0,0.1,0c1.1-0.1,1.7-0.6,2.2-0.8
					c0.1-0.1,1.3-0.6,1.8-1C32.1,60.6,32.7,60.5,34.5,59.8z"/>
				
					<radialGradient id="SVGID_7_" cx="1228.2341" cy="2227.8677" r="14.5881" fx="1233.7595" fy="2232.4092" gradientTransform="matrix(0.3142 0 0 0.2785 -359.1748 -564.9825)" gradientUnits="userSpaceOnUse">
					<stop  offset="0" style="stop-color:#72C169"/>
					<stop  offset="0.3078" style="stop-color:#098040"/>
					<stop  offset="0.4732" style="stop-color:#0B8040"/>
					<stop  offset="1" style="stop-color:#133F1E"/>
				</radialGradient>
				<path class="st17" d="M25.7,59.9c-1.4-0.1-3.4-1.3-3.6-3.2c-0.1-1.3,0.3-2.4,0.4-2.7c0.1-0.3,0.3-0.7,0.7-1.3
					c0.4-0.4,0.7-0.7,1.1-1c0.1-0.1,0.7-0.4,1.3-0.7c0.4-0.1,1.7-0.6,3.1-0.1c0.1,0,2.4,0.8,2.7,3.1c0,0.4,0.1,1.5-0.6,2.9
					c-0.8,1.5-2.1,2.1-2.5,2.4C27.1,60.1,26.1,59.9,25.7,59.9z"/>
				<path class="st3" d="M22.8,62.9c0.3,0.1,0.7,0.3,0.7,0.4s-0.4,0.1-0.4,0.1c-0.8,0.1-2-1.1-2.5-1.7c-0.3-0.3-0.4-0.6-0.6-0.7
					c0,0-0.1-0.1-0.1-0.4c-0.1-0.1-0.1-0.3-0.1-0.4c0,0,0-0.1,0-0.3c0.1,0,0.1,0,0.3,0.1c0.1,0.1,0.1,0.1,0.1,0.1
					c0.4,0.6,1,1.7,1.7,2.1C21.9,62.6,22.2,62.7,22.8,62.9z"/>
				<path class="st4" d="M22.8,62.5"/>
				<path class="st5" d="M25.9,59.2c0.8-0.1,1.1-0.8,1.7-0.7c0,0,0.4,0.1,0.4,0.4c0,0.1,0,0.1,0,0.3c0,0-0.1,0.1-0.3,0.3
					c-0.3,0.1-0.6,0.1-1,0.1c-0.4,0-0.7,0-0.8,0c-1-0.1-1.7-0.6-1.7-0.6c-1.1-0.7-1.5-1.7-1.7-2.2c0-0.1,0-0.4,0.1-0.6
					c0.1-0.1,0.3-0.1,0.4-0.1c0.3,0.1,0,1,0.4,1.8c0.1,0.3,0.4,0.4,0.7,0.7C24.3,59,25,59.4,25.9,59.2z"/>
				<path class="st6" d="M30.2,52.4c0,0.1,0.3,0.4,0.1,0.7s-0.7,0.3-1,0.3c-0.7,0-0.8-0.3-1.7-0.6c-0.1,0-0.7-0.1-1.3-0.1
					c-1,0.1-1.4,0.6-1.8,0.4c-0.3-0.1-0.4-0.6-0.3-0.8c0.1-0.4,0.6-0.6,1.3-0.7c0.6-0.1,1.1-0.4,2.1-0.3
					C28.4,51.6,29.6,51.6,30.2,52.4z"/>
				<path class="st6" d="M31,53.5v0.1c-0.1,0.1-0.6,0.1-0.7,0c0-0.1,0.1-0.4,0.4-0.4C30.9,53.2,31,53.4,31,53.5z"/>
				<path class="st7" d="M33.3,50.2c0.1,0.4,0.1,1-0.1,1.1c-0.3,0.1-0.8-0.1-1.4-0.6c-0.7-0.4-1.7-1-2.5-1.1
					c-1.4-0.4-3.5-0.1-3.9-0.4c-0.1-0.1-0.1-0.3-0.1-0.3c0-0.1-0.1-0.3-0.1-0.6c0,0,0-0.1,0.3-0.3c0.6-0.4,1.7-0.4,1.7-0.4
					c1,0,1.5,0,2.1,0.1c1.5,0.3,2.5,0.8,2.8,1C32.4,49,33,49.5,33.3,50.2z"/>
				<path class="st7" d="M34.4,51.8c-0.1,0.3-0.6,0.4-0.8,0.3c-0.4-0.3-0.3-1.1,0-1.3C33.8,50.7,34.5,51.4,34.4,51.8z"/>
			</g>
		</g>
		<g>
			<g>
				<g>
					<g>
						
							<image style="overflow:visible;opacity:0.1;enable-background:new    ;" width="275" height="267" xlink:href="36948CB564FABF46.png"  transform="matrix(0.1157 0 0 0.1157 21.4279 24.5634)">
						</image>
						<g>
							
								<linearGradient id="SVGID_8_" gradientUnits="userSpaceOnUse" x1="29.939" y1="1052.8632" x2="43.4574" y2="1062.3289" gradientTransform="matrix(1 0 0 1 0 -1018)">
								<stop  offset="0" style="stop-color:#79C588"/>
								<stop  offset="0.171" style="stop-color:#006B3C"/>
								<stop  offset="1" style="stop-color:#7DC353"/>
							</linearGradient>
							<path class="st18" d="M45.3,38.7c0.1,0.5,0.1,1.3,0,2.1c-0.1,0.9-0.5,1.4-0.9,2.1c-0.3,0.4-0.8,1.2-1.6,2
								c-0.5,0.5-2.2,2.1-4.9,2.6c-0.4,0-4.6,0.8-7.3-2.1c-1.4-1.6-1.7-3.3-1.8-4.3c-0.1-0.9-0.5-2.8,0.4-4.7
								c1.3-3.1,4.6-4.2,5.1-4.5c0,0,2.2-0.7,4.6-0.1c0.9,0.1,1.7,0.5,1.8,0.7c0.4,0.1,0.8,0.4,1.3,0.8c0.4,0.3,0.8,0.7,1.4,1.7
								C44.4,36.2,45,37.2,45.3,38.7z"/>
						</g>
					</g>
				</g>
				<path class="st1" d="M43.7,43.1c0.5-0.1,0.5-0.1,0.7-0.1c0,0.1-0.3,0.4-0.8,1c-0.3,0.3-0.5,0.5-0.8,0.9
					c-0.1,0.1-0.5,0.5-0.9,0.8c-0.5,0.4-1.2,0.8-2,1.2c-0.5,0.3-1.3,0.5-2,0.7c-0.1,0-1.3,0.1-2.8,0c-0.8-0.1-1.7-0.3-2.6-0.8
					c-0.4-0.1-0.8-0.4-1.2-0.7s-0.7-0.5-0.9-0.8c-0.4-0.4-0.7-0.8-0.8-1.2c-0.1-0.3-0.4-0.5-0.4-0.9c-0.1-0.4-0.3-0.7-0.3-0.9
					c-0.1-0.3-0.1-0.5-0.1-0.8c0-0.1,0-0.4-0.1-0.5c-0.1-0.8-0.1-0.9-0.1-1.2c0-0.3,0-0.5,0.1-0.5c0.1-0.1,0.4,0,0.5,0.1
					c0.4,0.1,0.4,0.5,0.5,0.7c0.4,0.9,0.5,1.4,0.5,2c0.1,1.3,1.2,2.8,2.4,3.4c0,0,1.6,0.9,3.8,0.8c0.1,0,0.1,0,0.1,0
					c1-0.1,1.6-0.5,2.1-0.8c0.1-0.1,1.2-0.5,1.7-0.9C41.5,43.9,42,43.8,43.7,43.1z"/>
				
					<radialGradient id="SVGID_9_" cx="1259.0869" cy="2168.9592" r="13.6764" fx="1264.267" fy="2173.217" gradientTransform="matrix(0.3142 0 0 0.2785 -359.1748 -564.9825)" gradientUnits="userSpaceOnUse">
					<stop  offset="0" style="stop-color:#72C169"/>
					<stop  offset="0.3078" style="stop-color:#098040"/>
					<stop  offset="0.4732" style="stop-color:#0B8040"/>
					<stop  offset="1" style="stop-color:#133F1E"/>
				</radialGradient>
				<path class="st19" d="M35.5,43.3c-1.3-0.1-3.1-1.2-3.4-3c-0.1-1.2,0.3-2.2,0.4-2.5c0.1-0.3,0.3-0.7,0.7-1.2
					c0.4-0.4,0.7-0.7,1-0.9c0.1-0.1,0.7-0.4,1.2-0.7c0.4-0.1,1.6-0.5,2.9-0.1c0.1,0,2.2,0.8,2.5,2.9c0,0.4,0.1,1.4-0.5,2.8
					c-0.8,1.4-2,2-2.4,2.2C36.8,43.4,35.9,43.3,35.5,43.3z"/>
				<path class="st3" d="M32.7,46c0.3,0.1,0.7,0.3,0.7,0.4c0,0.1-0.4,0.1-0.4,0.1c-0.8,0.1-1.8-1-2.4-1.6c-0.3-0.3-0.4-0.5-0.5-0.7
					c0,0-0.1-0.1-0.1-0.4c-0.1-0.1-0.1-0.3-0.1-0.4c0,0,0-0.1,0-0.3c0.1,0,0.1,0,0.3,0.1s0.1,0.1,0.1,0.1c0.4,0.5,0.9,1.6,1.6,2
					C31.9,45.7,32.2,45.9,32.7,46z"/>
				<path class="st4" d="M32.7,45.6"/>
				<path class="st5" d="M35.6,42.6c0.8-0.1,1-0.8,1.6-0.7c0,0,0.4,0.1,0.4,0.4c0,0.1,0,0.1,0,0.3c0,0-0.1,0.1-0.3,0.3
					C37,43,36.8,43,36.4,43c-0.4,0-0.7,0-0.8,0c-0.9-0.1-1.6-0.5-1.6-0.5c-1-0.7-1.4-1.6-1.6-2.1c0-0.1,0-0.4,0.1-0.5
					c0.1-0.1,0.3-0.1,0.4-0.1c0.3,0.1,0,0.9,0.4,1.7c0.1,0.3,0.4,0.4,0.7,0.7C34.2,42.3,34.8,42.7,35.6,42.6z"/>
				<path class="st6" d="M39.7,36.2c0,0.1,0.3,0.4,0.1,0.7s-0.7,0.3-0.9,0.3c-0.7,0-0.8-0.3-1.6-0.5c-0.1,0-0.7-0.1-1.2-0.1
					c-0.9,0.1-1.3,0.5-1.7,0.4c-0.3-0.1-0.4-0.5-0.3-0.8c0.1-0.4,0.5-0.5,1.2-0.7c0.5-0.1,1-0.4,2-0.3C38,35.4,39.1,35.4,39.7,36.2z
					"/>
				<path class="st6" d="M40.4,37.2v0.1c-0.1,0.1-0.5,0.1-0.7,0c0-0.1,0.1-0.4,0.4-0.4C40.3,37,40.4,37.1,40.4,37.2z"/>
				<path class="st7" d="M42.5,34.1c0.1,0.4,0.1,0.9-0.1,1c-0.3,0.1-0.8-0.1-1.3-0.5c-0.7-0.4-1.6-0.9-2.4-1
					c-1.3-0.4-3.3-0.1-3.7-0.4c-0.1-0.1-0.1-0.3-0.1-0.3c0-0.1-0.1-0.3-0.1-0.5c0,0,0-0.1,0.3-0.3c0.5-0.4,1.6-0.4,1.6-0.4
					c0.9,0,1.4,0,2,0.1c1.4,0.3,2.4,0.8,2.6,0.9C41.8,33,42.3,33.4,42.5,34.1z"/>
				<path class="st7" d="M43.6,35.7c-0.1,0.3-0.5,0.4-0.8,0.3c-0.4-0.3-0.3-1,0-1.2C43.1,34.6,43.7,35.3,43.6,35.7z"/>
			</g>
		</g>
		<g>
			<g>
				<g>
					<g>
						
							<image style="overflow:visible;opacity:0.1;enable-background:new    ;" width="275" height="267" xlink:href="36948CB564FABF46.png"  transform="matrix(0.1079 0 0 0.1079 35.219 14.1721)">
						</image>
						<g>
							
								<linearGradient id="SVGID_10_" gradientUnits="userSpaceOnUse" x1="43.1627" y1="1041.7852" x2="55.7799" y2="1050.6199" gradientTransform="matrix(1 0 0 1 0 -1018)">
								<stop  offset="0" style="stop-color:#79C588"/>
								<stop  offset="0.171" style="stop-color:#006B3C"/>
								<stop  offset="1" style="stop-color:#7DC353"/>
							</linearGradient>
							<path class="st20" d="M57.5,27.3c0.1,0.5,0.1,1.2,0,2c-0.1,0.9-0.5,1.3-0.9,2c-0.2,0.4-0.7,1.1-1.5,1.8
								c-0.5,0.5-2.1,2-4.5,2.4c-0.4,0-4.3,0.7-6.9-2c-1.3-1.5-1.6-3.1-1.7-4c-0.1-0.9-0.5-2.6,0.4-4.4c1.2-2.9,4.3-3.9,4.8-4.2
								c0,0,2.1-0.6,4.3-0.1c0.9,0.1,1.6,0.5,1.7,0.6c0.4,0.1,0.7,0.4,1.2,0.7c0.4,0.2,0.7,0.6,1.3,1.6C56.6,25,57.3,26,57.5,27.3z"
								/>
						</g>
					</g>
				</g>
				<path class="st1" d="M56,31.5c0.5-0.1,0.5-0.1,0.6-0.1c0,0.1-0.2,0.4-0.7,1c-0.2,0.2-0.5,0.5-0.7,0.9c-0.1,0.1-0.5,0.5-0.9,0.7
					c-0.5,0.4-1.1,0.7-1.8,1.1c-0.5,0.2-1.2,0.5-1.8,0.6c-0.1,0-1.2,0.1-2.6,0c-0.7-0.1-1.6-0.2-2.4-0.7c-0.4-0.1-0.7-0.4-1.1-0.6
					c-0.4-0.2-0.6-0.5-0.9-0.7c-0.4-0.4-0.6-0.7-0.7-1.1c-0.1-0.2-0.4-0.5-0.4-0.9c-0.1-0.4-0.2-0.6-0.2-0.9
					c-0.1-0.2-0.1-0.5-0.1-0.7c0-0.1,0-0.4-0.1-0.5C42,28.8,42,28.7,42,28.4c0-0.2,0-0.5,0.1-0.5c0.1-0.1,0.4,0,0.5,0.1
					c0.4,0.1,0.4,0.5,0.5,0.6c0.4,0.9,0.5,1.3,0.5,1.8c0.1,1.2,1.1,2.6,2.2,3.2c0,0,1.5,0.9,3.5,0.7c0.1,0,0.1,0,0.1,0
					c1-0.1,1.5-0.5,2-0.7c0.1-0.1,1.1-0.5,1.6-0.9C54,32.2,54.4,32.1,56,31.5z"/>
				
					<radialGradient id="SVGID_11_" cx="1256.7592" cy="2170.448" r="13.6764" fx="1261.9392" fy="2174.7058" gradientTransform="matrix(0.2932 0 0 0.2599 -319.3276 -536.4577)" gradientUnits="userSpaceOnUse">
					<stop  offset="0" style="stop-color:#72C169"/>
					<stop  offset="0.3078" style="stop-color:#098040"/>
					<stop  offset="0.4732" style="stop-color:#0B8040"/>
					<stop  offset="1" style="stop-color:#133F1E"/>
				</radialGradient>
				<path class="st21" d="M48.3,31.6c-1.2-0.1-2.9-1.1-3.2-2.8c-0.1-1.1,0.2-2.1,0.4-2.3c0.1-0.2,0.2-0.6,0.6-1.1
					c0.4-0.4,0.6-0.6,1-0.9c0.1-0.1,0.6-0.4,1.1-0.6c0.4-0.1,1.5-0.5,2.7-0.1c0.1,0,2.1,0.7,2.3,2.7c0,0.4,0.1,1.3-0.5,2.6
					c-0.7,1.3-1.8,1.8-2.2,2.1C49.5,31.7,48.7,31.6,48.3,31.6z"/>
				<path class="st3" d="M45.8,34.2c0.2,0.1,0.6,0.2,0.6,0.4c0,0.1-0.4,0.1-0.4,0.1c-0.7,0.1-1.7-1-2.2-1.5
					c-0.2-0.2-0.4-0.5-0.5-0.6c0,0-0.1-0.1-0.1-0.4c-0.1-0.1-0.1-0.2-0.1-0.4c0,0,0-0.1,0-0.2c0.1,0,0.1,0,0.2,0.1
					c0.1,0.1,0.1,0.1,0.1,0.1c0.4,0.5,0.9,1.5,1.5,1.8C45,33.9,45.3,34.1,45.8,34.2z"/>
				<path class="st4" d="M45.8,33.8"/>
				<path class="st5" d="M48.4,31c0.7-0.1,1-0.7,1.5-0.6c0,0,0.4,0.1,0.4,0.4c0,0.1,0,0.1,0,0.2c0,0-0.1,0.1-0.2,0.2
					c-0.2,0.1-0.5,0.1-0.9,0.1c-0.4,0-0.6,0-0.7,0c-0.9-0.1-1.5-0.5-1.5-0.5c-1-0.6-1.3-1.5-1.5-2c0-0.1,0-0.4,0.1-0.5
					c0.1-0.1,0.2-0.1,0.4-0.1c0.2,0.1,0,0.9,0.4,1.6c0.1,0.2,0.4,0.4,0.6,0.6C47.1,30.8,47.7,31.1,48.4,31z"/>
				<path class="st6" d="M52.2,25c0,0.1,0.2,0.4,0.1,0.6c-0.1,0.2-0.6,0.2-0.9,0.2c-0.6,0-0.7-0.2-1.5-0.5c-0.1,0-0.6-0.1-1.1-0.1
					c-0.9,0.1-1.2,0.5-1.6,0.4c-0.2-0.1-0.4-0.5-0.2-0.7c0.1-0.4,0.5-0.5,1.1-0.6c0.5-0.1,1-0.4,1.8-0.2
					C50.6,24.3,51.7,24.3,52.2,25z"/>
				<path class="st6" d="M53,26v0.1c-0.1,0.1-0.5,0.1-0.6,0c0-0.1,0.1-0.4,0.4-0.4C52.8,25.7,53,25.9,53,26z"/>
				<path class="st7" d="M54.9,23.1c0.1,0.4,0.1,0.9-0.1,1c-0.2,0.1-0.7-0.1-1.2-0.5c-0.6-0.4-1.5-0.9-2.2-1
					c-1.2-0.4-3.1-0.1-3.4-0.4c-0.1-0.1-0.1-0.2-0.1-0.2c0-0.1-0.1-0.2-0.1-0.5c0,0,0-0.1,0.2-0.2c0.5-0.4,1.5-0.4,1.5-0.4
					c0.9,0,1.3,0,1.8,0.1c1.3,0.2,2.2,0.7,2.4,0.9C54.2,22.1,54.7,22.4,54.9,23.1z"/>
				<path class="st7" d="M55.9,24.5c-0.1,0.2-0.5,0.4-0.7,0.2c-0.4-0.2-0.2-1,0-1.1C55.4,23.5,56,24.2,55.9,24.5z"/>
			</g>
		</g>
		<g>
			<g>
				<g>
					<g>
						
							<image style="overflow:visible;opacity:0.1;enable-background:new    ;" width="275" height="267" xlink:href="36948CB564FABF46.png"  transform="matrix(0.1002 0 0 0.1002 49.7225 6.2382)">
						</image>
						<g>
							
								<linearGradient id="SVGID_12_" gradientUnits="userSpaceOnUse" x1="57.0988" y1="1033.1647" x2="68.8148" y2="1041.3683" gradientTransform="matrix(1 0 0 1 0 -1018)">
								<stop  offset="0" style="stop-color:#79C588"/>
								<stop  offset="0.171" style="stop-color:#006B3C"/>
								<stop  offset="1" style="stop-color:#7DC353"/>
							</linearGradient>
							<path class="st22" d="M70.4,18.5c0.1,0.5,0.1,1.1,0,1.8c-0.1,0.8-0.5,1.2-0.8,1.8c-0.2,0.3-0.7,1-1.4,1.7
								c-0.5,0.5-1.9,1.8-4.2,2.3c-0.3,0-4,0.7-6.4-1.8c-1.2-1.4-1.5-2.8-1.6-3.7c-0.1-0.8-0.5-2.4,0.3-4.1c1.1-2.7,4-3.6,4.4-3.9
								c0,0,1.9-0.6,4-0.1c0.8,0.1,1.5,0.5,1.6,0.6c0.3,0.1,0.7,0.3,1.1,0.7c0.3,0.2,0.7,0.6,1.2,1.5C69.6,16.3,70.2,17.2,70.4,18.5
								z"/>
						</g>
					</g>
				</g>
				<path class="st1" d="M69,22.3c0.5-0.1,0.5-0.1,0.6-0.1c0,0.1-0.2,0.3-0.7,0.9c-0.2,0.2-0.5,0.5-0.7,0.8
					c-0.1,0.1-0.5,0.5-0.8,0.7c-0.5,0.3-1,0.7-1.7,1c-0.5,0.2-1.1,0.5-1.7,0.6c-0.1,0-1.1,0.1-2.4,0c-0.7-0.1-1.5-0.2-2.3-0.7
					c-0.3-0.1-0.7-0.3-1-0.6c-0.3-0.2-0.6-0.5-0.8-0.7c-0.3-0.3-0.6-0.7-0.7-1c-0.1-0.2-0.3-0.5-0.3-0.8c-0.1-0.3-0.2-0.6-0.2-0.8
					c-0.1-0.2-0.1-0.5-0.1-0.7c0-0.1,0-0.3-0.1-0.5c-0.1-0.7-0.1-0.8-0.1-1c0-0.2,0-0.5,0.1-0.5c0.1-0.1,0.3,0,0.5,0.1
					c0.3,0.1,0.3,0.5,0.5,0.6c0.3,0.8,0.5,1.2,0.5,1.7c0.1,1.1,1,2.4,2,3c0,0,1.4,0.8,3.3,0.7c0.1,0,0.1,0,0.1,0
					c0.9-0.1,1.4-0.5,1.8-0.7c0.1-0.1,1-0.5,1.5-0.8C67.1,23,67.6,22.9,69,22.3z"/>
				
					<radialGradient id="SVGID_13_" cx="1302.8104" cy="2136.2107" r="12.6995" fx="1307.6205" fy="2140.1643" gradientTransform="matrix(0.2932 0 0 0.2599 -319.3276 -536.4577)" gradientUnits="userSpaceOnUse">
					<stop  offset="0" style="stop-color:#72C169"/>
					<stop  offset="0.3078" style="stop-color:#098040"/>
					<stop  offset="0.4732" style="stop-color:#0B8040"/>
					<stop  offset="1" style="stop-color:#133F1E"/>
				</radialGradient>
				<path class="st23" d="M61.9,22.4c-1.1-0.1-2.7-1-3-2.6c-0.1-1,0.2-1.9,0.3-2.2c0.1-0.2,0.2-0.6,0.6-1c0.3-0.3,0.6-0.6,0.9-0.8
					c0.1-0.1,0.6-0.3,1-0.6c0.3-0.1,1.4-0.5,2.5-0.1c0.1,0,1.9,0.7,2.2,2.5c0,0.3,0.1,1.2-0.5,2.4c-0.7,1.2-1.7,1.7-2,1.9
					C63,22.6,62.2,22.4,61.9,22.4z"/>
				<path class="st3" d="M59.5,24.8c0.2,0.1,0.6,0.2,0.6,0.3c0,0.1-0.3,0.1-0.3,0.1c-0.7,0.1-1.6-0.9-2-1.4
					c-0.2-0.2-0.3-0.5-0.5-0.6c0,0-0.1-0.1-0.1-0.3C57,22.9,57,22.8,57,22.7c0,0,0-0.1,0-0.2c0.1,0,0.1,0,0.2,0.1
					c0.1,0.1,0.1,0.1,0.1,0.1c0.3,0.5,0.8,1.4,1.4,1.7C58.8,24.6,59,24.7,59.5,24.8z"/>
				<path class="st4" d="M59.5,24.5"/>
				<path class="st5" d="M62,21.9c0.7-0.1,0.9-0.7,1.4-0.6c0,0,0.3,0.1,0.3,0.3c0,0.1,0,0.1,0,0.2c0,0-0.1,0.1-0.2,0.2
					c-0.2,0.1-0.5,0.1-0.8,0.1c-0.3,0-0.6,0-0.7,0c-0.8-0.1-1.4-0.5-1.4-0.5c-0.9-0.6-1.2-1.4-1.4-1.8c0-0.1,0-0.3,0.1-0.5
					c0.1-0.1,0.2-0.1,0.3-0.1c0.2,0.1,0,0.8,0.3,1.5c0.1,0.2,0.3,0.3,0.6,0.6C60.8,21.6,61.3,22,62,21.9z"/>
				<path class="st6" d="M65.5,16.3c0,0.1,0.2,0.3,0.1,0.6c-0.1,0.2-0.6,0.2-0.8,0.2c-0.6,0-0.7-0.2-1.4-0.5c-0.1,0-0.6-0.1-1-0.1
					c-0.8,0.1-1.1,0.5-1.5,0.3c-0.2-0.1-0.3-0.5-0.2-0.7c0.1-0.3,0.5-0.5,1-0.6c0.5-0.1,0.9-0.3,1.7-0.2
					C64,15.6,65.1,15.6,65.5,16.3z"/>
				<path class="st6" d="M66.2,17.2v0.1c-0.1,0.1-0.5,0.1-0.6,0c0-0.1,0.1-0.3,0.3-0.3C66.1,17,66.2,17.1,66.2,17.2z"/>
				<path class="st7" d="M68,14.5c0.1,0.3,0.1,0.8-0.1,0.9c-0.2,0.1-0.7-0.1-1.1-0.5c-0.6-0.3-1.4-0.8-2-0.9
					c-1.1-0.3-2.8-0.1-3.2-0.3c-0.1-0.1-0.1-0.2-0.1-0.2c0-0.1-0.1-0.2-0.1-0.5c0,0,0-0.1,0.2-0.2c0.5-0.3,1.4-0.3,1.4-0.3
					c0.8,0,1.2,0,1.7,0.1c1.2,0.2,2,0.7,2.3,0.8C67.3,13.6,67.8,13.9,68,14.5z"/>
				<path class="st7" d="M68.9,15.8c-0.1,0.2-0.5,0.3-0.7,0.2c-0.3-0.2-0.2-0.9,0-1C68.5,14.9,69,15.5,68.9,15.8z"/>
			</g>
		</g>
		<g>
			<g>
				<g>
					<g>
						
							<image style="overflow:visible;opacity:0.1;enable-background:new    ;" width="275" height="267" xlink:href="36948CB564FABF46.png"  transform="matrix(9.252486e-02 0 0 9.252486e-02 65.6392 2.2348)">
						</image>
						<g>
							
								<linearGradient id="SVGID_14_" gradientUnits="userSpaceOnUse" x1="72.4481" y1="1028.4746" x2="83.2628" y2="1036.0472" gradientTransform="matrix(1 0 0 1 0 -1018)">
								<stop  offset="0" style="stop-color:#79C588"/>
								<stop  offset="0.171" style="stop-color:#006B3C"/>
								<stop  offset="1" style="stop-color:#7DC353"/>
							</linearGradient>
							<path class="st24" d="M84.7,13.5c0.1,0.4,0.1,1,0,1.7c-0.1,0.7-0.4,1.2-0.7,1.7c-0.2,0.3-0.6,0.9-1.3,1.6
								c-0.4,0.4-1.8,1.7-3.9,2.1c-0.3,0-3.7,0.6-5.9-1.7c-1.2-1.3-1.4-2.6-1.5-3.5c-0.1-0.7-0.4-2.2,0.3-3.8c1-2.5,3.7-3.4,4.1-3.6
								c0,0,1.8-0.5,3.7-0.1c0.7,0.1,1.4,0.4,1.5,0.5c0.3,0.1,0.6,0.3,1,0.6c0.3,0.2,0.6,0.5,1.2,1.4C84,11.5,84.5,12.4,84.7,13.5z"
								/>
						</g>
					</g>
				</g>
				<path class="st1" d="M83.5,17.1C83.9,17,83.9,17,84,17c0,0.1-0.2,0.3-0.6,0.8c-0.2,0.2-0.4,0.4-0.6,0.7
					c-0.1,0.1-0.4,0.4-0.7,0.6c-0.4,0.3-0.9,0.6-1.6,0.9c-0.4,0.2-1,0.4-1.6,0.5c-0.1,0-1,0.1-2.2,0c-0.6-0.1-1.4-0.2-2.1-0.6
					c-0.3-0.1-0.6-0.3-0.9-0.5c-0.3-0.2-0.5-0.4-0.7-0.6c-0.3-0.3-0.5-0.6-0.6-0.9c-0.1-0.2-0.3-0.4-0.3-0.7
					c-0.1-0.3-0.2-0.5-0.2-0.7c-0.1-0.2-0.1-0.4-0.1-0.6c0-0.1,0-0.3-0.1-0.4c-0.1-0.6-0.1-0.7-0.1-0.9s0-0.4,0.1-0.4
					c0.1-0.1,0.3,0,0.4,0.1c0.3,0.1,0.3,0.4,0.4,0.5c0.3,0.7,0.4,1.2,0.4,1.6c0.1,1,0.9,2.2,1.9,2.7c0,0,1.3,0.7,3,0.6
					c0.1,0,0.1,0,0.1,0c0.8-0.1,1.3-0.4,1.7-0.6c0.1-0.1,0.9-0.4,1.4-0.7C81.7,17.7,82.1,17.6,83.5,17.1z"/>
				
					<radialGradient id="SVGID_15_" cx="1353.6807" cy="2117.0957" r="11.7226" fx="1358.1207" fy="2120.7451" gradientTransform="matrix(0.2932 0 0 0.2599 -319.3276 -536.4577)" gradientUnits="userSpaceOnUse">
					<stop  offset="0" style="stop-color:#72C169"/>
					<stop  offset="0.3078" style="stop-color:#098040"/>
					<stop  offset="0.4732" style="stop-color:#0B8040"/>
					<stop  offset="1" style="stop-color:#133F1E"/>
				</radialGradient>
				<path class="st25" d="M76.9,17.2c-1-0.1-2.5-0.9-2.7-2.4c-0.1-0.9,0.2-1.8,0.3-2c0.1-0.2,0.2-0.5,0.5-0.9
					c0.3-0.3,0.5-0.5,0.8-0.7c0.1-0.1,0.5-0.3,0.9-0.5c0.3-0.1,1.3-0.4,2.3-0.1c0.1,0,1.8,0.6,2,2.3c0,0.3,0.1,1.2-0.4,2.2
					c-0.6,1.2-1.6,1.6-1.9,1.8C77.9,17.3,77.2,17.2,76.9,17.2z"/>
				<path class="st3" d="M74.7,19.4c0.2,0.1,0.5,0.2,0.5,0.3c0,0.1-0.3,0.1-0.3,0.1c-0.6,0.1-1.5-0.8-1.9-1.3
					c-0.2-0.2-0.3-0.4-0.4-0.5c0,0-0.1-0.1-0.1-0.3c-0.1-0.1-0.1-0.2-0.1-0.3c0,0,0-0.1,0-0.2c0.1,0,0.1,0,0.2,0.1
					c0.1,0.1,0.1,0.1,0.1,0.1c0.3,0.4,0.7,1.3,1.3,1.6C74,19.2,74.2,19.3,74.7,19.4z"/>
				<path class="st4" d="M74.7,19.1"/>
				<path class="st5" d="M77,16.7c0.6-0.1,0.8-0.6,1.3-0.5c0,0,0.3,0.1,0.3,0.3c0,0.1,0,0.1,0,0.2c0,0-0.1,0.1-0.2,0.2
					C78.1,17,77.9,17,77.6,17c-0.3,0-0.5,0-0.6,0c-0.7-0.1-1.3-0.4-1.3-0.4c-0.8-0.5-1.2-1.3-1.3-1.7c0-0.1,0-0.3,0.1-0.4
					c0.1-0.1,0.2-0.1,0.3-0.1c0.2,0.1,0,0.7,0.3,1.4c0.1,0.2,0.3,0.3,0.5,0.5C75.8,16.5,76.3,16.8,77,16.7z"/>
				<path class="st6" d="M80.2,11.5c0,0.1,0.2,0.3,0.1,0.5c-0.1,0.2-0.5,0.2-0.7,0.2c-0.5,0-0.6-0.2-1.3-0.4c-0.1,0-0.5-0.1-0.9-0.1
					c-0.7,0.1-1,0.4-1.4,0.3c-0.2-0.1-0.3-0.4-0.2-0.6c0.1-0.3,0.4-0.4,0.9-0.5c0.4-0.1,0.8-0.3,1.6-0.2
					C78.9,10.9,79.8,10.9,80.2,11.5z"/>
				<path class="st6" d="M80.9,12.4v0.1c-0.1,0.1-0.4,0.1-0.5,0c0-0.1,0.1-0.3,0.3-0.3C80.8,12.2,80.9,12.3,80.9,12.4z"/>
				<path class="st7" d="M82.5,9.8c0.1,0.3,0.1,0.7-0.1,0.8c-0.2,0.1-0.6-0.1-1-0.4c-0.5-0.3-1.3-0.7-1.9-0.8
					c-1-0.3-2.6-0.1-2.9-0.3c-0.1-0.1-0.1-0.2-0.1-0.2c0-0.1-0.1-0.2-0.1-0.4c0,0,0-0.1,0.2-0.2C77,8,77.8,8,77.8,8
					c0.7,0,1.2,0,1.6,0.1c1.2,0.2,1.9,0.6,2.1,0.7C81.9,9,82.3,9.3,82.5,9.8z"/>
				<path class="st7" d="M83.4,11.1c-0.1,0.2-0.4,0.3-0.6,0.2c-0.3-0.2-0.2-0.8,0-0.9S83.5,10.8,83.4,11.1z"/>
			</g>
		</g>
		<g>
			<g>
				<g>
					<g>
						
							<image style="overflow:visible;opacity:0.1;enable-background:new    ;" width="275" height="267" xlink:href="36948CB564FABF46.png"  transform="matrix(8.481445e-02 0 0 8.481445e-02 81.0741 2.6765)">
						</image>
						<g>
							
								<linearGradient id="SVGID_16_" gradientUnits="userSpaceOnUse" x1="87.3156" y1="1028.2297" x2="97.2291" y2="1035.1713" gradientTransform="matrix(1 0 0 1 0 -1018)">
								<stop  offset="0" style="stop-color:#79C588"/>
								<stop  offset="0.171" style="stop-color:#006B3C"/>
								<stop  offset="1" style="stop-color:#7DC353"/>
							</linearGradient>
							<path class="st26" d="M98.6,13c0.1,0.4,0.1,1,0,1.5c-0.1,0.7-0.4,1.1-0.7,1.5c-0.2,0.3-0.6,0.9-1.2,1.4
								c-0.4,0.4-1.6,1.5-3.6,1.9c-0.3,0-3.4,0.6-5.4-1.5c-1.1-1.2-1.2-2.4-1.3-3.2c-0.1-0.7-0.4-2,0.3-3.5c1-2.3,3.4-3.1,3.7-3.3
								c0,0,1.6-0.5,3.4-0.1c0.7,0.1,1.2,0.4,1.3,0.5c0.3,0.1,0.6,0.3,1,0.6c0.3,0.2,0.6,0.5,1.1,1.2C97.9,11.2,98.4,12,98.6,13z"/>
						</g>
					</g>
				</g>
				<path class="st1" d="M97.4,16.3c0.4-0.1,0.4-0.1,0.5-0.1c0,0.1-0.2,0.3-0.6,0.8c-0.2,0.2-0.4,0.4-0.6,0.7
					c-0.1,0.1-0.4,0.4-0.7,0.6c-0.4,0.3-0.9,0.6-1.4,0.9c-0.4,0.2-1,0.4-1.4,0.5c-0.1,0-1,0.1-2,0c-0.6-0.1-1.2-0.2-1.9-0.6
					c-0.3-0.1-0.6-0.3-0.9-0.5c-0.3-0.2-0.5-0.4-0.7-0.6c-0.3-0.3-0.5-0.6-0.6-0.9c-0.1-0.2-0.3-0.4-0.3-0.7
					c-0.1-0.3-0.2-0.5-0.2-0.7c-0.1-0.2-0.1-0.4-0.1-0.6c0-0.1,0-0.3-0.1-0.4c-0.1-0.6-0.1-0.7-0.1-0.9s0-0.4,0.1-0.4
					c0.1-0.1,0.3,0,0.4,0.1c0.3,0.1,0.3,0.4,0.4,0.5c0.3,0.7,0.4,1.1,0.4,1.4c0.1,1,0.9,2,1.7,2.5c0,0,1.2,0.7,2.8,0.6
					c0.1,0,0.1,0,0.1,0c0.8-0.1,1.2-0.4,1.5-0.6c0.1-0.1,0.9-0.4,1.2-0.7C95.8,16.9,96.2,16.8,97.4,16.3z"/>
				
					<radialGradient id="SVGID_17_" cx="1402.9083" cy="2115.0823" r="10.7457" fx="1406.9784" fy="2118.4277" gradientTransform="matrix(0.2932 0 0 0.2599 -319.3276 -536.4577)" gradientUnits="userSpaceOnUse">
					<stop  offset="0" style="stop-color:#72C169"/>
					<stop  offset="0.3078" style="stop-color:#098040"/>
					<stop  offset="0.4732" style="stop-color:#0B8040"/>
					<stop  offset="1" style="stop-color:#133F1E"/>
				</radialGradient>
				<path class="st27" d="M91.4,16.4c-1-0.1-2.3-0.9-2.5-2.2c-0.1-0.9,0.2-1.6,0.3-1.8c0.1-0.2,0.2-0.5,0.5-0.9
					c0.3-0.3,0.5-0.5,0.8-0.7c0.1-0.1,0.5-0.3,0.9-0.5c0.3-0.1,1.2-0.4,2.1-0.1c0.1,0,1.6,0.6,1.8,2.1c0,0.3,0.1,1.1-0.4,2
					c-0.6,1.1-1.4,1.4-1.7,1.6C92.3,16.5,91.7,16.4,91.4,16.4z"/>
				<path class="st3" d="M89.4,18.4c0.2,0.1,0.5,0.2,0.5,0.3c0,0.1-0.3,0.1-0.3,0.1c-0.6,0.1-1.3-0.8-1.7-1.2
					c-0.2-0.2-0.3-0.4-0.4-0.5c0,0-0.1-0.1-0.1-0.3c-0.1-0.1-0.1-0.2-0.1-0.3c0,0,0-0.1,0-0.2c0.1,0,0.1,0,0.2,0.1
					c0.1,0.1,0.1,0.1,0.1,0.1c0.3,0.4,0.7,1.2,1.2,1.4C88.8,18.2,89,18.3,89.4,18.4z"/>
				<path class="st4" d="M89.4,18.1"/>
				<path class="st5" d="M91.5,15.9c0.6-0.1,0.8-0.6,1.2-0.5c0,0,0.3,0.1,0.3,0.3c0,0.1,0,0.1,0,0.2c0,0-0.1,0.1-0.2,0.2
					c-0.2,0.1-0.4,0.1-0.7,0.1c-0.3,0-0.5,0-0.6,0c-0.7-0.1-1.2-0.4-1.2-0.4c-0.8-0.5-1.1-1.2-1.2-1.5c0-0.1,0-0.3,0.1-0.4
					c0.1-0.1,0.2-0.1,0.3-0.1c0.2,0.1,0,0.7,0.3,1.2c0.1,0.2,0.3,0.3,0.5,0.5C90.4,15.7,90.9,16,91.5,15.9z"/>
				<path class="st6" d="M94.4,11.2c0,0.1,0.2,0.3,0.1,0.5c-0.1,0.2-0.5,0.2-0.7,0.2c-0.5,0-0.6-0.2-1.2-0.4c-0.1,0-0.5-0.1-0.9-0.1
					c-0.7,0.1-1,0.4-1.2,0.3c-0.2-0.1-0.3-0.4-0.2-0.6c0.1-0.3,0.4-0.4,0.9-0.5c0.4-0.1,0.8-0.3,1.4-0.2
					C93.2,10.6,94.1,10.6,94.4,11.2z"/>
				<path class="st6" d="M95,12L95,12c-0.1,0.2-0.4,0.2-0.5,0.1c0-0.1,0.1-0.3,0.3-0.3C94.9,11.8,95,11.9,95,12z"/>
				<path class="st7" d="M96.6,9.7c0.1,0.3,0.1,0.7-0.1,0.8c-0.2,0.1-0.6-0.1-1-0.4c-0.5-0.3-1.2-0.7-1.7-0.8
					c-1-0.3-2.4-0.1-2.7-0.3C91,8.9,91,8.8,91,8.8c0-0.1-0.1-0.2-0.1-0.4c0,0,0-0.1,0.2-0.2c0.4-0.3,1.2-0.3,1.2-0.3
					c0.7,0,1.1,0,1.4,0.1c1.1,0.2,1.7,0.6,1.9,0.7C96,8.9,96.4,9.2,96.6,9.7z"/>
				<path class="st7" d="M97.3,10.8c-0.1,0.2-0.4,0.3-0.6,0.2c-0.3-0.2-0.2-0.8,0-0.9C96.9,10,97.4,10.5,97.3,10.8z"/>
			</g>
		</g>
		<g>
			<g>
				<g>
					<g>
						
							<image style="overflow:visible;opacity:0.1;enable-background:new    ;" width="275" height="267" xlink:href="36948CB564FABF46.png"  transform="matrix(7.710405e-02 0 0 7.710405e-02 95.0228 6.384)">
						</image>
						<g>
							
								<linearGradient id="SVGID_18_" gradientUnits="userSpaceOnUse" x1="100.6968" y1="1031.2505" x2="109.7091" y2="1037.5609" gradientTransform="matrix(1 0 0 1 0 -1018)">
								<stop  offset="0" style="stop-color:#79C588"/>
								<stop  offset="0.171" style="stop-color:#006B3C"/>
								<stop  offset="1" style="stop-color:#7DC353"/>
							</linearGradient>
							<path class="st28" d="M110.9,15.8c0.1,0.3,0.1,0.9,0,1.4c-0.1,0.6-0.3,1-0.6,1.4c-0.2,0.3-0.5,0.8-1,1.3
								c-0.3,0.3-1.5,1.4-3.2,1.7c-0.3,0-3.1,0.5-4.9-1.4c-1-1-1.1-2.2-1.2-2.9c-0.1-0.6-0.3-1.8,0.3-3.1c0.9-2.1,3.1-2.8,3.4-3
								c0,0,1.5-0.4,3.1-0.1c0.6,0.1,1.1,0.3,1.2,0.4c0.3,0.1,0.5,0.3,0.9,0.5c0.3,0.2,0.5,0.4,1,1.1
								C110.3,14.1,110.8,14.8,110.9,15.8z"/>
						</g>
					</g>
				</g>
				<path class="st1" d="M109.9,18.8c0.3-0.1,0.3-0.1,0.4-0.1c0,0.1-0.2,0.3-0.5,0.7c-0.2,0.2-0.3,0.3-0.5,0.6
					c-0.1,0.1-0.3,0.3-0.6,0.5c-0.3,0.3-0.8,0.5-1.3,0.8c-0.3,0.2-0.9,0.3-1.3,0.4c-0.1,0-0.9,0.1-1.8,0c-0.5-0.1-1.1-0.2-1.7-0.5
					c-0.3-0.1-0.5-0.3-0.8-0.4c-0.3-0.2-0.4-0.3-0.6-0.5c-0.3-0.3-0.4-0.5-0.5-0.8c-0.1-0.2-0.3-0.3-0.3-0.6
					c-0.1-0.3-0.2-0.4-0.2-0.6c-0.1-0.2-0.1-0.3-0.1-0.5c0-0.1,0-0.3-0.1-0.3c-0.1-0.5-0.1-0.6-0.1-0.8c0-0.2,0-0.3,0.1-0.3
					c0.1-0.1,0.3,0,0.3,0.1c0.3,0.1,0.3,0.3,0.3,0.4c0.3,0.6,0.3,1,0.3,1.3c0.1,0.9,0.8,1.8,1.6,2.3c0,0,1,0.6,2.5,0.5
					c0.1,0,0.1,0,0.1,0c0.7-0.1,1-0.3,1.4-0.5c0.1-0.1,0.8-0.3,1.1-0.6C108.4,19.3,108.8,19.2,109.9,18.8z"/>
				
					<radialGradient id="SVGID_19_" cx="1447.0674" cy="2125.6335" r="9.7688" fx="1450.7675" fy="2128.6748" gradientTransform="matrix(0.2932 0 0 0.2599 -319.3276 -536.4577)" gradientUnits="userSpaceOnUse">
					<stop  offset="0" style="stop-color:#72C169"/>
					<stop  offset="0.3078" style="stop-color:#098040"/>
					<stop  offset="0.4732" style="stop-color:#0B8040"/>
					<stop  offset="1" style="stop-color:#133F1E"/>
				</radialGradient>
				<path class="st29" d="M104.4,18.8c-0.9-0.1-2.1-0.8-2.3-2c-0.1-0.8,0.2-1.5,0.3-1.7c0.1-0.2,0.2-0.4,0.4-0.8
					c0.3-0.3,0.4-0.4,0.7-0.6c0.1-0.1,0.4-0.3,0.8-0.4c0.3-0.1,1-0.3,1.9-0.1c0.1,0,1.5,0.5,1.7,1.9c0,0.3,0.1,1-0.3,1.8
					c-0.5,1-1.3,1.3-1.6,1.5C105.3,18.9,104.6,18.8,104.4,18.8z"/>
				<path class="st3" d="M102.5,20.7c0.2,0.1,0.4,0.2,0.4,0.3c0,0.1-0.3,0.1-0.3,0.1c-0.5,0.1-1.2-0.7-1.6-1
					c-0.2-0.2-0.3-0.3-0.3-0.4c0,0-0.1-0.1-0.1-0.3c-0.1-0.1-0.1-0.2-0.1-0.3c0,0,0-0.1,0-0.2c0.1,0,0.1,0,0.2,0.1
					c0.1,0.1,0.1,0.1,0.1,0.1c0.3,0.3,0.6,1,1,1.3C102,20.5,102.2,20.6,102.5,20.7z"/>
				<path class="st4" d="M102.5,20.4"/>
				<path class="st5" d="M104.5,18.4c0.5-0.1,0.7-0.5,1-0.4c0,0,0.3,0.1,0.3,0.3c0,0.1,0,0.1,0,0.2c0,0-0.1,0.1-0.2,0.2
					c-0.2,0.1-0.3,0.1-0.6,0.1c-0.3,0-0.4,0-0.5,0c-0.6-0.1-1-0.3-1-0.3c-0.7-0.4-1-1-1-1.4c0-0.1,0-0.3,0.1-0.3
					c0.1-0.1,0.2-0.1,0.3-0.1c0.2,0.1,0,0.6,0.3,1.1c0.1,0.2,0.3,0.3,0.4,0.4C103.5,18.2,103.9,18.5,104.5,18.4z"/>
				<path class="st6" d="M107.2,14.1c0,0.1,0.2,0.3,0.1,0.4s-0.4,0.2-0.6,0.2c-0.4,0-0.5-0.2-1-0.3c-0.1,0-0.4-0.1-0.8-0.1
					c-0.6,0.1-0.9,0.3-1.1,0.3c-0.2-0.1-0.3-0.3-0.2-0.5c0.1-0.3,0.3-0.3,0.8-0.4c0.3-0.1,0.7-0.3,1.3-0.2
					C106,13.6,106.8,13.6,107.2,14.1z"/>
				<path class="st6" d="M107.7,14.8L107.7,14.8c-0.1,0.2-0.3,0.2-0.4,0.1c0-0.1,0.1-0.3,0.3-0.3C107.6,14.7,107.7,14.7,107.7,14.8z
					"/>
				<path class="st7" d="M109.1,12.7c0.1,0.3,0.1,0.6-0.1,0.7s-0.5-0.1-0.9-0.3c-0.4-0.3-1-0.6-1.6-0.7c-0.9-0.3-2.2-0.1-2.4-0.3
					c-0.1-0.1-0.1-0.2-0.1-0.2c0-0.1-0.1-0.2-0.1-0.3c0,0,0-0.1,0.2-0.2c0.3-0.3,1-0.3,1-0.3c0.6,0,1,0,1.3,0.1
					c1,0.2,1.6,0.5,1.7,0.6C108.6,12,108.9,12.3,109.1,12.7z"/>
				<path class="st7" d="M109.8,13.8c-0.1,0.2-0.3,0.3-0.5,0.2c-0.3-0.2-0.2-0.7,0-0.8S109.9,13.5,109.8,13.8z"/>
			</g>
		</g>
		<g>
			<g>
				<g>
					<g>
						
							<image style="overflow:visible;opacity:0.1;enable-background:new    ;" width="275" height="267" xlink:href="36948CB564FABF46.png"  transform="matrix(6.939364e-02 0 0 6.939364e-02 106.6847 11.7734)">
						</image>
						<g>
							
								<linearGradient id="SVGID_20_" gradientUnits="userSpaceOnUse" x1="111.7914" y1="1035.9532" x2="119.9024" y2="1041.6327" gradientTransform="matrix(1 0 0 1 0 -1018)">
								<stop  offset="0" style="stop-color:#79C588"/>
								<stop  offset="0.171" style="stop-color:#006B3C"/>
								<stop  offset="1" style="stop-color:#7DC353"/>
							</linearGradient>
							<path class="st30" d="M121,20.2c0.1,0.3,0.1,0.8,0,1.3c-0.1,0.6-0.3,0.9-0.6,1.3c-0.2,0.2-0.5,0.7-0.9,1.2
								c-0.3,0.3-1.3,1.3-2.9,1.6c-0.2,0-2.8,0.5-4.4-1.3c-0.9-0.9-1-2-1.1-2.6c-0.1-0.6-0.3-1.7,0.2-2.8c0.8-1.9,2.8-2.5,3.1-2.7
								c0,0,1.3-0.4,2.8-0.1c0.6,0.1,1,0.3,1.1,0.4c0.2,0.1,0.5,0.2,0.8,0.5c0.2,0.2,0.5,0.4,0.9,1C120.5,18.7,120.9,19.4,121,20.2z
								"/>
						</g>
					</g>
				</g>
				<path class="st1" d="M120.1,22.9c0.3-0.1,0.3-0.1,0.4-0.1c0,0.1-0.2,0.2-0.5,0.6c-0.2,0.2-0.3,0.3-0.5,0.6
					c-0.1,0.1-0.3,0.3-0.6,0.5c-0.3,0.2-0.7,0.5-1.2,0.7c-0.3,0.2-0.8,0.3-1.2,0.4c-0.1,0-0.8,0.1-1.7,0c-0.5-0.1-1-0.2-1.6-0.5
					c-0.2-0.1-0.5-0.2-0.7-0.4c-0.2-0.2-0.4-0.3-0.6-0.5c-0.2-0.2-0.4-0.5-0.5-0.7c-0.1-0.2-0.2-0.3-0.2-0.6
					c-0.1-0.2-0.2-0.4-0.2-0.6c-0.1-0.2-0.1-0.3-0.1-0.5c0-0.1,0-0.2-0.1-0.3c-0.1-0.5-0.1-0.6-0.1-0.7s0-0.3,0.1-0.3
					c0.1-0.1,0.2,0,0.3,0.1c0.2,0.1,0.2,0.3,0.3,0.4c0.2,0.6,0.3,0.9,0.3,1.2c0.1,0.8,0.7,1.7,1.4,2c0,0,0.9,0.6,2.3,0.5
					c0.1,0,0.1,0,0.1,0c0.6-0.1,0.9-0.3,1.3-0.5c0.1-0.1,0.7-0.3,1-0.6C118.7,23.4,119,23.3,120.1,22.9z"/>
				
					<radialGradient id="SVGID_21_" cx="1483.4286" cy="2142.6558" r="8.792" fx="1486.7585" fy="2145.3928" gradientTransform="matrix(0.2932 0 0 0.2599 -319.3276 -536.4577)" gradientUnits="userSpaceOnUse">
					<stop  offset="0" style="stop-color:#72C169"/>
					<stop  offset="0.3078" style="stop-color:#098040"/>
					<stop  offset="0.4732" style="stop-color:#0B8040"/>
					<stop  offset="1" style="stop-color:#133F1E"/>
				</radialGradient>
				<path class="st31" d="M115.1,23c-0.8-0.1-1.9-0.7-2-1.8c-0.1-0.7,0.2-1.3,0.2-1.5c0.1-0.2,0.2-0.4,0.4-0.7
					c0.2-0.2,0.4-0.4,0.6-0.6c0.1-0.1,0.4-0.2,0.7-0.4c0.2-0.1,0.9-0.3,1.7-0.1c0.1,0,1.3,0.5,1.5,1.7c0,0.2,0.1,0.9-0.3,1.7
					c-0.5,0.9-1.2,1.2-1.4,1.3C115.9,23.1,115.3,23,115.1,23z"/>
				<path class="st3" d="M113.5,24.6c0.2,0.1,0.4,0.2,0.4,0.2s-0.2,0.1-0.2,0.1c-0.5,0.1-1.1-0.6-1.4-0.9c-0.2-0.2-0.2-0.3-0.3-0.4
					c0,0-0.1-0.1-0.1-0.2c-0.1-0.1-0.1-0.2-0.1-0.2c0,0,0-0.1,0-0.2c0.1,0,0.1,0,0.2,0.1c0.1,0.1,0.1,0.1,0.1,0.1
					c0.2,0.3,0.6,0.9,0.9,1.2C113,24.5,113.1,24.6,113.5,24.6z"/>
				<path class="st4" d="M113.5,24.4"/>
				<path class="st5" d="M115.2,22.6c0.5-0.1,0.6-0.5,0.9-0.4c0,0,0.2,0.1,0.2,0.2c0,0.1,0,0.1,0,0.2c0,0-0.1,0.1-0.2,0.2
					c-0.2,0.1-0.3,0.1-0.6,0.1c-0.2,0-0.4,0-0.5,0c-0.6-0.1-0.9-0.3-0.9-0.3c-0.6-0.4-0.9-0.9-0.9-1.3c0-0.1,0-0.2,0.1-0.3
					c0.1-0.1,0.2-0.1,0.2-0.1c0.2,0.1,0,0.6,0.2,1c0.1,0.2,0.2,0.2,0.4,0.4C114.3,22.4,114.7,22.7,115.2,22.6z"/>
				<path class="st6" d="M117.6,18.7c0,0.1,0.2,0.2,0.1,0.4c-0.1,0.2-0.4,0.2-0.6,0.2c-0.4,0-0.5-0.2-0.9-0.3
					c-0.1,0-0.4-0.1-0.7-0.1c-0.6,0.1-0.8,0.3-1,0.2c-0.2-0.1-0.2-0.3-0.2-0.5c0.1-0.2,0.3-0.3,0.7-0.4c0.3-0.1,0.6-0.2,1.2-0.2
					C116.6,18.3,117.3,18.3,117.6,18.7z"/>
				<path class="st6" d="M118.1,19.4L118.1,19.4c-0.1,0.2-0.3,0.2-0.4,0.1c0-0.1,0.1-0.2,0.2-0.2C118,19.2,118.1,19.3,118.1,19.4z"
					/>
				<path class="st7" d="M119.4,17.5c0.1,0.2,0.1,0.6-0.1,0.6c-0.2,0.1-0.5-0.1-0.8-0.3c-0.4-0.2-0.9-0.6-1.4-0.6
					c-0.8-0.2-2-0.1-2.2-0.2c-0.1-0.1-0.1-0.2-0.1-0.2c0-0.1-0.1-0.2-0.1-0.3c0,0,0-0.1,0.2-0.2c0.3-0.2,0.9-0.2,0.9-0.2
					c0.6,0,0.9,0,1.2,0.1c0.9,0.2,1.4,0.5,1.6,0.6C118.9,16.9,119.2,17.1,119.4,17.5z"/>
				<path class="st7" d="M120,18.4c-0.1,0.2-0.3,0.2-0.5,0.2c-0.2-0.2-0.2-0.6,0-0.7C119.7,17.8,120.1,18.2,120,18.4z"/>
			</g>
		</g>
		<g>
			<g>
				<g>
					<g>
						
							<image style="overflow:visible;opacity:0.1;enable-background:new    ;" width="275" height="267" xlink:href="36948CB564FABF46.png"  transform="matrix(6.168324e-02 0 0 6.168324e-02 116.2264 18.736)">
						</image>
						<g>
							
								<linearGradient id="SVGID_22_" gradientUnits="userSpaceOnUse" x1="120.7656" y1="1042.2292" x2="127.9754" y2="1047.2776" gradientTransform="matrix(1 0 0 1 0 -1018)">
								<stop  offset="0" style="stop-color:#79C588"/>
								<stop  offset="0.171" style="stop-color:#006B3C"/>
								<stop  offset="1" style="stop-color:#7DC353"/>
							</linearGradient>
							<path class="st32" d="M129,26.3c0.1,0.3,0.1,0.7,0,1.1c-0.1,0.5-0.3,0.8-0.5,1.1c-0.1,0.2-0.4,0.6-0.8,1
								c-0.3,0.3-1.2,1.1-2.6,1.4c-0.2,0-2.4,0.4-3.9-1.1c-0.8-0.8-0.9-1.7-1-2.3c-0.1-0.5-0.3-1.5,0.2-2.5c0.7-1.7,2.4-2.2,2.7-2.4
								c0,0,1.2-0.3,2.4-0.1c0.5,0.1,0.9,0.3,1,0.3c0.2,0.1,0.4,0.2,0.7,0.4c0.2,0.1,0.4,0.3,0.8,0.9
								C128.5,24.9,128.8,25.5,129,26.3z"/>
						</g>
					</g>
				</g>
				<path class="st1" d="M128.1,28.6c0.3-0.1,0.3-0.1,0.3-0.1c0,0.1-0.1,0.2-0.4,0.6c-0.1,0.1-0.3,0.3-0.4,0.5
					c-0.1,0.1-0.3,0.3-0.5,0.4c-0.3,0.2-0.6,0.4-1,0.6c-0.3,0.1-0.7,0.3-1,0.3c-0.1,0-0.7,0.1-1.5,0c-0.4-0.1-0.9-0.1-1.4-0.4
					c-0.2-0.1-0.4-0.2-0.6-0.3c-0.2-0.1-0.3-0.3-0.5-0.4c-0.2-0.2-0.3-0.4-0.4-0.6c-0.1-0.1-0.2-0.3-0.2-0.5
					c-0.1-0.2-0.1-0.3-0.1-0.5c-0.1-0.1-0.1-0.3-0.1-0.4c0-0.1,0-0.2-0.1-0.3c-0.1-0.4-0.1-0.5-0.1-0.6s0-0.3,0.1-0.3
					c0.1-0.1,0.2,0,0.3,0.1c0.2,0.1,0.2,0.3,0.3,0.3c0.2,0.5,0.3,0.8,0.3,1c0.1,0.7,0.6,1.5,1.3,1.8c0,0,0.8,0.5,2,0.4
					c0.1,0,0.1,0,0.1,0c0.6-0.1,0.8-0.3,1.1-0.4c0.1-0.1,0.6-0.3,0.9-0.5C126.9,29.1,127.2,29,128.1,28.6z"/>
				
					<radialGradient id="SVGID_23_" cx="1512.5592" cy="2165.731" r="7.8151" fx="1515.5192" fy="2168.1638" gradientTransform="matrix(0.2932 0 0 0.2599 -319.3276 -536.4577)" gradientUnits="userSpaceOnUse">
					<stop  offset="0" style="stop-color:#72C169"/>
					<stop  offset="0.3078" style="stop-color:#098040"/>
					<stop  offset="0.4732" style="stop-color:#0B8040"/>
					<stop  offset="1" style="stop-color:#133F1E"/>
				</radialGradient>
				<path class="st33" d="M123.7,28.7c-0.7-0.1-1.7-0.6-1.8-1.6c-0.1-0.6,0.1-1.2,0.2-1.3c0.1-0.1,0.1-0.3,0.3-0.6
					c0.2-0.2,0.3-0.3,0.6-0.5c0.1-0.1,0.3-0.2,0.6-0.3c0.2-0.1,0.8-0.3,1.5-0.1c0.1,0,1.2,0.4,1.3,1.5c0,0.2,0.1,0.8-0.3,1.5
					c-0.4,0.8-1,1-1.3,1.2C124.4,28.8,123.9,28.7,123.7,28.7z"/>
				<path class="st3" d="M122.2,30.2c0.1,0.1,0.3,0.1,0.3,0.2s-0.2,0.1-0.2,0.1c-0.4,0.1-1-0.6-1.3-0.8c-0.1-0.1-0.2-0.3-0.3-0.3
					c0,0-0.1-0.1-0.1-0.2c-0.1-0.1-0.1-0.1-0.1-0.2c0,0,0-0.1,0-0.1c0.1,0,0.1,0,0.1,0.1s0.1,0.1,0.1,0.1c0.2,0.3,0.5,0.8,0.8,1
					C121.8,30,122,30.1,122.2,30.2z"/>
				<path class="st4" d="M122.2,30"/>
				<path class="st5" d="M123.8,28.4c0.4-0.1,0.6-0.4,0.8-0.3c0,0,0.2,0.1,0.2,0.2c0,0.1,0,0.1,0,0.1c0,0-0.1,0.1-0.1,0.1
					c-0.1,0.1-0.3,0.1-0.5,0.1c-0.2,0-0.3,0-0.4,0c-0.5-0.1-0.8-0.3-0.8-0.3c-0.6-0.3-0.8-0.8-0.8-1.1c0-0.1,0-0.2,0.1-0.3
					c0.1-0.1,0.1-0.1,0.2-0.1c0.1,0.1,0,0.5,0.2,0.9c0.1,0.1,0.2,0.2,0.3,0.3C123,28.2,123.4,28.4,123.8,28.4z"/>
				<path class="st6" d="M126,24.9c0,0.1,0.1,0.2,0.1,0.3s-0.3,0.1-0.5,0.1c-0.3,0-0.4-0.1-0.8-0.3c-0.1,0-0.3-0.1-0.6-0.1
					c-0.5,0.1-0.7,0.3-0.9,0.2c-0.1-0.1-0.2-0.3-0.1-0.4c0.1-0.2,0.3-0.3,0.6-0.3c0.3-0.1,0.6-0.2,1-0.1
					C125,24.5,125.7,24.5,126,24.9z"/>
				<path class="st6" d="M126.4,25.5L126.4,25.5c-0.1,0.1-0.3,0.1-0.3,0.1c0-0.1,0.1-0.2,0.2-0.2C126.3,25.3,126.4,25.4,126.4,25.5z
					"/>
				<path class="st7" d="M127.5,23.8c0.1,0.2,0.1,0.5-0.1,0.6c-0.1,0.1-0.4-0.1-0.7-0.3c-0.3-0.2-0.8-0.5-1.3-0.6
					c-0.7-0.2-1.7-0.1-2-0.2c-0.1-0.1-0.1-0.1-0.1-0.1c0-0.1-0.1-0.1-0.1-0.3c0,0,0-0.1,0.1-0.1c0.3-0.2,0.8-0.2,0.8-0.2
					c0.5,0,0.8,0,1,0.1c0.8,0.1,1.3,0.4,1.4,0.5C127.1,23.3,127.3,23.5,127.5,23.8z"/>
				<path class="st7" d="M128,24.7c-0.1,0.1-0.3,0.2-0.4,0.1c-0.2-0.1-0.1-0.6,0-0.6C127.8,24.1,128.1,24.4,128,24.7z"/>
			</g>
		</g>
	</g>
</g>
</svg>
