<svg id="Layer_1" data-name="Layer 1" xmlns="http://www.w3.org/2000/svg" xmlns:xlink="http://www.w3.org/1999/xlink" viewBox="0 0 72.79 70.62"><defs><style>.cls-1{fill:url(#linear-gradient);}.cls-2{fill:#f1f2f2;opacity:0.2;}.cls-2,.cls-4,.cls-5,.cls-6,.cls-7{isolation:isolate;}.cls-3{fill:url(#radial-gradient);}.cls-4,.cls-5,.cls-6,.cls-7{fill:#fff;}.cls-4{opacity:0.67;}.cls-5{opacity:0.49;}.cls-6{opacity:0.48;}.cls-7{opacity:0.79;}</style><linearGradient id="linear-gradient" x1="7.29" y1="15.66" x2="65.23" y2="56.23" gradientUnits="userSpaceOnUse"><stop offset="0" stop-color="#79c588"/><stop offset="0.17" stop-color="#006b3c"/><stop offset="1" stop-color="#7dc353"/></linearGradient><radialGradient id="radial-gradient" cx="1230.4" cy="-3533.83" fx="1255.9781612637303" fy="-3512.814128598084" r="67.52" gradientTransform="matrix(0.27, 0, 0, -0.24, -293.33, -801.76)" gradientUnits="userSpaceOnUse"><stop offset="0" stop-color="#72c169"/><stop offset="0.31" stop-color="#098040"/><stop offset="0.47" stop-color="#0b8040"/><stop offset="1" stop-color="#133f1e"/></radialGradient></defs><path class="cls-1" d="M64.9,15.05C36.27-24.81-22.85,22.93,9.33,60.71,45.73,90.82,91.39,45.55,64.9,15.05Z"/><path class="cls-2" d="M67.2,53.07c-.47.7-1.14,1.66-2,2.74a40.52,40.52,0,0,1-14,11.11,38.51,38.51,0,0,1-18.76,3.59,46.59,46.59,0,0,1-18.88-6.68A21.58,21.58,0,0,1,8.75,60a26,26,0,0,1-3.14-4.57,38.85,38.85,0,0,1-4.13-8.62A32.19,32.19,0,0,1,.33,32.6c9.1,21.72,17.85,27.12,24.39,27.77C37.35,61.64,50.47,46,65,52A19.86,19.86,0,0,1,67.2,53.07Z"/><path class="cls-3" d="M31.65,52.35c-25.35-3-13.71-42.3,11.14-34.54C61.35,21.32,50.76,56.91,31.65,52.35Z"/><path class="cls-4" d="M31.55,65.7c.33.71-.21,1.77-.87,2.37-1.08,1-2.75.93-5.19.38-1.76-.4-5.81-1.69-11.64-5.4a33.76,33.76,0,0,1-6.14-5.53,9.71,9.71,0,0,1-1.78-3.07,4.46,4.46,0,0,1-.28-2.64,2.18,2.18,0,0,1,.53-1.14,2,2,0,0,1,1.43-.43c1.74.08,2.83,3.23,5.12,6.61a17.23,17.23,0,0,0,3.49,4.24c4.06,3.28,10.14,3.69,11.09,3.74C29.34,64.94,31.1,64.76,31.55,65.7Z"/><path class="cls-5" d="M32,49.38c5,.08,8.28-3.33,9.55-2,.62.63.38,2-.09,2.78-1.37,2.34-5.73,2-8.1,1.73a16.4,16.4,0,0,1-8.29-2.55C20.9,46.49,17.46,41,19,38.26c.31-.56,1-1.24,1.56-1.14,1.45.25.33,5,2.88,8.38C26.16,49.21,31.68,49.37,32,49.38Z"/><path class="cls-6" d="M49.11,22.63c.11.25.85,1.89.21,2.54-1.39,1.42-6.54-4.82-12.58-3.77C33,22,31.22,25.05,28.46,24c-.85-.32-2-1.11-1.95-2,0-1.89,5.4-3.61,9.78-3.89C36.82,18.09,46.82,17.55,49.11,22.63Z"/><path class="cls-6" d="M50.93,26.77c1,.52.82,3.73-.15,4.06-.75.26-2.56-1-2.25-2.49C48.78,27.14,50.25,26.43,50.93,26.77Z"/><path class="cls-7" d="M61.37,13.72c.09.4.73,3-.54,4.06-2.23,1.81-6.65-4.52-15.44-6.29C37.8,10,32.26,12.9,29.79,9.5a3.5,3.5,0,0,1-.74-2.84c1.06-3.4,10.88-3.72,18.19-2C50.09,5.26,59.87,7.49,61.37,13.72Z"/><path class="cls-7" d="M65.82,20.4c-2.57,4-6.21-1.95-3.34-3.71C63.59,16,66.19,18.55,65.82,20.4Z"/></svg>