<svg id="Layer_1" data-name="Layer 1" xmlns="http://www.w3.org/2000/svg" xmlns:xlink="http://www.w3.org/1999/xlink" viewBox="0 0 90.01 87.39"><defs><style>.cls-1{fill:url(#linear-gradient);}.cls-2{fill:#f2f2f2;opacity:0.2;}.cls-2,.cls-4,.cls-5,.cls-6,.cls-7{isolation:isolate;}.cls-3{fill:url(#radial-gradient);}.cls-4,.cls-5,.cls-6,.cls-7{fill:#fff;}.cls-4{opacity:0.67;}.cls-5{opacity:0.49;}.cls-6{opacity:0.48;}.cls-7{opacity:0.79;}</style><linearGradient id="linear-gradient" x1="24.09" y1="-749.87" x2="62.34" y2="-776.66" gradientTransform="matrix(1, 0, 0, -1, 0, -720.73)" gradientUnits="userSpaceOnUse"><stop offset="0" stop-color="#7ac689"/><stop offset="0.17" stop-color="#026c3c"/><stop offset="1" stop-color="#7ec353"/></linearGradient><radialGradient id="radial-gradient" cx="1374.94" cy="-2325.91" fx="1387.2851593256435" fy="-2315.764786728172" r="32.59" gradientTransform="matrix(0.37, 0, 0, -0.33, -470.58, -728.22)" gradientUnits="userSpaceOnUse"><stop offset="0" stop-color="#73c16b"/><stop offset="0.31" stop-color="#0f8040"/><stop offset="0.47" stop-color="#0f8040"/><stop offset="1" stop-color="#164020"/></radialGradient></defs><path class="cls-1" d="M67.56,39.9a14.54,14.54,0,0,1,0,5.9c-.4,2.6-1.5,4.1-2.6,5.9a33.4,33.4,0,0,1-4.5,5.6,27.61,27.61,0,0,1-13.7,7.4c-1.1,0-13,2.2-20.8-5.9a21.09,21.09,0,0,1-5.2-12.2c-.4-2.6-1.5-7.8,1.1-13.4,3.7-8.9,13-11.9,14.5-12.6a28.63,28.63,0,0,1,13-.4,12.64,12.64,0,0,1,5.2,1.9,15.39,15.39,0,0,1,3.7,2.2c1.1.7,2.2,1.9,4.1,4.8C65,32.9,66.86,35.8,67.56,39.9Z"/><path class="cls-2" d="M63.06,52.5a6.14,6.14,0,0,1,1.9-.4c0,.4-.7,1.1-2.2,3a15,15,0,0,0-2.2,2.6A16.93,16.93,0,0,1,58,59.9a34.53,34.53,0,0,1-5.6,3.3,28.29,28.29,0,0,1-5.6,1.9,44.38,44.38,0,0,1-7.8,0,21.21,21.21,0,0,1-7.4-2.2,14,14,0,0,1-3.3-1.9,15,15,0,0,1-2.6-2.2,8,8,0,0,1-2.2-3.3,5.15,5.15,0,0,1-1.1-2.6,8.46,8.46,0,0,1-.7-2.6,4.31,4.31,0,0,1-.4-2.2,2.15,2.15,0,0,0-.4-1.5,15,15,0,0,1-.4-3.3c0-.7,0-1.5.4-1.5.4-.4,1.1,0,1.5.4,1.1.4,1.1,1.5,1.5,1.9a14.12,14.12,0,0,1,1.5,5.6,13.54,13.54,0,0,0,6.7,9.6,20.76,20.76,0,0,0,10.8,2.2h.4a15.46,15.46,0,0,0,5.9-2.2c.4-.4,3.3-1.5,4.8-2.6C56.76,54.7,58.26,54.4,63.06,52.5Z"/><path class="cls-3" d="M39.76,52.9c-3.7-.4-8.9-3.3-9.6-8.5a13.34,13.34,0,0,1,1.1-7,13.57,13.57,0,0,1,1.9-3.3,17.39,17.39,0,0,1,3-2.6,30.36,30.36,0,0,1,3.3-1.9,13.43,13.43,0,0,1,8.2-.4c.4,0,6.3,2.2,7,8.2a14.44,14.44,0,0,1-1.5,7.8,15.66,15.66,0,0,1-6.7,6.3A11,11,0,0,1,39.76,52.9Z"/><path class="cls-4" d="M32,60.7c.7.4,1.9.7,1.9,1.1s-1.2.4-1.2.4c-2.2.4-5.2-3-6.7-4.5-.7-.7-1.1-1.5-1.4-1.8a1.63,1.63,0,0,1-.4-1.1,1.28,1.28,0,0,1-.4-1.1V53c.4,0,.4,0,.7.4l.4.4c1.1,1.5,2.6,4.5,4.5,5.6A4.68,4.68,0,0,0,32,60.7Z"/><path class="cls-5" d="M40.06,51c2.2-.4,3-2.2,4.5-1.9,0,0,1.1.4,1.1,1.1v.7l-.7.7a5.1,5.1,0,0,1-2.6.4h-2.2a14.21,14.21,0,0,1-4.5-1.5,10.35,10.35,0,0,1-4.5-5.9,2.15,2.15,0,0,1,.4-1.5,1.28,1.28,0,0,1,1.1-.4c.7.4,0,2.6,1.1,4.8a11.28,11.28,0,0,0,1.9,1.9C36.06,50.3,37.86,51.4,40.06,51Z"/><path class="cls-6" d="M51.56,32.9c0,.4.7,1.1.4,1.9s-1.9.7-2.6.7c-1.9,0-2.2-.7-4.5-1.5a29.1,29.1,0,0,0-3.3-.4c-2.6.4-3.7,1.5-4.8,1.1a1.77,1.77,0,0,1-.7-2.2c.4-1.1,1.5-1.5,3.3-1.9a11.39,11.39,0,0,1,5.6-.7C46.76,30.6,50.16,30.6,51.56,32.9Z"/><path class="cls-6" d="M53.86,35.8v.4a1.65,1.65,0,0,1-1.9,0,1.17,1.17,0,0,1,1.1-1.1A.86.86,0,0,1,53.86,35.8Z"/><path class="cls-7" d="M59.76,26.9c.4,1.1.4,2.6-.4,3s-2.2-.4-3.7-1.5c-1.9-1.1-4.5-2.6-6.7-3-3.7-1.1-9.3-.4-10.4-1.1a1.08,1.08,0,0,1-.3-.7c0-.4-.4-.7-.4-1.5,0,0,0-.4.7-.7,1.5-1.1,4.5-1.1,4.5-1.1a21.65,21.65,0,0,1,5.6.4,22.06,22.06,0,0,1,7.4,2.6A6.85,6.85,0,0,1,59.76,26.9Z"/><path class="cls-7" d="M62.76,31.4a1.77,1.77,0,0,1-2.2.7c-1.1-.7-.7-3,0-3.3S63.06,30.3,62.76,31.4Z"/></svg>